M48
INCH,LZ
;FILE_FORMAT=2:4
;TYPE=PLATED
;Layer: PTH_Through
;EasyEDA v6.5.22, 2023-01-16 17:42:31
;f8123aca958c4c3ea5a118542eafadee,9c419fbbf7cf4e6293d4911e9c662303,10
;Gerber Generator version 0.2
;Holesize 1 = 0.0360 inch
T01C0.0360
;Holesize 2 = 0.0390 inch
T02C0.0390
%
G05
G90
T01
X021250Y016400
X022250Y016400
X023250Y016400
X024250Y016400
X004049Y025090
X004049Y024106
X004049Y023121
X004049Y022137
X004049Y021153
X004049Y020169
X004049Y019184
X004049Y018200
X004049Y017216
X004049Y016232
X004049Y015247
X004049Y014263
X004049Y013279
X004049Y012295
X004049Y011310
X015151Y025090
X015151Y024106
X015151Y023121
X015151Y022137
X015151Y021153
X015151Y020169
X015151Y019184
X015151Y018200
X015151Y017216
X015151Y016232
X015151Y015247
X015151Y014263
X015151Y013279
X015151Y012295
X015151Y011310
X028300Y015600
X028300Y016600
X028300Y017600
X028300Y018600
X028300Y010050
X028300Y011050
X028300Y012050
X028300Y013050
X023300Y023050
X024350Y023050
X025350Y023050
X026350Y023050
X027350Y023050
T02
X032664Y026663
X032664Y025663
X032664Y024663
M30
