G04 Layer: BottomLayer*
G04 EasyEDA v6.5.22, 2023-01-16 17:42:31*
G04 f8123aca958c4c3ea5a118542eafadee,9c419fbbf7cf4e6293d4911e9c662303,10*
G04 Gerber Generator version 0.2*
G04 Scale: 100 percent, Rotated: No, Reflected: No *
G04 Dimensions in inches *
G04 leading zeros omitted , absolute positions ,3 integer and 6 decimal *
%FSLAX36Y36*%
%MOIN*%

%ADD10C,0.0200*%
%ADD11C,0.0100*%
%ADD12R,0.0600X0.0600*%
%ADD13C,0.0600*%
%ADD14C,0.0630*%
%ADD15C,0.0700*%
%ADD16C,0.0126*%

%LPD*%
G36*
X289800Y600700D02*
G01*
X288260Y601000D01*
X286980Y601880D01*
X286100Y603160D01*
X285800Y604700D01*
X285800Y3055800D01*
X286100Y3057340D01*
X286980Y3058620D01*
X288260Y3059500D01*
X289800Y3059800D01*
X3585800Y3059800D01*
X3587340Y3059500D01*
X3588620Y3058620D01*
X3589500Y3057340D01*
X3589800Y3055800D01*
X3589800Y604700D01*
X3589500Y603160D01*
X3588620Y601880D01*
X3587340Y601000D01*
X3585800Y600700D01*
G37*

%LPC*%
G36*
X2830000Y959800D02*
G01*
X2835659Y960160D01*
X2841240Y961220D01*
X2846640Y962980D01*
X2851780Y965400D01*
X2856560Y968439D01*
X2860940Y972060D01*
X2864820Y976200D01*
X2868159Y980780D01*
X2870899Y985759D01*
X2872980Y991040D01*
X2874400Y996540D01*
X2875100Y1002159D01*
X2875100Y1007840D01*
X2874400Y1013460D01*
X2872980Y1018960D01*
X2870899Y1024240D01*
X2868159Y1029220D01*
X2864820Y1033800D01*
X2860940Y1037940D01*
X2856560Y1041560D01*
X2851780Y1044599D01*
X2846640Y1047020D01*
X2841240Y1048780D01*
X2835659Y1049840D01*
X2830000Y1050200D01*
X2824340Y1049840D01*
X2818759Y1048780D01*
X2813360Y1047020D01*
X2808220Y1044599D01*
X2803440Y1041560D01*
X2799060Y1037940D01*
X2795179Y1033800D01*
X2791840Y1029220D01*
X2789100Y1024240D01*
X2787020Y1018960D01*
X2785600Y1013460D01*
X2784900Y1007840D01*
X2784900Y1002159D01*
X2785600Y996540D01*
X2787020Y991040D01*
X2789100Y985759D01*
X2791840Y980780D01*
X2795179Y976200D01*
X2799060Y972060D01*
X2803440Y968439D01*
X2808220Y965400D01*
X2813360Y962980D01*
X2818759Y961220D01*
X2824340Y960160D01*
G37*
G36*
X2850000Y1064560D02*
G01*
X2851780Y1065400D01*
X2856560Y1068440D01*
X2860940Y1072060D01*
X2864820Y1076200D01*
X2868159Y1080780D01*
X2870480Y1085000D01*
X2850000Y1085000D01*
G37*
G36*
X2810000Y1064560D02*
G01*
X2810000Y1085000D01*
X2789520Y1085000D01*
X2791840Y1080780D01*
X2795179Y1076200D01*
X2799060Y1072060D01*
X2803440Y1068440D01*
X2808220Y1065400D01*
G37*
G36*
X403540Y1090860D02*
G01*
X408900Y1091040D01*
X414200Y1091920D01*
X419320Y1093520D01*
X424200Y1095780D01*
X428720Y1098660D01*
X432819Y1102140D01*
X436420Y1106120D01*
X439460Y1110540D01*
X441880Y1115340D01*
X443640Y1120400D01*
X444720Y1125660D01*
X445080Y1131020D01*
X444720Y1136380D01*
X443640Y1141640D01*
X441880Y1146720D01*
X439460Y1151500D01*
X436420Y1155940D01*
X432819Y1159920D01*
X428720Y1163380D01*
X424200Y1166260D01*
X419320Y1168520D01*
X414200Y1170120D01*
X408900Y1171020D01*
X403540Y1171200D01*
X398200Y1170660D01*
X392980Y1169420D01*
X387960Y1167480D01*
X383260Y1164900D01*
X378940Y1161720D01*
X375080Y1157980D01*
X371740Y1153760D01*
X369020Y1149160D01*
X366920Y1144200D01*
X365500Y1139020D01*
X364780Y1133700D01*
X364780Y1128340D01*
X365500Y1123020D01*
X366920Y1117840D01*
X369020Y1112900D01*
X371740Y1108280D01*
X375080Y1104060D01*
X378940Y1100340D01*
X383260Y1097140D01*
X387960Y1094560D01*
X392980Y1092640D01*
X398200Y1091400D01*
G37*
G36*
X1513779Y1090860D02*
G01*
X1519139Y1091040D01*
X1524440Y1091920D01*
X1529560Y1093520D01*
X1534440Y1095780D01*
X1538959Y1098660D01*
X1543060Y1102140D01*
X1546660Y1106120D01*
X1549700Y1110540D01*
X1552120Y1115340D01*
X1553880Y1120400D01*
X1554960Y1125660D01*
X1555300Y1131020D01*
X1554960Y1136380D01*
X1553880Y1141640D01*
X1552120Y1146720D01*
X1549700Y1151500D01*
X1546660Y1155940D01*
X1543060Y1159920D01*
X1538959Y1163380D01*
X1534440Y1166260D01*
X1529560Y1168520D01*
X1524440Y1170120D01*
X1519139Y1171020D01*
X1513779Y1171200D01*
X1508440Y1170660D01*
X1503220Y1169420D01*
X1498200Y1167480D01*
X1493500Y1164900D01*
X1489160Y1161720D01*
X1485320Y1157980D01*
X1481980Y1153760D01*
X1479240Y1149160D01*
X1477160Y1144200D01*
X1475740Y1139020D01*
X1475020Y1133700D01*
X1475020Y1128340D01*
X1475740Y1123020D01*
X1477160Y1117840D01*
X1479240Y1112900D01*
X1481980Y1108280D01*
X1485320Y1104060D01*
X1489160Y1100340D01*
X1493500Y1097140D01*
X1498200Y1094560D01*
X1503220Y1092640D01*
X1508440Y1091400D01*
G37*
G36*
X2850000Y1125000D02*
G01*
X2870480Y1125000D01*
X2868159Y1129220D01*
X2864820Y1133800D01*
X2860940Y1137940D01*
X2856560Y1141560D01*
X2851780Y1144600D01*
X2850000Y1145440D01*
G37*
G36*
X2789520Y1125000D02*
G01*
X2810000Y1125000D01*
X2810000Y1145440D01*
X2808220Y1144600D01*
X2803440Y1141560D01*
X2799060Y1137940D01*
X2795179Y1133800D01*
X2791840Y1129220D01*
G37*
G36*
X2830000Y1159800D02*
G01*
X2835659Y1160160D01*
X2841240Y1161220D01*
X2846640Y1162980D01*
X2851780Y1165400D01*
X2856560Y1168440D01*
X2860940Y1172060D01*
X2864820Y1176200D01*
X2868159Y1180780D01*
X2870899Y1185760D01*
X2872980Y1191040D01*
X2874400Y1196540D01*
X2875100Y1202160D01*
X2875100Y1207840D01*
X2874400Y1213460D01*
X2872980Y1218960D01*
X2870899Y1224240D01*
X2868159Y1229220D01*
X2864820Y1233800D01*
X2860940Y1237940D01*
X2856560Y1241560D01*
X2851780Y1244600D01*
X2846640Y1247020D01*
X2841240Y1248780D01*
X2835659Y1249840D01*
X2830000Y1250200D01*
X2824340Y1249840D01*
X2818759Y1248780D01*
X2813360Y1247020D01*
X2808220Y1244600D01*
X2803440Y1241560D01*
X2799060Y1237940D01*
X2795179Y1233800D01*
X2791840Y1229220D01*
X2789100Y1224240D01*
X2787020Y1218960D01*
X2785600Y1213460D01*
X2784900Y1207840D01*
X2784900Y1202160D01*
X2785600Y1196540D01*
X2787020Y1191040D01*
X2789100Y1185760D01*
X2791840Y1180780D01*
X2795179Y1176200D01*
X2799060Y1172060D01*
X2803440Y1168440D01*
X2808220Y1165400D01*
X2813360Y1162980D01*
X2818759Y1161220D01*
X2824340Y1160160D01*
G37*
G36*
X403540Y1189280D02*
G01*
X408900Y1189460D01*
X414200Y1190360D01*
X419320Y1191940D01*
X424200Y1194200D01*
X428720Y1197100D01*
X432819Y1200560D01*
X436420Y1204540D01*
X439460Y1208960D01*
X441880Y1213760D01*
X443640Y1218840D01*
X444720Y1224100D01*
X445080Y1229440D01*
X444720Y1234800D01*
X443640Y1240060D01*
X441880Y1245140D01*
X439460Y1249940D01*
X436420Y1254360D01*
X432819Y1258340D01*
X428720Y1261800D01*
X424200Y1264700D01*
X419320Y1266960D01*
X414200Y1268540D01*
X408900Y1269440D01*
X403540Y1269620D01*
X398200Y1269080D01*
X392980Y1267840D01*
X387960Y1265900D01*
X383260Y1263320D01*
X378940Y1260140D01*
X375080Y1256400D01*
X371740Y1252200D01*
X369020Y1247580D01*
X366920Y1242640D01*
X365500Y1237460D01*
X364780Y1232140D01*
X364780Y1226760D01*
X365500Y1221440D01*
X366920Y1216260D01*
X369020Y1211320D01*
X371740Y1206700D01*
X375080Y1202500D01*
X378940Y1198760D01*
X383260Y1195580D01*
X387960Y1193000D01*
X392980Y1191060D01*
X398200Y1189820D01*
G37*
G36*
X1513779Y1189280D02*
G01*
X1519139Y1189460D01*
X1524440Y1190360D01*
X1529560Y1191940D01*
X1534440Y1194200D01*
X1538959Y1197100D01*
X1543060Y1200560D01*
X1546660Y1204540D01*
X1549700Y1208960D01*
X1552120Y1213760D01*
X1553880Y1218840D01*
X1554960Y1224100D01*
X1555300Y1229440D01*
X1554960Y1234800D01*
X1553880Y1240060D01*
X1552120Y1245140D01*
X1549700Y1249940D01*
X1546660Y1254360D01*
X1543060Y1258340D01*
X1538959Y1261800D01*
X1534440Y1264700D01*
X1529560Y1266960D01*
X1524440Y1268540D01*
X1519139Y1269440D01*
X1513779Y1269620D01*
X1508440Y1269080D01*
X1503220Y1267840D01*
X1498200Y1265900D01*
X1493500Y1263320D01*
X1489160Y1260140D01*
X1485320Y1256400D01*
X1481980Y1252200D01*
X1479240Y1247580D01*
X1477160Y1242640D01*
X1475740Y1237460D01*
X1475020Y1232140D01*
X1475020Y1226760D01*
X1475740Y1221440D01*
X1477160Y1216260D01*
X1479240Y1211320D01*
X1481980Y1206700D01*
X1485320Y1202500D01*
X1489160Y1198760D01*
X1493500Y1195580D01*
X1498200Y1193000D01*
X1503220Y1191060D01*
X1508440Y1189820D01*
G37*
G36*
X2830000Y1259800D02*
G01*
X2835659Y1260160D01*
X2841240Y1261220D01*
X2846640Y1262980D01*
X2851780Y1265400D01*
X2856560Y1268440D01*
X2860940Y1272060D01*
X2864820Y1276200D01*
X2868159Y1280780D01*
X2870899Y1285760D01*
X2872980Y1291040D01*
X2874400Y1296540D01*
X2875100Y1302160D01*
X2875100Y1307840D01*
X2874400Y1313460D01*
X2872980Y1318959D01*
X2870899Y1324240D01*
X2868159Y1329220D01*
X2864820Y1333800D01*
X2860940Y1337940D01*
X2856560Y1341560D01*
X2851780Y1344600D01*
X2846640Y1347020D01*
X2841240Y1348779D01*
X2835659Y1349840D01*
X2830000Y1350200D01*
X2824340Y1349840D01*
X2818759Y1348779D01*
X2813360Y1347020D01*
X2808220Y1344600D01*
X2803440Y1341560D01*
X2799060Y1337940D01*
X2795179Y1333800D01*
X2791840Y1329220D01*
X2789100Y1324240D01*
X2787020Y1318959D01*
X2785600Y1313460D01*
X2784900Y1307840D01*
X2784900Y1302160D01*
X2785600Y1296540D01*
X2787020Y1291040D01*
X2789100Y1285760D01*
X2791840Y1280780D01*
X2795179Y1276200D01*
X2799060Y1272060D01*
X2803440Y1268440D01*
X2808220Y1265400D01*
X2813360Y1262980D01*
X2818759Y1261220D01*
X2824340Y1260160D01*
G37*
G36*
X403540Y1287700D02*
G01*
X408900Y1287880D01*
X414200Y1288779D01*
X419320Y1290360D01*
X424200Y1292620D01*
X428720Y1295520D01*
X432819Y1298980D01*
X436420Y1302960D01*
X439460Y1307400D01*
X441880Y1312180D01*
X443640Y1317260D01*
X444720Y1322520D01*
X445080Y1327880D01*
X444720Y1333240D01*
X443640Y1338500D01*
X441880Y1343560D01*
X439460Y1348360D01*
X436420Y1352780D01*
X432819Y1356759D01*
X428720Y1360240D01*
X424200Y1363120D01*
X419320Y1365380D01*
X414200Y1366980D01*
X408900Y1367860D01*
X403540Y1368040D01*
X398200Y1367500D01*
X392980Y1366260D01*
X387960Y1364340D01*
X383260Y1361759D01*
X378940Y1358560D01*
X375080Y1354840D01*
X371740Y1350620D01*
X369020Y1346000D01*
X366920Y1341060D01*
X365500Y1335880D01*
X364780Y1330560D01*
X364780Y1325200D01*
X365500Y1319860D01*
X366920Y1314700D01*
X369020Y1309740D01*
X371740Y1305120D01*
X375080Y1300920D01*
X378940Y1297180D01*
X383260Y1294000D01*
X387960Y1291420D01*
X392980Y1289480D01*
X398200Y1288240D01*
G37*
G36*
X1513779Y1287700D02*
G01*
X1519139Y1287880D01*
X1524440Y1288779D01*
X1529560Y1290360D01*
X1534440Y1292620D01*
X1538959Y1295520D01*
X1543060Y1298980D01*
X1546660Y1302960D01*
X1549700Y1307400D01*
X1552120Y1312180D01*
X1553880Y1317260D01*
X1554960Y1322520D01*
X1555300Y1327880D01*
X1554960Y1333240D01*
X1553880Y1338500D01*
X1552120Y1343560D01*
X1549700Y1348360D01*
X1546660Y1352780D01*
X1543060Y1356759D01*
X1538959Y1360240D01*
X1534440Y1363120D01*
X1529560Y1365380D01*
X1524440Y1366980D01*
X1519139Y1367860D01*
X1513779Y1368040D01*
X1508440Y1367500D01*
X1503220Y1366260D01*
X1498200Y1364340D01*
X1493500Y1361759D01*
X1489160Y1358560D01*
X1485320Y1354840D01*
X1481980Y1350620D01*
X1479240Y1346000D01*
X1477160Y1341060D01*
X1475740Y1335880D01*
X1475020Y1330560D01*
X1475020Y1325200D01*
X1475740Y1319860D01*
X1477160Y1314700D01*
X1479240Y1309740D01*
X1481980Y1305120D01*
X1485320Y1300920D01*
X1489160Y1297180D01*
X1493500Y1294000D01*
X1498200Y1291420D01*
X1503220Y1289480D01*
X1508440Y1288240D01*
G37*
G36*
X403540Y1386140D02*
G01*
X408900Y1386320D01*
X414200Y1387200D01*
X419320Y1388800D01*
X424200Y1391060D01*
X428720Y1393940D01*
X432819Y1397400D01*
X436420Y1401399D01*
X439460Y1405820D01*
X441880Y1410600D01*
X443640Y1415680D01*
X444720Y1420940D01*
X445080Y1426300D01*
X444720Y1431660D01*
X443640Y1436920D01*
X441880Y1442000D01*
X439460Y1446780D01*
X436420Y1451200D01*
X432819Y1455200D01*
X428720Y1458660D01*
X424200Y1461540D01*
X419320Y1463800D01*
X414200Y1465400D01*
X408900Y1466279D01*
X403540Y1466459D01*
X398200Y1465940D01*
X392980Y1464680D01*
X387960Y1462760D01*
X383260Y1460180D01*
X378940Y1457000D01*
X375080Y1453260D01*
X371740Y1449040D01*
X369020Y1444420D01*
X366920Y1439480D01*
X365500Y1434300D01*
X364780Y1428980D01*
X364780Y1423620D01*
X365500Y1418300D01*
X366920Y1413120D01*
X369020Y1408180D01*
X371740Y1403560D01*
X375080Y1399340D01*
X378940Y1395600D01*
X383260Y1392420D01*
X387960Y1389840D01*
X392980Y1387920D01*
X398200Y1386660D01*
G37*
G36*
X1513779Y1386140D02*
G01*
X1519139Y1386320D01*
X1524440Y1387200D01*
X1529560Y1388800D01*
X1534440Y1391060D01*
X1538959Y1393940D01*
X1543060Y1397400D01*
X1546660Y1401399D01*
X1549700Y1405820D01*
X1552120Y1410600D01*
X1553880Y1415680D01*
X1554960Y1420940D01*
X1555300Y1426300D01*
X1554960Y1431660D01*
X1553880Y1436920D01*
X1552120Y1442000D01*
X1549700Y1446780D01*
X1546660Y1451200D01*
X1543060Y1455200D01*
X1538959Y1458660D01*
X1534440Y1461540D01*
X1529560Y1463800D01*
X1524440Y1465400D01*
X1519139Y1466279D01*
X1513779Y1466459D01*
X1508440Y1465940D01*
X1503220Y1464680D01*
X1498200Y1462760D01*
X1493500Y1460180D01*
X1489160Y1457000D01*
X1485320Y1453260D01*
X1481980Y1449040D01*
X1479240Y1444420D01*
X1477160Y1439480D01*
X1475740Y1434300D01*
X1475020Y1428980D01*
X1475020Y1423620D01*
X1475740Y1418300D01*
X1477160Y1413120D01*
X1479240Y1408180D01*
X1481980Y1403560D01*
X1485320Y1399340D01*
X1489160Y1395600D01*
X1493500Y1392420D01*
X1498200Y1389840D01*
X1503220Y1387920D01*
X1508440Y1386660D01*
G37*
G36*
X403540Y1484560D02*
G01*
X408900Y1484740D01*
X414200Y1485620D01*
X419320Y1487220D01*
X424200Y1489480D01*
X428720Y1492360D01*
X432819Y1495840D01*
X436420Y1499820D01*
X439460Y1504240D01*
X441880Y1509040D01*
X443640Y1514100D01*
X444720Y1519360D01*
X445080Y1524720D01*
X444720Y1530080D01*
X443640Y1535340D01*
X441880Y1540420D01*
X439460Y1545200D01*
X436420Y1549640D01*
X432819Y1553620D01*
X428720Y1557080D01*
X424200Y1559980D01*
X419320Y1562240D01*
X414200Y1563820D01*
X408900Y1564720D01*
X403540Y1564900D01*
X398200Y1564360D01*
X392980Y1563120D01*
X387960Y1561180D01*
X383260Y1558600D01*
X378940Y1555420D01*
X375080Y1551680D01*
X371740Y1547480D01*
X369020Y1542860D01*
X366920Y1537900D01*
X365500Y1532740D01*
X364780Y1527400D01*
X364780Y1522040D01*
X365500Y1516720D01*
X366920Y1511540D01*
X369020Y1506600D01*
X371740Y1501980D01*
X375080Y1497760D01*
X378940Y1494040D01*
X383260Y1490840D01*
X387960Y1488260D01*
X392980Y1486339D01*
X398200Y1485100D01*
G37*
G36*
X1513779Y1484560D02*
G01*
X1519139Y1484740D01*
X1524440Y1485620D01*
X1529560Y1487220D01*
X1534440Y1489480D01*
X1538959Y1492360D01*
X1543060Y1495840D01*
X1546660Y1499820D01*
X1549700Y1504240D01*
X1552120Y1509040D01*
X1553880Y1514100D01*
X1554960Y1519360D01*
X1555300Y1524720D01*
X1554960Y1530080D01*
X1553880Y1535340D01*
X1552120Y1540420D01*
X1549700Y1545200D01*
X1546660Y1549640D01*
X1543060Y1553620D01*
X1538959Y1557080D01*
X1534440Y1559980D01*
X1529560Y1562240D01*
X1524440Y1563820D01*
X1519139Y1564720D01*
X1513779Y1564900D01*
X1508440Y1564360D01*
X1503220Y1563120D01*
X1498200Y1561180D01*
X1493500Y1558600D01*
X1489160Y1555420D01*
X1485320Y1551680D01*
X1481980Y1547480D01*
X1479240Y1542860D01*
X1477160Y1537900D01*
X1475740Y1532740D01*
X1475020Y1527400D01*
X1475020Y1522040D01*
X1475740Y1516720D01*
X1477160Y1511540D01*
X1479240Y1506600D01*
X1481980Y1501980D01*
X1485320Y1497760D01*
X1489160Y1494040D01*
X1493500Y1490840D01*
X1498200Y1488260D01*
X1503220Y1486339D01*
X1508440Y1485100D01*
G37*
G36*
X2850000Y1519560D02*
G01*
X2851780Y1520400D01*
X2856560Y1523440D01*
X2860940Y1527060D01*
X2864820Y1531200D01*
X2868159Y1535780D01*
X2870480Y1540000D01*
X2850000Y1540000D01*
G37*
G36*
X2810000Y1519560D02*
G01*
X2810000Y1540000D01*
X2789520Y1540000D01*
X2791840Y1535780D01*
X2795179Y1531200D01*
X2799060Y1527060D01*
X2803440Y1523440D01*
X2808220Y1520400D01*
G37*
G36*
X2789520Y1580000D02*
G01*
X2810000Y1580000D01*
X2810000Y1600440D01*
X2808220Y1599600D01*
X2803440Y1596560D01*
X2799060Y1592940D01*
X2795179Y1588800D01*
X2791840Y1584220D01*
G37*
G36*
X2850000Y1580000D02*
G01*
X2870480Y1580000D01*
X2868159Y1584220D01*
X2864820Y1588800D01*
X2860940Y1592940D01*
X2856560Y1596560D01*
X2851780Y1599600D01*
X2850000Y1600440D01*
G37*
G36*
X403540Y1582980D02*
G01*
X408900Y1583160D01*
X414200Y1584060D01*
X419320Y1585640D01*
X424200Y1587900D01*
X428720Y1590800D01*
X432819Y1594259D01*
X436420Y1598240D01*
X439460Y1602660D01*
X441880Y1607460D01*
X443640Y1612540D01*
X444720Y1617800D01*
X445080Y1623140D01*
X444720Y1628500D01*
X443640Y1633760D01*
X441880Y1638839D01*
X439460Y1643640D01*
X436420Y1648060D01*
X432819Y1652040D01*
X428720Y1655500D01*
X424200Y1658400D01*
X419320Y1660660D01*
X414200Y1662240D01*
X408900Y1663140D01*
X403540Y1663320D01*
X398200Y1662780D01*
X392980Y1661540D01*
X387960Y1659600D01*
X383260Y1657020D01*
X378940Y1653839D01*
X375080Y1650100D01*
X371740Y1645900D01*
X369020Y1641279D01*
X366920Y1636339D01*
X365500Y1631160D01*
X364780Y1625840D01*
X364780Y1620460D01*
X365500Y1615140D01*
X366920Y1609960D01*
X369020Y1605020D01*
X371740Y1600400D01*
X375080Y1596200D01*
X378940Y1592460D01*
X383260Y1589280D01*
X387960Y1586699D01*
X392980Y1584760D01*
X398200Y1583520D01*
G37*
G36*
X1513779Y1582980D02*
G01*
X1519139Y1583160D01*
X1524440Y1584060D01*
X1529560Y1585640D01*
X1534440Y1587900D01*
X1538959Y1590800D01*
X1543060Y1594259D01*
X1546660Y1598240D01*
X1549700Y1602660D01*
X1552120Y1607460D01*
X1553880Y1612540D01*
X1554960Y1617800D01*
X1555300Y1623140D01*
X1554960Y1628500D01*
X1553880Y1633760D01*
X1552120Y1638839D01*
X1549700Y1643640D01*
X1546660Y1648060D01*
X1543060Y1652040D01*
X1538959Y1655500D01*
X1534440Y1658400D01*
X1529560Y1660660D01*
X1524440Y1662240D01*
X1519139Y1663140D01*
X1513779Y1663320D01*
X1508440Y1662780D01*
X1503220Y1661540D01*
X1498200Y1659600D01*
X1493500Y1657020D01*
X1489160Y1653839D01*
X1485320Y1650100D01*
X1481980Y1645900D01*
X1479240Y1641279D01*
X1477160Y1636339D01*
X1475740Y1631160D01*
X1475020Y1625840D01*
X1475020Y1620460D01*
X1475740Y1615140D01*
X1477160Y1609960D01*
X1479240Y1605020D01*
X1481980Y1600400D01*
X1485320Y1596200D01*
X1489160Y1592460D01*
X1493500Y1589280D01*
X1498200Y1586699D01*
X1503220Y1584760D01*
X1508440Y1583520D01*
G37*
G36*
X2095220Y1599800D02*
G01*
X2154780Y1599800D01*
X2157260Y1600080D01*
X2159420Y1600840D01*
X2161340Y1602040D01*
X2162960Y1603660D01*
X2164160Y1605580D01*
X2164920Y1607740D01*
X2165200Y1610220D01*
X2165200Y1669780D01*
X2164920Y1672260D01*
X2164160Y1674420D01*
X2162960Y1676339D01*
X2161340Y1677960D01*
X2159420Y1679160D01*
X2157260Y1679920D01*
X2154780Y1680200D01*
X2149200Y1680200D01*
X2147680Y1680500D01*
X2146380Y1681380D01*
X2145500Y1682660D01*
X2145200Y1684199D01*
X2145200Y1984980D01*
X2145500Y1986500D01*
X2146380Y1987800D01*
X2423200Y2264640D01*
X2424300Y2265420D01*
X2425600Y2265780D01*
X2426960Y2265700D01*
X2428320Y2265360D01*
X2433660Y2264840D01*
X2439020Y2265020D01*
X2444320Y2265900D01*
X2449440Y2267500D01*
X2454320Y2269760D01*
X2458840Y2272640D01*
X2462940Y2276100D01*
X2466540Y2280100D01*
X2469580Y2284520D01*
X2472000Y2289300D01*
X2473760Y2294380D01*
X2474840Y2299640D01*
X2475200Y2305000D01*
X2474840Y2310360D01*
X2473760Y2315620D01*
X2472000Y2320700D01*
X2469580Y2325480D01*
X2466540Y2329900D01*
X2462940Y2333900D01*
X2458840Y2337360D01*
X2454320Y2340240D01*
X2449440Y2342500D01*
X2444320Y2344100D01*
X2439020Y2344980D01*
X2433660Y2345160D01*
X2428320Y2344640D01*
X2423100Y2343380D01*
X2418080Y2341460D01*
X2413380Y2338880D01*
X2409060Y2335700D01*
X2405200Y2331960D01*
X2401860Y2327740D01*
X2399120Y2323120D01*
X2397040Y2318180D01*
X2395620Y2313000D01*
X2394900Y2307680D01*
X2394900Y2302320D01*
X2395700Y2296520D01*
X2395700Y2295300D01*
X2395300Y2294140D01*
X2394580Y2293140D01*
X2127820Y2026399D01*
X2126540Y2025520D01*
X2125000Y2025220D01*
X2123480Y2025520D01*
X2122180Y2026399D01*
X2117500Y2031080D01*
X2116140Y2032320D01*
X2114740Y2033400D01*
X2113240Y2034340D01*
X2111680Y2035160D01*
X2110060Y2035820D01*
X2108380Y2036360D01*
X2106660Y2036740D01*
X2104920Y2036980D01*
X2103060Y2037060D01*
X1552000Y2037060D01*
X1550720Y2037260D01*
X1549580Y2037860D01*
X1548700Y2038779D01*
X1546660Y2041759D01*
X1543060Y2045740D01*
X1538959Y2049199D01*
X1534440Y2052100D01*
X1529560Y2054360D01*
X1524440Y2055940D01*
X1519139Y2056840D01*
X1513779Y2057020D01*
X1508440Y2056480D01*
X1503220Y2055240D01*
X1498200Y2053300D01*
X1493500Y2050720D01*
X1489160Y2047540D01*
X1485320Y2043820D01*
X1481980Y2039600D01*
X1479240Y2034980D01*
X1477160Y2030040D01*
X1475740Y2024860D01*
X1475020Y2019540D01*
X1475020Y2014160D01*
X1475740Y2008839D01*
X1477160Y2003660D01*
X1479240Y1998720D01*
X1481980Y1994100D01*
X1485320Y1989900D01*
X1489160Y1986160D01*
X1493500Y1982980D01*
X1498200Y1980400D01*
X1503220Y1978460D01*
X1508440Y1977220D01*
X1513779Y1976680D01*
X1519139Y1976860D01*
X1524440Y1977760D01*
X1529560Y1979340D01*
X1534440Y1981600D01*
X1538959Y1984500D01*
X1543060Y1987960D01*
X1546660Y1991940D01*
X1548700Y1994920D01*
X1549580Y1995840D01*
X1550720Y1996440D01*
X1552000Y1996660D01*
X2093120Y1996660D01*
X2094660Y1996339D01*
X2095960Y1995480D01*
X2103620Y1987800D01*
X2104500Y1986500D01*
X2104800Y1984980D01*
X2104800Y1684199D01*
X2104500Y1682660D01*
X2103620Y1681380D01*
X2102340Y1680500D01*
X2100800Y1680200D01*
X2095220Y1680200D01*
X2092740Y1679920D01*
X2090580Y1679160D01*
X2088660Y1677960D01*
X2087040Y1676339D01*
X2085840Y1674420D01*
X2085080Y1672260D01*
X2084800Y1669780D01*
X2084800Y1610220D01*
X2085080Y1607740D01*
X2085840Y1605580D01*
X2087040Y1603660D01*
X2088660Y1602040D01*
X2090580Y1600840D01*
X2092740Y1600080D01*
G37*
G36*
X2422320Y1599900D02*
G01*
X2427680Y1599900D01*
X2433000Y1600620D01*
X2438180Y1602040D01*
X2443120Y1604120D01*
X2447740Y1606860D01*
X2451960Y1610200D01*
X2455700Y1614060D01*
X2458880Y1618380D01*
X2461460Y1623080D01*
X2463380Y1628100D01*
X2464640Y1633320D01*
X2465160Y1638660D01*
X2464980Y1644019D01*
X2464100Y1649319D01*
X2462500Y1654440D01*
X2460240Y1659319D01*
X2457360Y1663839D01*
X2453900Y1667940D01*
X2449900Y1671540D01*
X2445480Y1674580D01*
X2440700Y1677000D01*
X2435620Y1678760D01*
X2430360Y1679840D01*
X2425000Y1680200D01*
X2419640Y1679840D01*
X2414380Y1678760D01*
X2409300Y1677000D01*
X2404520Y1674580D01*
X2400100Y1671540D01*
X2396100Y1667940D01*
X2392640Y1663839D01*
X2389760Y1659319D01*
X2387500Y1654440D01*
X2385900Y1649319D01*
X2385020Y1644019D01*
X2384840Y1638660D01*
X2385360Y1633320D01*
X2386620Y1628100D01*
X2388540Y1623080D01*
X2391120Y1618380D01*
X2394300Y1614060D01*
X2398040Y1610200D01*
X2402260Y1606860D01*
X2406880Y1604120D01*
X2411820Y1602040D01*
X2417000Y1600620D01*
G37*
G36*
X2322320Y1599900D02*
G01*
X2327680Y1599900D01*
X2333000Y1600620D01*
X2338180Y1602040D01*
X2343120Y1604120D01*
X2347740Y1606860D01*
X2351960Y1610200D01*
X2355700Y1614060D01*
X2358880Y1618380D01*
X2361460Y1623080D01*
X2363380Y1628100D01*
X2364640Y1633320D01*
X2365160Y1638660D01*
X2364980Y1644019D01*
X2364100Y1649319D01*
X2362860Y1653340D01*
X2362680Y1654760D01*
X2363020Y1656160D01*
X2363840Y1657340D01*
X2634680Y1928180D01*
X2635980Y1929040D01*
X2637500Y1929340D01*
X2639040Y1929040D01*
X2640320Y1928180D01*
X2787300Y1781220D01*
X2788159Y1779940D01*
X2788460Y1778420D01*
X2788180Y1776900D01*
X2787020Y1773959D01*
X2785600Y1768460D01*
X2784900Y1762840D01*
X2784900Y1757160D01*
X2785600Y1751540D01*
X2787020Y1746040D01*
X2789100Y1740760D01*
X2791840Y1735780D01*
X2795179Y1731200D01*
X2799060Y1727060D01*
X2803440Y1723440D01*
X2808220Y1720400D01*
X2813360Y1717980D01*
X2818759Y1716220D01*
X2824340Y1715160D01*
X2830000Y1714800D01*
X2835659Y1715160D01*
X2841240Y1716220D01*
X2846640Y1717980D01*
X2850040Y1719580D01*
X2851580Y1719960D01*
X2853140Y1719700D01*
X2854480Y1718860D01*
X2855400Y1717560D01*
X2855740Y1716020D01*
X2855440Y1714460D01*
X2854560Y1713140D01*
X2845960Y1704540D01*
X2844760Y1703700D01*
X2843340Y1703360D01*
X2835659Y1704840D01*
X2830000Y1705200D01*
X2824340Y1704840D01*
X2818759Y1703779D01*
X2813360Y1702020D01*
X2808220Y1699600D01*
X2803440Y1696560D01*
X2799060Y1692940D01*
X2795179Y1688800D01*
X2791840Y1684220D01*
X2789100Y1679240D01*
X2787020Y1673959D01*
X2785600Y1668460D01*
X2784900Y1662840D01*
X2784900Y1657160D01*
X2785600Y1651540D01*
X2787020Y1646040D01*
X2789100Y1640760D01*
X2791840Y1635780D01*
X2795179Y1631200D01*
X2799060Y1627060D01*
X2803440Y1623440D01*
X2808220Y1620400D01*
X2813360Y1617980D01*
X2818759Y1616220D01*
X2824340Y1615160D01*
X2830000Y1614800D01*
X2835659Y1615160D01*
X2841240Y1616220D01*
X2846640Y1617980D01*
X2851780Y1620400D01*
X2856560Y1623440D01*
X2860940Y1627060D01*
X2864820Y1631200D01*
X2868159Y1635780D01*
X2870899Y1640760D01*
X2872980Y1646040D01*
X2874400Y1651540D01*
X2875100Y1657160D01*
X2875100Y1662840D01*
X2874400Y1668460D01*
X2873460Y1672120D01*
X2873340Y1673480D01*
X2873720Y1674800D01*
X2874500Y1675940D01*
X2989380Y1790820D01*
X2990640Y1792180D01*
X2991700Y1793580D01*
X2992660Y1795060D01*
X2993460Y1796620D01*
X2994140Y1798260D01*
X2994660Y1799940D01*
X2995059Y1801660D01*
X2995280Y1803400D01*
X2995360Y1805240D01*
X2995360Y2264940D01*
X2995659Y2266480D01*
X2996540Y2267780D01*
X3253380Y2524620D01*
X3254440Y2525380D01*
X3255680Y2525760D01*
X3256980Y2525720D01*
X3261000Y2524920D01*
X3266440Y2524560D01*
X3271880Y2524920D01*
X3277240Y2525980D01*
X3282400Y2527740D01*
X3287280Y2530140D01*
X3291820Y2533180D01*
X3295920Y2536780D01*
X3299520Y2540880D01*
X3302540Y2545400D01*
X3304960Y2550300D01*
X3306720Y2555460D01*
X3307780Y2560800D01*
X3308140Y2566240D01*
X3307780Y2571700D01*
X3306720Y2577040D01*
X3304960Y2582200D01*
X3302540Y2587100D01*
X3299520Y2591620D01*
X3295920Y2595720D01*
X3291820Y2599320D01*
X3287280Y2602360D01*
X3282400Y2604760D01*
X3277240Y2606520D01*
X3271880Y2607580D01*
X3266440Y2607940D01*
X3261000Y2607580D01*
X3255659Y2606520D01*
X3250500Y2604760D01*
X3245600Y2602360D01*
X3241060Y2599320D01*
X3236960Y2595720D01*
X3233380Y2591620D01*
X3230340Y2587100D01*
X3227940Y2582200D01*
X3226180Y2577040D01*
X3225120Y2571700D01*
X3224760Y2566240D01*
X3225120Y2560800D01*
X3225920Y2556800D01*
X3225960Y2555500D01*
X3225580Y2554260D01*
X3224820Y2553200D01*
X2960940Y2289320D01*
X2959680Y2287960D01*
X2958620Y2286560D01*
X2957679Y2285060D01*
X2956860Y2283500D01*
X2956180Y2281880D01*
X2955659Y2280200D01*
X2955280Y2278480D01*
X2955040Y2276740D01*
X2954960Y2274880D01*
X2954960Y1815180D01*
X2954660Y1813660D01*
X2953780Y1812360D01*
X2876960Y1735540D01*
X2875620Y1734640D01*
X2874020Y1734360D01*
X2872440Y1734740D01*
X2871139Y1735720D01*
X2870340Y1737120D01*
X2870160Y1738740D01*
X2872980Y1746040D01*
X2874400Y1751540D01*
X2875100Y1757160D01*
X2875100Y1762840D01*
X2874400Y1768460D01*
X2872980Y1773959D01*
X2870899Y1779240D01*
X2868159Y1784220D01*
X2864820Y1788800D01*
X2860940Y1792940D01*
X2856560Y1796560D01*
X2851780Y1799600D01*
X2846640Y1802020D01*
X2841240Y1803779D01*
X2835659Y1804840D01*
X2830000Y1805200D01*
X2824340Y1804840D01*
X2818759Y1803779D01*
X2813260Y1801980D01*
X2811680Y1801600D01*
X2810100Y1801879D01*
X2808740Y1802760D01*
X2651380Y1960120D01*
X2650500Y1961420D01*
X2650200Y1962960D01*
X2650200Y2265300D01*
X2650480Y2266780D01*
X2651300Y2268040D01*
X2652520Y2268920D01*
X2654320Y2269760D01*
X2658840Y2272640D01*
X2662940Y2276100D01*
X2666540Y2280100D01*
X2669580Y2284520D01*
X2672000Y2289300D01*
X2673759Y2294380D01*
X2674840Y2299640D01*
X2675200Y2305000D01*
X2674840Y2310360D01*
X2673759Y2315620D01*
X2672000Y2320700D01*
X2669580Y2325480D01*
X2666540Y2329900D01*
X2662940Y2333900D01*
X2658840Y2337360D01*
X2654320Y2340240D01*
X2649440Y2342500D01*
X2644320Y2344100D01*
X2639020Y2344980D01*
X2633660Y2345160D01*
X2628320Y2344640D01*
X2623100Y2343380D01*
X2618080Y2341460D01*
X2613380Y2338880D01*
X2609060Y2335700D01*
X2605200Y2331960D01*
X2601860Y2327740D01*
X2599120Y2323120D01*
X2597040Y2318180D01*
X2595620Y2313000D01*
X2594900Y2307680D01*
X2594900Y2302320D01*
X2595620Y2297000D01*
X2597040Y2291820D01*
X2599120Y2286880D01*
X2601860Y2282260D01*
X2605200Y2278040D01*
X2609060Y2274300D01*
X2613380Y2271120D01*
X2617720Y2268740D01*
X2618820Y2267840D01*
X2619540Y2266620D01*
X2619800Y2265240D01*
X2619800Y1957960D01*
X2619500Y1956420D01*
X2618620Y1955120D01*
X2342320Y1678820D01*
X2341100Y1677980D01*
X2339660Y1677660D01*
X2338180Y1677880D01*
X2335620Y1678760D01*
X2330360Y1679840D01*
X2325000Y1680200D01*
X2319640Y1679840D01*
X2314380Y1678760D01*
X2309300Y1677000D01*
X2304520Y1674580D01*
X2300100Y1671540D01*
X2296100Y1667940D01*
X2292640Y1663839D01*
X2289760Y1659319D01*
X2287500Y1654440D01*
X2285900Y1649319D01*
X2285020Y1644019D01*
X2284840Y1638660D01*
X2285360Y1633320D01*
X2286620Y1628100D01*
X2288540Y1623080D01*
X2291120Y1618380D01*
X2294300Y1614060D01*
X2298040Y1610200D01*
X2302260Y1606860D01*
X2306880Y1604120D01*
X2311820Y1602040D01*
X2317000Y1600620D01*
G37*
G36*
X2207500Y1603860D02*
G01*
X2207500Y1622500D01*
X2188860Y1622500D01*
X2191120Y1618380D01*
X2194300Y1614060D01*
X2198040Y1610200D01*
X2202260Y1606860D01*
X2206880Y1604120D01*
G37*
G36*
X2242500Y1603860D02*
G01*
X2243120Y1604120D01*
X2247740Y1606860D01*
X2251960Y1610200D01*
X2255700Y1614060D01*
X2258880Y1618380D01*
X2261140Y1622500D01*
X2242500Y1622500D01*
G37*
G36*
X2188920Y1657500D02*
G01*
X2207500Y1657500D01*
X2207500Y1676080D01*
X2204520Y1674580D01*
X2200100Y1671540D01*
X2196100Y1667940D01*
X2192640Y1663839D01*
X2189760Y1659319D01*
G37*
G36*
X2242500Y1657500D02*
G01*
X2261080Y1657500D01*
X2260240Y1659319D01*
X2257360Y1663839D01*
X2253900Y1667940D01*
X2249900Y1671540D01*
X2245480Y1674580D01*
X2242500Y1676080D01*
G37*
G36*
X403540Y1681399D02*
G01*
X408900Y1681579D01*
X414200Y1682480D01*
X419320Y1684079D01*
X424200Y1686339D01*
X428720Y1689220D01*
X432819Y1692680D01*
X436420Y1696660D01*
X439460Y1701100D01*
X441880Y1705880D01*
X443640Y1710960D01*
X444720Y1716220D01*
X445080Y1721579D01*
X444720Y1726940D01*
X443640Y1732200D01*
X441880Y1737260D01*
X439460Y1742060D01*
X436420Y1746480D01*
X432819Y1750460D01*
X428720Y1753940D01*
X424200Y1756819D01*
X419320Y1759079D01*
X414200Y1760680D01*
X408900Y1761560D01*
X403540Y1761740D01*
X398200Y1761200D01*
X392980Y1759960D01*
X387960Y1758040D01*
X383260Y1755460D01*
X378940Y1752260D01*
X375080Y1748540D01*
X371740Y1744319D01*
X369020Y1739700D01*
X366920Y1734760D01*
X365500Y1729580D01*
X364780Y1724259D01*
X364780Y1718899D01*
X365500Y1713580D01*
X366920Y1708400D01*
X369020Y1703440D01*
X371740Y1698820D01*
X375080Y1694620D01*
X378940Y1690880D01*
X383260Y1687700D01*
X387960Y1685120D01*
X392980Y1683180D01*
X398200Y1681940D01*
G37*
G36*
X1513779Y1681399D02*
G01*
X1519139Y1681579D01*
X1524440Y1682480D01*
X1529560Y1684079D01*
X1534440Y1686339D01*
X1538959Y1689220D01*
X1543060Y1692680D01*
X1546660Y1696660D01*
X1549700Y1701100D01*
X1552120Y1705880D01*
X1553880Y1710960D01*
X1554960Y1716220D01*
X1555300Y1721579D01*
X1554960Y1726940D01*
X1553880Y1732200D01*
X1552120Y1737260D01*
X1549700Y1742060D01*
X1546660Y1746480D01*
X1543060Y1750460D01*
X1538959Y1753940D01*
X1534440Y1756819D01*
X1529560Y1759079D01*
X1524440Y1760680D01*
X1519139Y1761560D01*
X1513779Y1761740D01*
X1508440Y1761200D01*
X1503220Y1759960D01*
X1498200Y1758040D01*
X1493500Y1755460D01*
X1489160Y1752260D01*
X1485320Y1748540D01*
X1481980Y1744319D01*
X1479240Y1739700D01*
X1477160Y1734760D01*
X1475740Y1729580D01*
X1475020Y1724259D01*
X1475020Y1718899D01*
X1475740Y1713580D01*
X1477160Y1708400D01*
X1479240Y1703440D01*
X1481980Y1698820D01*
X1485320Y1694620D01*
X1489160Y1690880D01*
X1493500Y1687700D01*
X1498200Y1685120D01*
X1503220Y1683180D01*
X1508440Y1681940D01*
G37*
G36*
X403540Y1779840D02*
G01*
X408900Y1780020D01*
X414200Y1780900D01*
X419320Y1782500D01*
X424200Y1784760D01*
X428720Y1787640D01*
X432819Y1791120D01*
X436420Y1795100D01*
X439460Y1799520D01*
X441880Y1804319D01*
X443640Y1809379D01*
X444720Y1814640D01*
X445080Y1820000D01*
X444720Y1825360D01*
X443640Y1830620D01*
X441880Y1835700D01*
X439460Y1840480D01*
X436420Y1844900D01*
X432819Y1848899D01*
X428720Y1852360D01*
X424200Y1855240D01*
X419320Y1857500D01*
X414200Y1859100D01*
X408900Y1860000D01*
X403540Y1860160D01*
X398200Y1859640D01*
X392980Y1858380D01*
X387960Y1856459D01*
X383260Y1853880D01*
X378940Y1850700D01*
X375080Y1846960D01*
X371740Y1842740D01*
X369020Y1838120D01*
X366920Y1833180D01*
X365500Y1828000D01*
X364780Y1822680D01*
X364780Y1817320D01*
X365500Y1812000D01*
X366920Y1806819D01*
X369020Y1801879D01*
X371740Y1797260D01*
X375080Y1793040D01*
X378940Y1789300D01*
X383260Y1786120D01*
X387960Y1783540D01*
X392980Y1781620D01*
X398200Y1780360D01*
G37*
G36*
X1513779Y1779840D02*
G01*
X1519139Y1780020D01*
X1524440Y1780900D01*
X1529560Y1782500D01*
X1534440Y1784760D01*
X1538959Y1787640D01*
X1543060Y1791120D01*
X1546660Y1795100D01*
X1549700Y1799520D01*
X1552120Y1804319D01*
X1553880Y1809379D01*
X1554960Y1814640D01*
X1555300Y1820000D01*
X1554960Y1825360D01*
X1553880Y1830620D01*
X1552120Y1835700D01*
X1549700Y1840480D01*
X1546660Y1844900D01*
X1543060Y1848899D01*
X1538959Y1852360D01*
X1534440Y1855240D01*
X1529560Y1857500D01*
X1524440Y1859100D01*
X1519139Y1860000D01*
X1513779Y1860160D01*
X1508440Y1859640D01*
X1503220Y1858380D01*
X1498200Y1856459D01*
X1493500Y1853880D01*
X1489160Y1850700D01*
X1485320Y1846960D01*
X1481980Y1842740D01*
X1479240Y1838120D01*
X1477160Y1833180D01*
X1475740Y1828000D01*
X1475020Y1822680D01*
X1475020Y1817320D01*
X1475740Y1812000D01*
X1477160Y1806819D01*
X1479240Y1801879D01*
X1481980Y1797260D01*
X1485320Y1793040D01*
X1489160Y1789300D01*
X1493500Y1786120D01*
X1498200Y1783540D01*
X1503220Y1781620D01*
X1508440Y1780360D01*
G37*
G36*
X2830000Y1814800D02*
G01*
X2835659Y1815160D01*
X2841240Y1816220D01*
X2846640Y1817980D01*
X2851780Y1820400D01*
X2856560Y1823440D01*
X2860940Y1827060D01*
X2864820Y1831200D01*
X2868159Y1835780D01*
X2870899Y1840760D01*
X2872980Y1846040D01*
X2874400Y1851540D01*
X2875100Y1857160D01*
X2875100Y1862840D01*
X2874400Y1868460D01*
X2872980Y1873959D01*
X2870899Y1879240D01*
X2868159Y1884220D01*
X2864820Y1888800D01*
X2860940Y1892940D01*
X2856560Y1896560D01*
X2851780Y1899600D01*
X2846640Y1902020D01*
X2841240Y1903779D01*
X2835659Y1904840D01*
X2830000Y1905200D01*
X2824340Y1904840D01*
X2818759Y1903779D01*
X2813260Y1901980D01*
X2811680Y1901600D01*
X2810100Y1901879D01*
X2808740Y1902760D01*
X2751380Y1960120D01*
X2750500Y1961420D01*
X2750200Y1962960D01*
X2750200Y2265300D01*
X2750480Y2266780D01*
X2751300Y2268040D01*
X2752520Y2268920D01*
X2754320Y2269760D01*
X2758840Y2272640D01*
X2762940Y2276100D01*
X2766540Y2280100D01*
X2769580Y2284520D01*
X2772000Y2289300D01*
X2773759Y2294380D01*
X2774840Y2299640D01*
X2775200Y2305000D01*
X2774840Y2310360D01*
X2773759Y2315620D01*
X2772000Y2320700D01*
X2769580Y2325480D01*
X2766540Y2329900D01*
X2762940Y2333900D01*
X2758840Y2337360D01*
X2754320Y2340240D01*
X2749440Y2342500D01*
X2744320Y2344100D01*
X2739020Y2344980D01*
X2733660Y2345160D01*
X2728320Y2344640D01*
X2723100Y2343380D01*
X2718080Y2341460D01*
X2713380Y2338880D01*
X2709060Y2335700D01*
X2705200Y2331960D01*
X2701860Y2327740D01*
X2699120Y2323120D01*
X2697040Y2318180D01*
X2695620Y2313000D01*
X2694900Y2307680D01*
X2694900Y2302320D01*
X2695620Y2297000D01*
X2697040Y2291820D01*
X2699120Y2286880D01*
X2701860Y2282260D01*
X2705200Y2278040D01*
X2709060Y2274300D01*
X2713380Y2271120D01*
X2717720Y2268740D01*
X2718820Y2267840D01*
X2719540Y2266620D01*
X2719800Y2265240D01*
X2719800Y1955200D01*
X2720120Y1952040D01*
X2720980Y1949199D01*
X2722380Y1946560D01*
X2724400Y1944120D01*
X2787300Y1881220D01*
X2788159Y1879940D01*
X2788460Y1878420D01*
X2788180Y1876900D01*
X2787020Y1873959D01*
X2785600Y1868460D01*
X2784900Y1862840D01*
X2784900Y1857160D01*
X2785600Y1851540D01*
X2787020Y1846040D01*
X2789100Y1840760D01*
X2791840Y1835780D01*
X2795179Y1831200D01*
X2799060Y1827060D01*
X2803440Y1823440D01*
X2808220Y1820400D01*
X2813360Y1817980D01*
X2818759Y1816220D01*
X2824340Y1815160D01*
G37*
G36*
X403540Y1878260D02*
G01*
X408900Y1878440D01*
X414200Y1879319D01*
X419320Y1880920D01*
X424200Y1883180D01*
X428720Y1886060D01*
X432819Y1889540D01*
X436420Y1893520D01*
X439460Y1897940D01*
X441880Y1902740D01*
X443640Y1907800D01*
X444720Y1913060D01*
X445080Y1918420D01*
X444720Y1923779D01*
X443640Y1929040D01*
X441880Y1934120D01*
X439460Y1938899D01*
X436420Y1943340D01*
X432819Y1947320D01*
X428720Y1950780D01*
X424200Y1953680D01*
X419320Y1955940D01*
X414200Y1957520D01*
X408900Y1958420D01*
X403540Y1958600D01*
X398200Y1958060D01*
X392980Y1956819D01*
X387960Y1954880D01*
X383260Y1952300D01*
X378940Y1949120D01*
X375080Y1945380D01*
X371740Y1941180D01*
X369020Y1936560D01*
X366920Y1931600D01*
X365500Y1926440D01*
X364780Y1921120D01*
X364780Y1915740D01*
X365500Y1910420D01*
X366920Y1905240D01*
X369020Y1900300D01*
X371740Y1895680D01*
X375080Y1891459D01*
X378940Y1887740D01*
X383260Y1884540D01*
X387960Y1881960D01*
X392980Y1880040D01*
X398200Y1878800D01*
G37*
G36*
X1497620Y1882280D02*
G01*
X1497620Y1900920D01*
X1478980Y1900920D01*
X1479240Y1900300D01*
X1481980Y1895680D01*
X1485320Y1891459D01*
X1489160Y1887740D01*
X1493500Y1884540D01*
G37*
G36*
X1532620Y1882340D02*
G01*
X1534440Y1883180D01*
X1538959Y1886060D01*
X1543060Y1889540D01*
X1546660Y1893520D01*
X1549700Y1897940D01*
X1551200Y1900920D01*
X1532620Y1900920D01*
G37*
G36*
X1532620Y1935920D02*
G01*
X1551200Y1935920D01*
X1549700Y1938899D01*
X1546660Y1943340D01*
X1543060Y1947320D01*
X1538959Y1950780D01*
X1534440Y1953680D01*
X1532620Y1954520D01*
G37*
G36*
X1478980Y1935920D02*
G01*
X1497620Y1935920D01*
X1497620Y1954560D01*
X1493500Y1952300D01*
X1489160Y1949120D01*
X1485320Y1945380D01*
X1481980Y1941180D01*
X1479240Y1936560D01*
G37*
G36*
X403540Y1976680D02*
G01*
X408900Y1976860D01*
X414200Y1977760D01*
X419320Y1979340D01*
X424200Y1981600D01*
X428720Y1984500D01*
X432819Y1987960D01*
X436420Y1991940D01*
X439460Y1996360D01*
X441880Y2001160D01*
X443640Y2006240D01*
X444720Y2011500D01*
X445080Y2016860D01*
X444720Y2022200D01*
X443640Y2027460D01*
X441880Y2032540D01*
X439460Y2037340D01*
X436420Y2041759D01*
X432819Y2045740D01*
X428720Y2049199D01*
X424200Y2052100D01*
X419320Y2054360D01*
X414200Y2055940D01*
X408900Y2056840D01*
X403540Y2057020D01*
X398200Y2056480D01*
X392980Y2055240D01*
X387960Y2053300D01*
X383260Y2050720D01*
X378940Y2047540D01*
X375080Y2043820D01*
X371740Y2039600D01*
X369020Y2034980D01*
X366920Y2030040D01*
X365500Y2024860D01*
X364780Y2019540D01*
X364780Y2014160D01*
X365500Y2008839D01*
X366920Y2003660D01*
X369020Y1998720D01*
X371740Y1994100D01*
X375080Y1989900D01*
X378940Y1986160D01*
X383260Y1982980D01*
X387960Y1980400D01*
X392980Y1978460D01*
X398200Y1977220D01*
G37*
G36*
X403540Y2075100D02*
G01*
X408900Y2075280D01*
X414200Y2076180D01*
X419320Y2077780D01*
X424200Y2080040D01*
X428720Y2082920D01*
X432819Y2086380D01*
X436420Y2090360D01*
X439460Y2094800D01*
X441880Y2099580D01*
X443640Y2104660D01*
X444720Y2109920D01*
X445080Y2115280D01*
X444720Y2120640D01*
X443640Y2125900D01*
X441880Y2130960D01*
X439460Y2135760D01*
X436420Y2140180D01*
X432819Y2144160D01*
X428720Y2147640D01*
X424200Y2150520D01*
X419320Y2152780D01*
X414200Y2154380D01*
X408900Y2155260D01*
X403540Y2155440D01*
X398200Y2154900D01*
X392980Y2153660D01*
X387960Y2151740D01*
X383260Y2149160D01*
X378940Y2145960D01*
X375080Y2142240D01*
X371740Y2138020D01*
X369020Y2133400D01*
X366920Y2128460D01*
X365500Y2123280D01*
X364780Y2117960D01*
X364780Y2112600D01*
X365500Y2107280D01*
X366920Y2102100D01*
X369020Y2097140D01*
X371740Y2092520D01*
X375080Y2088320D01*
X378940Y2084580D01*
X383260Y2081399D01*
X387960Y2078820D01*
X392980Y2076879D01*
X398200Y2075640D01*
G37*
G36*
X1513779Y2075100D02*
G01*
X1519139Y2075280D01*
X1524440Y2076180D01*
X1529560Y2077780D01*
X1534440Y2080040D01*
X1538959Y2082920D01*
X1543060Y2086380D01*
X1546660Y2090360D01*
X1549700Y2094800D01*
X1552120Y2099580D01*
X1553880Y2104660D01*
X1554960Y2109920D01*
X1555300Y2115280D01*
X1554960Y2120640D01*
X1553880Y2125900D01*
X1552120Y2130960D01*
X1549700Y2135760D01*
X1546660Y2140180D01*
X1543060Y2144160D01*
X1538959Y2147640D01*
X1534440Y2150520D01*
X1529560Y2152780D01*
X1524440Y2154380D01*
X1519139Y2155260D01*
X1513779Y2155440D01*
X1508440Y2154900D01*
X1503220Y2153660D01*
X1498200Y2151740D01*
X1493500Y2149160D01*
X1489160Y2145960D01*
X1485320Y2142240D01*
X1481980Y2138020D01*
X1479240Y2133400D01*
X1477160Y2128460D01*
X1475740Y2123280D01*
X1475020Y2117960D01*
X1475020Y2112600D01*
X1475740Y2107280D01*
X1477160Y2102100D01*
X1479240Y2097140D01*
X1481980Y2092520D01*
X1485320Y2088320D01*
X1489160Y2084580D01*
X1493500Y2081399D01*
X1498200Y2078820D01*
X1503220Y2076879D01*
X1508440Y2075640D01*
G37*
G36*
X403540Y2173540D02*
G01*
X408900Y2173720D01*
X414200Y2174600D01*
X419320Y2176200D01*
X424200Y2178460D01*
X428720Y2181340D01*
X432819Y2184820D01*
X436420Y2188800D01*
X439460Y2193220D01*
X441880Y2198020D01*
X443640Y2203080D01*
X444720Y2208340D01*
X445080Y2213700D01*
X444720Y2219060D01*
X443640Y2224320D01*
X441880Y2229400D01*
X439460Y2234180D01*
X436420Y2238620D01*
X432819Y2242600D01*
X428720Y2246060D01*
X424200Y2248940D01*
X419320Y2251200D01*
X414200Y2252800D01*
X408900Y2253700D01*
X403540Y2253880D01*
X398200Y2253340D01*
X392980Y2252080D01*
X387960Y2250160D01*
X383260Y2247580D01*
X378940Y2244400D01*
X375080Y2240660D01*
X371740Y2236440D01*
X369020Y2231820D01*
X366920Y2226880D01*
X365500Y2221700D01*
X364780Y2216380D01*
X364780Y2211020D01*
X365500Y2205700D01*
X366920Y2200520D01*
X369020Y2195580D01*
X371740Y2190960D01*
X375080Y2186740D01*
X378940Y2183000D01*
X383260Y2179820D01*
X387960Y2177240D01*
X392980Y2175320D01*
X398200Y2174080D01*
G37*
G36*
X1513779Y2173540D02*
G01*
X1519139Y2173720D01*
X1524440Y2174600D01*
X1529560Y2176200D01*
X1534440Y2178460D01*
X1538959Y2181340D01*
X1543060Y2184820D01*
X1546660Y2188800D01*
X1549700Y2193220D01*
X1552120Y2198020D01*
X1553880Y2203080D01*
X1554960Y2208340D01*
X1555300Y2213700D01*
X1554960Y2219060D01*
X1553880Y2224320D01*
X1552120Y2229400D01*
X1549700Y2234180D01*
X1546660Y2238620D01*
X1543060Y2242600D01*
X1538959Y2246060D01*
X1534440Y2248940D01*
X1529560Y2251200D01*
X1524440Y2252800D01*
X1519139Y2253700D01*
X1513779Y2253880D01*
X1508440Y2253340D01*
X1503220Y2252080D01*
X1498200Y2250160D01*
X1493500Y2247580D01*
X1489160Y2244400D01*
X1485320Y2240660D01*
X1481980Y2236440D01*
X1479240Y2231820D01*
X1477160Y2226880D01*
X1475740Y2221700D01*
X1475020Y2216380D01*
X1475020Y2211020D01*
X1475740Y2205700D01*
X1477160Y2200520D01*
X1479240Y2195580D01*
X1481980Y2190960D01*
X1485320Y2186740D01*
X1489160Y2183000D01*
X1493500Y2179820D01*
X1498200Y2177240D01*
X1503220Y2175320D01*
X1508440Y2174080D01*
G37*
G36*
X2328660Y2264840D02*
G01*
X2334020Y2265020D01*
X2339320Y2265900D01*
X2344440Y2267500D01*
X2349320Y2269760D01*
X2353840Y2272640D01*
X2357940Y2276100D01*
X2361540Y2280100D01*
X2364580Y2284520D01*
X2367000Y2289300D01*
X2368760Y2294380D01*
X2369840Y2299640D01*
X2370200Y2305000D01*
X2369840Y2310360D01*
X2368760Y2315620D01*
X2367000Y2320700D01*
X2364580Y2325480D01*
X2361540Y2329900D01*
X2357940Y2333900D01*
X2353840Y2337360D01*
X2349320Y2340240D01*
X2344440Y2342500D01*
X2339320Y2344100D01*
X2334020Y2344980D01*
X2328660Y2345160D01*
X2323320Y2344640D01*
X2318100Y2343380D01*
X2313080Y2341460D01*
X2308380Y2338880D01*
X2304060Y2335700D01*
X2300200Y2331960D01*
X2296860Y2327740D01*
X2294120Y2323120D01*
X2292040Y2318180D01*
X2290620Y2313000D01*
X2289900Y2307680D01*
X2289900Y2302320D01*
X2290620Y2297000D01*
X2292040Y2291820D01*
X2294120Y2286880D01*
X2296860Y2282260D01*
X2300200Y2278040D01*
X2304060Y2274300D01*
X2308380Y2271120D01*
X2313080Y2268540D01*
X2318100Y2266620D01*
X2323320Y2265360D01*
G37*
G36*
X2517500Y2268860D02*
G01*
X2517500Y2287500D01*
X2498860Y2287500D01*
X2499120Y2286880D01*
X2501860Y2282260D01*
X2505200Y2278040D01*
X2509060Y2274300D01*
X2513380Y2271120D01*
G37*
G36*
X2552500Y2268920D02*
G01*
X2554320Y2269760D01*
X2558840Y2272640D01*
X2562940Y2276100D01*
X2566540Y2280100D01*
X2569580Y2284520D01*
X2571080Y2287500D01*
X2552500Y2287500D01*
G37*
G36*
X403540Y2271960D02*
G01*
X408900Y2272140D01*
X414200Y2273040D01*
X419320Y2274620D01*
X424200Y2276880D01*
X428720Y2279780D01*
X432819Y2283240D01*
X436420Y2287220D01*
X439460Y2291640D01*
X441880Y2296440D01*
X443640Y2301500D01*
X444720Y2306780D01*
X445080Y2312120D01*
X444720Y2317480D01*
X443640Y2322740D01*
X441880Y2327820D01*
X439460Y2332600D01*
X436420Y2337040D01*
X432819Y2341020D01*
X428720Y2344480D01*
X424200Y2347380D01*
X419320Y2349640D01*
X414200Y2351220D01*
X408900Y2352120D01*
X403540Y2352300D01*
X398200Y2351760D01*
X392980Y2350520D01*
X387960Y2348580D01*
X383260Y2346000D01*
X378940Y2342820D01*
X375080Y2339080D01*
X371740Y2334880D01*
X369020Y2330260D01*
X366920Y2325320D01*
X365500Y2320140D01*
X364780Y2314820D01*
X364780Y2309440D01*
X365500Y2304120D01*
X366920Y2298940D01*
X369020Y2294000D01*
X371740Y2289380D01*
X375080Y2285160D01*
X378940Y2281440D01*
X383260Y2278260D01*
X387960Y2275680D01*
X392980Y2273740D01*
X398200Y2272500D01*
G37*
G36*
X1513779Y2271960D02*
G01*
X1519139Y2272140D01*
X1524440Y2273040D01*
X1529560Y2274620D01*
X1534440Y2276880D01*
X1538959Y2279780D01*
X1543060Y2283240D01*
X1546660Y2287220D01*
X1549700Y2291640D01*
X1552120Y2296440D01*
X1553880Y2301500D01*
X1554960Y2306780D01*
X1555300Y2312120D01*
X1554960Y2317480D01*
X1553880Y2322740D01*
X1552120Y2327820D01*
X1549700Y2332600D01*
X1546660Y2337040D01*
X1543060Y2341020D01*
X1538959Y2344480D01*
X1534440Y2347380D01*
X1529560Y2349640D01*
X1524440Y2351220D01*
X1519139Y2352120D01*
X1513779Y2352300D01*
X1508440Y2351760D01*
X1503220Y2350520D01*
X1498200Y2348580D01*
X1493500Y2346000D01*
X1489160Y2342820D01*
X1485320Y2339080D01*
X1481980Y2334880D01*
X1479240Y2330260D01*
X1477160Y2325320D01*
X1475740Y2320140D01*
X1475020Y2314820D01*
X1475020Y2309440D01*
X1475740Y2304120D01*
X1477160Y2298940D01*
X1479240Y2294000D01*
X1481980Y2289380D01*
X1485320Y2285160D01*
X1489160Y2281440D01*
X1493500Y2278260D01*
X1498200Y2275680D01*
X1503220Y2273740D01*
X1508440Y2272500D01*
G37*
G36*
X2552500Y2322500D02*
G01*
X2571080Y2322500D01*
X2569580Y2325480D01*
X2566540Y2329900D01*
X2562940Y2333900D01*
X2558840Y2337360D01*
X2554320Y2340240D01*
X2552500Y2341080D01*
G37*
G36*
X2498860Y2322500D02*
G01*
X2517500Y2322500D01*
X2517500Y2341140D01*
X2513380Y2338880D01*
X2509060Y2335700D01*
X2505200Y2331960D01*
X2501860Y2327740D01*
X2499120Y2323120D01*
G37*
G36*
X403540Y2370380D02*
G01*
X408900Y2370560D01*
X414200Y2371460D01*
X419320Y2373040D01*
X424200Y2375300D01*
X428720Y2378200D01*
X432819Y2381660D01*
X436420Y2385640D01*
X439460Y2390060D01*
X441880Y2394860D01*
X443640Y2399940D01*
X444720Y2405200D01*
X445080Y2410560D01*
X444720Y2415900D01*
X443640Y2421180D01*
X441880Y2426240D01*
X439460Y2431040D01*
X436420Y2435460D01*
X432819Y2439440D01*
X428720Y2442900D01*
X424200Y2445800D01*
X419320Y2448060D01*
X414200Y2449640D01*
X408900Y2450540D01*
X403540Y2450720D01*
X398200Y2450180D01*
X392980Y2448940D01*
X387960Y2447000D01*
X383260Y2444420D01*
X378940Y2441240D01*
X375080Y2437520D01*
X371740Y2433300D01*
X369020Y2428680D01*
X366920Y2423740D01*
X365500Y2418560D01*
X364780Y2413240D01*
X364780Y2407860D01*
X365500Y2402540D01*
X366920Y2397360D01*
X369020Y2392420D01*
X371740Y2387800D01*
X375080Y2383600D01*
X378940Y2379860D01*
X383260Y2376680D01*
X387960Y2374100D01*
X392980Y2372160D01*
X398200Y2370920D01*
G37*
G36*
X1513779Y2370380D02*
G01*
X1519139Y2370560D01*
X1524440Y2371460D01*
X1529560Y2373040D01*
X1534440Y2375300D01*
X1538959Y2378200D01*
X1543060Y2381660D01*
X1546660Y2385640D01*
X1549700Y2390060D01*
X1552120Y2394860D01*
X1553880Y2399940D01*
X1554960Y2405200D01*
X1555300Y2410560D01*
X1554960Y2415900D01*
X1553880Y2421180D01*
X1552120Y2426240D01*
X1549700Y2431040D01*
X1546660Y2435460D01*
X1543060Y2439440D01*
X1538959Y2442900D01*
X1534440Y2445800D01*
X1529560Y2448060D01*
X1524440Y2449640D01*
X1519139Y2450540D01*
X1513779Y2450720D01*
X1508440Y2450180D01*
X1503220Y2448940D01*
X1498200Y2447000D01*
X1493500Y2444420D01*
X1489160Y2441240D01*
X1485320Y2437520D01*
X1481980Y2433300D01*
X1479240Y2428680D01*
X1477160Y2423740D01*
X1475740Y2418560D01*
X1475020Y2413240D01*
X1475020Y2407860D01*
X1475740Y2402540D01*
X1477160Y2397360D01*
X1479240Y2392420D01*
X1481980Y2387800D01*
X1485320Y2383600D01*
X1489160Y2379860D01*
X1493500Y2376680D01*
X1498200Y2374100D01*
X1503220Y2372160D01*
X1508440Y2370920D01*
G37*
G36*
X3266440Y2424560D02*
G01*
X3271880Y2424920D01*
X3277240Y2425980D01*
X3282400Y2427740D01*
X3287280Y2430140D01*
X3291820Y2433180D01*
X3295920Y2436780D01*
X3299520Y2440880D01*
X3302540Y2445400D01*
X3304960Y2450300D01*
X3306720Y2455460D01*
X3307780Y2460800D01*
X3308140Y2466240D01*
X3307780Y2471700D01*
X3306720Y2477040D01*
X3304960Y2482200D01*
X3302540Y2487100D01*
X3299520Y2491620D01*
X3295920Y2495720D01*
X3291820Y2499320D01*
X3287280Y2502360D01*
X3282400Y2504760D01*
X3277240Y2506520D01*
X3271880Y2507580D01*
X3266440Y2507940D01*
X3261000Y2507580D01*
X3255659Y2506520D01*
X3250500Y2504760D01*
X3245600Y2502360D01*
X3241060Y2499320D01*
X3236960Y2495720D01*
X3233380Y2491620D01*
X3230340Y2487100D01*
X3227940Y2482200D01*
X3226180Y2477040D01*
X3225120Y2471700D01*
X3224760Y2466240D01*
X3225120Y2460800D01*
X3226180Y2455460D01*
X3227940Y2450300D01*
X3230340Y2445400D01*
X3233380Y2440880D01*
X3236960Y2436780D01*
X3241060Y2433180D01*
X3245600Y2430140D01*
X3250500Y2427740D01*
X3255659Y2425980D01*
X3261000Y2424920D01*
G37*
G36*
X403540Y2468800D02*
G01*
X408900Y2468980D01*
X414200Y2469880D01*
X419320Y2471480D01*
X424200Y2473740D01*
X428720Y2476620D01*
X432819Y2480080D01*
X436420Y2484060D01*
X439460Y2488500D01*
X441880Y2493280D01*
X443640Y2498360D01*
X444720Y2503620D01*
X445080Y2508980D01*
X444720Y2514340D01*
X443640Y2519600D01*
X441880Y2524660D01*
X439460Y2529460D01*
X436420Y2533880D01*
X432819Y2537860D01*
X428720Y2541340D01*
X424200Y2544220D01*
X419320Y2546480D01*
X414200Y2548080D01*
X408900Y2548960D01*
X403540Y2549140D01*
X398200Y2548600D01*
X392980Y2547360D01*
X387960Y2545440D01*
X383260Y2542860D01*
X378940Y2539660D01*
X375080Y2535940D01*
X371740Y2531720D01*
X369020Y2527100D01*
X366920Y2522160D01*
X365500Y2516980D01*
X364780Y2511660D01*
X364780Y2506300D01*
X365500Y2500980D01*
X366920Y2495800D01*
X369020Y2490860D01*
X371740Y2486240D01*
X375080Y2482020D01*
X378940Y2478280D01*
X383260Y2475100D01*
X387960Y2472520D01*
X392980Y2470600D01*
X398200Y2469340D01*
G37*
G36*
X1513779Y2468800D02*
G01*
X1519139Y2468980D01*
X1524440Y2469880D01*
X1529560Y2471480D01*
X1534440Y2473740D01*
X1538959Y2476620D01*
X1543060Y2480080D01*
X1546660Y2484060D01*
X1549700Y2488500D01*
X1552120Y2493280D01*
X1553880Y2498360D01*
X1554960Y2503620D01*
X1555300Y2508980D01*
X1554960Y2514340D01*
X1553880Y2519600D01*
X1552120Y2524660D01*
X1549700Y2529460D01*
X1546660Y2533880D01*
X1543060Y2537860D01*
X1538959Y2541340D01*
X1534440Y2544220D01*
X1529560Y2546480D01*
X1524440Y2548080D01*
X1519139Y2548960D01*
X1513779Y2549140D01*
X1508440Y2548600D01*
X1503220Y2547360D01*
X1498200Y2545440D01*
X1493500Y2542860D01*
X1489160Y2539660D01*
X1485320Y2535940D01*
X1481980Y2531720D01*
X1479240Y2527100D01*
X1477160Y2522160D01*
X1475740Y2516980D01*
X1475020Y2511660D01*
X1475020Y2506300D01*
X1475740Y2500980D01*
X1477160Y2495800D01*
X1479240Y2490860D01*
X1481980Y2486240D01*
X1485320Y2482020D01*
X1489160Y2478280D01*
X1493500Y2475100D01*
X1498200Y2472520D01*
X1503220Y2470600D01*
X1508440Y2469340D01*
G37*
G36*
X3248200Y2628860D02*
G01*
X3248200Y2648000D01*
X3229060Y2648000D01*
X3230340Y2645400D01*
X3233380Y2640880D01*
X3236960Y2636780D01*
X3241060Y2633180D01*
X3245600Y2630140D01*
G37*
G36*
X3284700Y2628860D02*
G01*
X3287280Y2630140D01*
X3291820Y2633180D01*
X3295920Y2636780D01*
X3299520Y2640880D01*
X3302540Y2645400D01*
X3303820Y2648000D01*
X3284700Y2648000D01*
G37*
G36*
X3229060Y2684500D02*
G01*
X3248200Y2684500D01*
X3248200Y2703639D01*
X3245600Y2702360D01*
X3241060Y2699320D01*
X3236960Y2695720D01*
X3233380Y2691620D01*
X3230340Y2687100D01*
G37*
G36*
X3284700Y2684500D02*
G01*
X3303820Y2684500D01*
X3302540Y2687100D01*
X3299520Y2691620D01*
X3295920Y2695720D01*
X3291820Y2699320D01*
X3287280Y2702360D01*
X3284700Y2703639D01*
G37*

%LPD*%
D10*
X2125001Y1995001D02*
G01*
X2125001Y1640001D01*
X1515120Y2016851D02*
G01*
X2103150Y2016851D01*
X2125001Y1995001D01*
D11*
X2637501Y1952501D02*
G01*
X2830001Y1760001D01*
X2635001Y2305001D02*
G01*
X2635001Y1955001D01*
X2637501Y1952501D01*
X2637501Y1952501D02*
G01*
X2325001Y1640001D01*
X2735001Y2305001D02*
G01*
X2735001Y1955001D01*
X2830001Y1860001D01*
X2225001Y1640001D02*
G01*
X2183921Y1598921D01*
X1834630Y1598921D01*
X1515120Y1918431D01*
X2779821Y1509821D02*
G01*
X2355181Y1509821D01*
X2225001Y1640001D01*
X3266441Y2666251D02*
G01*
X2896251Y2666251D01*
X2535001Y2305001D01*
X2779821Y1509821D02*
G01*
X2830001Y1560001D01*
X2830001Y1105001D02*
G01*
X2779821Y1155180D01*
X2779821Y1509821D01*
X2535001Y2305001D02*
G01*
X2535001Y1950001D01*
X2225001Y1640001D01*
D10*
X2435001Y2305001D02*
G01*
X2125001Y1995001D01*
X3266441Y2566251D02*
G01*
X2975160Y2274971D01*
X2975160Y1805160D01*
X2830001Y1660001D01*
D12*
G01*
X2125000Y1640000D03*
D13*
G01*
X2225000Y1640000D03*
G01*
X2325000Y1640000D03*
G01*
X2425000Y1640000D03*
D14*
G01*
X3266450Y2666250D03*
G01*
X3266450Y2566250D03*
G01*
X3266450Y2466250D03*
D13*
G01*
X404879Y2508980D03*
G01*
X404879Y2410560D03*
G01*
X404879Y2312130D03*
G01*
X404879Y2213710D03*
G01*
X404879Y2115279D03*
G01*
X404879Y2016849D03*
G01*
X404879Y1918429D03*
G01*
X404879Y1820000D03*
G01*
X404879Y1721579D03*
G01*
X404879Y1623150D03*
G01*
X404879Y1524729D03*
G01*
X404879Y1426300D03*
G01*
X404879Y1327880D03*
G01*
X404879Y1229450D03*
G01*
X404879Y1131030D03*
G01*
X1515119Y2508980D03*
G01*
X1515119Y2410560D03*
G01*
X1515119Y2312130D03*
G01*
X1515119Y2213710D03*
G01*
X1515119Y2115279D03*
G01*
X1515119Y2016849D03*
G01*
X1515119Y1918429D03*
G01*
X1515119Y1820000D03*
G01*
X1515119Y1721579D03*
G01*
X1515119Y1623150D03*
G01*
X1515119Y1524729D03*
G01*
X1515119Y1426300D03*
G01*
X1515119Y1327880D03*
G01*
X1515119Y1229450D03*
G01*
X1515119Y1131030D03*
D15*
G01*
X2830000Y1560000D03*
G01*
X2830000Y1660000D03*
G01*
X2830000Y1760000D03*
G01*
X2830000Y1860000D03*
G01*
X2830000Y1005000D03*
G01*
X2830000Y1105000D03*
G01*
X2830000Y1205000D03*
G01*
X2830000Y1305000D03*
D13*
G01*
X2330000Y2305000D03*
G01*
X2435000Y2305000D03*
G01*
X2535000Y2305000D03*
G01*
X2635000Y2305000D03*
G01*
X2735000Y2305000D03*
M02*
