G04 Layer: TopSilkscreenLayer*
G04 EasyEDA v6.5.22, 2023-01-16 17:42:31*
G04 f8123aca958c4c3ea5a118542eafadee,9c419fbbf7cf4e6293d4911e9c662303,10*
G04 Gerber Generator version 0.2*
G04 Scale: 100 percent, Rotated: No, Reflected: No *
G04 Dimensions in inches *
G04 leading zeros omitted , absolute positions ,3 integer and 6 decimal *
%FSLAX36Y36*%
%MOIN*%

%ADD10C,0.0039*%
%ADD11C,0.0080*%
%ADD12C,0.0060*%
%ADD13C,0.0100*%
%ADD14C,0.0080*%
%ADD15C,0.0115*%

%LPD*%
G36*
X3342559Y1956840D02*
G01*
X3340880Y1956420D01*
X3338480Y1955540D01*
X3331100Y1952240D01*
X3326540Y1950080D01*
X3322980Y1948220D01*
X3320400Y1946639D01*
X3318720Y1945280D01*
X3318227Y1944560D01*
X3327400Y1944560D01*
X3327580Y1945520D01*
X3328120Y1946300D01*
X3328900Y1946840D01*
X3329860Y1947020D01*
X3330820Y1946840D01*
X3331600Y1946300D01*
X3332140Y1945520D01*
X3332320Y1944560D01*
X3332140Y1943600D01*
X3331600Y1942820D01*
X3330820Y1942300D01*
X3329860Y1942100D01*
X3328900Y1942300D01*
X3328120Y1942820D01*
X3327580Y1943600D01*
X3327400Y1944560D01*
X3318227Y1944560D01*
X3317900Y1944079D01*
X3317860Y1942980D01*
X3318580Y1941920D01*
X3320000Y1940860D01*
X3320960Y1940380D01*
X3321740Y1940160D01*
X3322260Y1940220D01*
X3322460Y1940600D01*
X3322820Y1940920D01*
X3323840Y1940840D01*
X3325360Y1940460D01*
X3327300Y1939800D01*
X3331880Y1937880D01*
X3336640Y1935540D01*
X3340600Y1933220D01*
X3341960Y1932200D01*
X3342760Y1931339D01*
X3343480Y1930760D01*
X3344060Y1931279D01*
X3344460Y1932820D01*
X3344620Y1935240D01*
X3344440Y1938380D01*
X3343800Y1940200D01*
X3342600Y1940840D01*
X3338900Y1940000D01*
X3337840Y1940500D01*
X3337480Y1942060D01*
X3337720Y1944840D01*
X3338300Y1947080D01*
X3339240Y1948820D01*
X3340380Y1949880D01*
X3341620Y1950120D01*
X3342799Y1950220D01*
X3343759Y1951000D01*
X3344420Y1952300D01*
X3344660Y1954000D01*
X3344580Y1955360D01*
X3344300Y1956279D01*
X3343660Y1956780D01*
G37*
G36*
X3194120Y1928640D02*
G01*
X3193399Y1928560D01*
X3192840Y1928340D01*
X3192420Y1927980D01*
X3192120Y1927440D01*
X3191920Y1926780D01*
X3191760Y1925060D01*
X3191840Y1919040D01*
X3192140Y1916980D01*
X3192740Y1915240D01*
X3193759Y1913740D01*
X3195299Y1912340D01*
X3197460Y1910920D01*
X3200360Y1909379D01*
X3207580Y1905940D01*
X3212620Y1903340D01*
X3214180Y1902280D01*
X3215140Y1901320D01*
X3215440Y1900420D01*
X3215120Y1899520D01*
X3214180Y1898580D01*
X3212600Y1897560D01*
X3210380Y1896420D01*
X3200240Y1891840D01*
X3197320Y1890380D01*
X3195140Y1889019D01*
X3193639Y1887660D01*
X3192660Y1886140D01*
X3192080Y1884340D01*
X3191840Y1882120D01*
X3191780Y1879379D01*
X3191880Y1875960D01*
X3192180Y1873180D01*
X3192600Y1871279D01*
X3193120Y1870600D01*
X3193780Y1870800D01*
X3197100Y1872360D01*
X3202559Y1875160D01*
X3209480Y1878839D01*
X3232100Y1891240D01*
X3261540Y1875620D01*
X3266500Y1873160D01*
X3268360Y1872380D01*
X3269840Y1871860D01*
X3270980Y1871620D01*
X3271840Y1871680D01*
X3272440Y1872000D01*
X3272799Y1872580D01*
X3273000Y1873440D01*
X3272980Y1875940D01*
X3271920Y1888860D01*
X3219220Y1917020D01*
X3205680Y1924079D01*
X3201019Y1926339D01*
X3197540Y1927800D01*
X3196180Y1928260D01*
G37*
G36*
X3319600Y1927120D02*
G01*
X3318100Y1926540D01*
X3317520Y1923899D01*
X3317960Y1922280D01*
X3319160Y1920360D01*
X3320920Y1918400D01*
X3323080Y1916639D01*
X3328620Y1912760D01*
X3323080Y1912640D01*
X3320899Y1912520D01*
X3319200Y1912280D01*
X3317919Y1911940D01*
X3317060Y1911519D01*
X3316580Y1911040D01*
X3316480Y1910520D01*
X3316740Y1909960D01*
X3317320Y1909379D01*
X3318200Y1908800D01*
X3319360Y1908260D01*
X3320779Y1907740D01*
X3322460Y1907280D01*
X3324340Y1906900D01*
X3326420Y1906600D01*
X3328680Y1906420D01*
X3331080Y1906339D01*
X3334820Y1906380D01*
X3337840Y1906519D01*
X3340200Y1906759D01*
X3341980Y1907140D01*
X3343240Y1907680D01*
X3344060Y1908400D01*
X3344520Y1909300D01*
X3344640Y1910440D01*
X3344360Y1912260D01*
X3343399Y1913280D01*
X3341680Y1913560D01*
X3339100Y1913140D01*
X3333560Y1911780D01*
X3339520Y1918300D01*
X3341740Y1920920D01*
X3343380Y1923280D01*
X3344260Y1925080D01*
X3344240Y1926080D01*
X3343399Y1926180D01*
X3342040Y1925520D01*
X3340340Y1924199D01*
X3336420Y1920320D01*
X3334440Y1918860D01*
X3332559Y1917980D01*
X3330760Y1917680D01*
X3329060Y1917960D01*
X3327420Y1918839D01*
X3325860Y1920320D01*
X3321780Y1925720D01*
G37*
G36*
X3338440Y1897240D02*
G01*
X3336180Y1896500D01*
X3333759Y1894740D01*
X3331220Y1891960D01*
X3329040Y1889420D01*
X3327000Y1887320D01*
X3325320Y1885900D01*
X3324220Y1885380D01*
X3322700Y1886480D01*
X3322540Y1889019D01*
X3323540Y1891840D01*
X3325539Y1893760D01*
X3326360Y1894259D01*
X3326280Y1894580D01*
X3325380Y1894680D01*
X3323720Y1894560D01*
X3321500Y1893959D01*
X3319820Y1892880D01*
X3318700Y1891440D01*
X3318159Y1889740D01*
X3318220Y1887940D01*
X3318880Y1886140D01*
X3320179Y1884500D01*
X3322120Y1883100D01*
X3324780Y1882040D01*
X3326980Y1882220D01*
X3329160Y1883800D01*
X3333920Y1889560D01*
X3336019Y1891260D01*
X3337919Y1892000D01*
X3339460Y1891699D01*
X3340760Y1890660D01*
X3341200Y1889520D01*
X3340760Y1888140D01*
X3339480Y1886339D01*
X3337919Y1883580D01*
X3338000Y1881540D01*
X3339460Y1880720D01*
X3342020Y1881579D01*
X3343340Y1882920D01*
X3344180Y1884820D01*
X3344580Y1887120D01*
X3344560Y1889580D01*
X3344120Y1892020D01*
X3343300Y1894199D01*
X3342100Y1895920D01*
X3340560Y1896980D01*
G37*
G36*
X3319080Y1875020D02*
G01*
X3318300Y1874640D01*
X3317660Y1872300D01*
X3318500Y1869300D01*
X3320160Y1866980D01*
X3322040Y1866639D01*
X3323420Y1866980D01*
X3325620Y1866940D01*
X3328340Y1866579D01*
X3331300Y1865880D01*
X3338480Y1863860D01*
X3329240Y1862020D01*
X3326540Y1861360D01*
X3324320Y1860600D01*
X3322580Y1859760D01*
X3321320Y1858839D01*
X3320560Y1857880D01*
X3320280Y1856900D01*
X3320480Y1855920D01*
X3321180Y1854960D01*
X3322360Y1854060D01*
X3324040Y1853240D01*
X3326200Y1852500D01*
X3331120Y1851380D01*
X3332820Y1850800D01*
X3334020Y1850180D01*
X3334720Y1849540D01*
X3334940Y1848880D01*
X3334680Y1848240D01*
X3333980Y1847660D01*
X3332860Y1847120D01*
X3331300Y1846660D01*
X3329360Y1846300D01*
X3327020Y1846060D01*
X3324320Y1845980D01*
X3321340Y1845720D01*
X3319220Y1844960D01*
X3317960Y1843740D01*
X3317520Y1842020D01*
X3317780Y1840600D01*
X3318420Y1839640D01*
X3319400Y1839220D01*
X3320620Y1839420D01*
X3322640Y1840160D01*
X3337080Y1844500D01*
X3339400Y1845380D01*
X3341200Y1846260D01*
X3342480Y1847140D01*
X3343279Y1848040D01*
X3343560Y1848940D01*
X3343340Y1849860D01*
X3342600Y1850760D01*
X3341360Y1851639D01*
X3339620Y1852540D01*
X3337380Y1853420D01*
X3334620Y1854280D01*
X3326160Y1856680D01*
X3335460Y1859139D01*
X3338000Y1859900D01*
X3340040Y1860680D01*
X3341620Y1861500D01*
X3342740Y1862340D01*
X3343360Y1863200D01*
X3343519Y1864060D01*
X3343220Y1864940D01*
X3342440Y1865820D01*
X3341180Y1866720D01*
X3339460Y1867600D01*
X3337260Y1868480D01*
X3331060Y1870460D01*
X3327679Y1871699D01*
X3324840Y1872920D01*
X3321540Y1874620D01*
X3320220Y1875000D01*
G37*
G36*
X3248840Y1866140D02*
G01*
X3220020Y1865100D01*
X3212080Y1864660D01*
X3209000Y1864379D01*
X3206420Y1864040D01*
X3204280Y1863620D01*
X3202500Y1863120D01*
X3201000Y1862500D01*
X3199720Y1861759D01*
X3198580Y1860880D01*
X3196480Y1858600D01*
X3195280Y1856920D01*
X3194260Y1855040D01*
X3193399Y1853020D01*
X3192740Y1850900D01*
X3192260Y1848680D01*
X3191980Y1846420D01*
X3191880Y1844139D01*
X3191960Y1841860D01*
X3192260Y1839620D01*
X3192740Y1837440D01*
X3193440Y1835380D01*
X3195320Y1831320D01*
X3195640Y1829820D01*
X3195320Y1828959D01*
X3194320Y1828680D01*
X3193340Y1828080D01*
X3192520Y1826480D01*
X3191980Y1824100D01*
X3191780Y1821200D01*
X3191780Y1813720D01*
X3247260Y1815120D01*
X3247260Y1829900D01*
X3229600Y1830620D01*
X3225120Y1830880D01*
X3221200Y1831240D01*
X3217799Y1831720D01*
X3214880Y1832340D01*
X3212480Y1833100D01*
X3210520Y1834000D01*
X3209040Y1835080D01*
X3207980Y1836320D01*
X3207340Y1837760D01*
X3207080Y1839379D01*
X3207220Y1841200D01*
X3207740Y1843240D01*
X3208340Y1844700D01*
X3209200Y1845860D01*
X3210480Y1846759D01*
X3212340Y1847460D01*
X3214900Y1847980D01*
X3218300Y1848380D01*
X3228279Y1848920D01*
X3247260Y1849640D01*
G37*
G36*
X3342919Y1834560D02*
G01*
X3341360Y1834240D01*
X3339100Y1833440D01*
X3331880Y1830380D01*
X3328759Y1828940D01*
X3326000Y1827520D01*
X3323600Y1826140D01*
X3321600Y1824820D01*
X3320000Y1823560D01*
X3318692Y1822240D01*
X3324920Y1822240D01*
X3325220Y1822740D01*
X3326019Y1823340D01*
X3327180Y1824000D01*
X3328620Y1824640D01*
X3330059Y1825000D01*
X3331240Y1824940D01*
X3332040Y1824480D01*
X3332320Y1823660D01*
X3332040Y1822740D01*
X3331240Y1821980D01*
X3330059Y1821459D01*
X3328620Y1821279D01*
X3327180Y1821360D01*
X3326019Y1821560D01*
X3325220Y1821860D01*
X3324920Y1822240D01*
X3318692Y1822240D01*
X3318100Y1821399D01*
X3317840Y1820520D01*
X3318039Y1819800D01*
X3318759Y1819259D01*
X3319980Y1818920D01*
X3321740Y1818820D01*
X3324240Y1818440D01*
X3327679Y1817440D01*
X3331580Y1815960D01*
X3335500Y1814139D01*
X3340720Y1811579D01*
X3343440Y1810720D01*
X3344480Y1811579D01*
X3344660Y1814139D01*
X3344420Y1815900D01*
X3343759Y1817260D01*
X3342799Y1818060D01*
X3340380Y1818420D01*
X3339240Y1819500D01*
X3338300Y1821240D01*
X3337720Y1823480D01*
X3337480Y1826240D01*
X3337840Y1827820D01*
X3338900Y1828300D01*
X3342520Y1827460D01*
X3343720Y1827860D01*
X3344420Y1829079D01*
X3344660Y1831160D01*
X3344620Y1832700D01*
X3344400Y1833779D01*
X3343880Y1834400D01*
G37*
G36*
X3192760Y1804019D02*
G01*
X3192320Y1803700D01*
X3191940Y1802760D01*
X3191660Y1801300D01*
X3191320Y1797020D01*
X3191259Y1791380D01*
X3191440Y1784900D01*
X3191840Y1778140D01*
X3192420Y1771579D01*
X3193159Y1765780D01*
X3194020Y1761279D01*
X3194480Y1759660D01*
X3194980Y1758560D01*
X3195480Y1758060D01*
X3197960Y1757360D01*
X3200140Y1757240D01*
X3202040Y1757700D01*
X3203639Y1758740D01*
X3204900Y1760320D01*
X3205820Y1762420D01*
X3206380Y1765040D01*
X3206580Y1768180D01*
X3206580Y1771720D01*
X3206800Y1774220D01*
X3207080Y1775080D01*
X3207500Y1775700D01*
X3208100Y1776040D01*
X3208940Y1776120D01*
X3210020Y1775940D01*
X3211380Y1775480D01*
X3213080Y1774760D01*
X3217559Y1772500D01*
X3231160Y1765040D01*
X3237760Y1761519D01*
X3243020Y1758860D01*
X3246259Y1757360D01*
X3246940Y1757160D01*
X3247260Y1757640D01*
X3247540Y1759019D01*
X3248039Y1764040D01*
X3248360Y1771500D01*
X3248480Y1780600D01*
X3248480Y1804019D01*
X3238940Y1803959D01*
X3237200Y1803760D01*
X3235880Y1803280D01*
X3234920Y1802400D01*
X3234260Y1801060D01*
X3233800Y1799139D01*
X3233480Y1796500D01*
X3232460Y1782140D01*
X3209200Y1795280D01*
X3196640Y1802140D01*
X3193360Y1803800D01*
G37*
G36*
X3341300Y1804019D02*
G01*
X3339880Y1803620D01*
X3339060Y1802440D01*
X3338840Y1800420D01*
X3339180Y1797520D01*
X3340419Y1791040D01*
X3328020Y1799440D01*
X3325600Y1801000D01*
X3323580Y1802180D01*
X3321940Y1802980D01*
X3320620Y1803420D01*
X3319580Y1803480D01*
X3318800Y1803140D01*
X3318260Y1802400D01*
X3317880Y1801260D01*
X3317660Y1799720D01*
X3317520Y1795380D01*
X3317740Y1791600D01*
X3318399Y1788899D01*
X3319480Y1787300D01*
X3321000Y1786759D01*
X3322400Y1787080D01*
X3323240Y1788020D01*
X3323500Y1789560D01*
X3323180Y1791680D01*
X3322740Y1793700D01*
X3322700Y1795140D01*
X3323039Y1796040D01*
X3323820Y1796360D01*
X3325059Y1796120D01*
X3326820Y1795340D01*
X3329100Y1794000D01*
X3334860Y1790080D01*
X3339260Y1787200D01*
X3340860Y1786339D01*
X3342100Y1785860D01*
X3343039Y1785780D01*
X3343720Y1786100D01*
X3344160Y1786840D01*
X3344440Y1787980D01*
X3344580Y1789560D01*
X3344660Y1794000D01*
X3344440Y1798440D01*
X3343820Y1801560D01*
X3342780Y1803400D01*
G37*
G36*
X3338700Y1778200D02*
G01*
X3337220Y1777940D01*
X3335680Y1777340D01*
X3334120Y1776380D01*
X3332540Y1775040D01*
X3328920Y1770900D01*
X3326940Y1768880D01*
X3325299Y1767520D01*
X3324220Y1767020D01*
X3322700Y1768140D01*
X3322540Y1770660D01*
X3323540Y1773480D01*
X3325539Y1775420D01*
X3326360Y1775900D01*
X3326280Y1776220D01*
X3325380Y1776320D01*
X3323720Y1776200D01*
X3321600Y1775660D01*
X3319960Y1774660D01*
X3318840Y1773300D01*
X3318220Y1771660D01*
X3318159Y1769860D01*
X3318660Y1768000D01*
X3319740Y1766140D01*
X3321420Y1764400D01*
X3323759Y1762860D01*
X3325800Y1762840D01*
X3328120Y1764580D01*
X3334320Y1771780D01*
X3336580Y1773520D01*
X3338440Y1773680D01*
X3340240Y1772420D01*
X3341660Y1770780D01*
X3342060Y1769460D01*
X3341440Y1768300D01*
X3338500Y1766060D01*
X3337700Y1765020D01*
X3337440Y1764019D01*
X3337780Y1763220D01*
X3338900Y1762480D01*
X3340059Y1762340D01*
X3341200Y1762740D01*
X3342280Y1763620D01*
X3343240Y1764920D01*
X3343980Y1766560D01*
X3344480Y1768480D01*
X3344660Y1770620D01*
X3344500Y1772660D01*
X3344060Y1774379D01*
X3343360Y1775800D01*
X3342460Y1776900D01*
X3341360Y1777660D01*
X3340100Y1778100D01*
G37*
G36*
X3343460Y1756080D02*
G01*
X3341980Y1755320D01*
X3337400Y1751699D01*
X3335160Y1750800D01*
X3332860Y1750940D01*
X3330240Y1752040D01*
X3327940Y1752860D01*
X3325680Y1752940D01*
X3323540Y1752340D01*
X3321600Y1751120D01*
X3319940Y1749379D01*
X3318660Y1747160D01*
X3317820Y1744540D01*
X3317765Y1744000D01*
X3322919Y1744000D01*
X3322940Y1745020D01*
X3323460Y1746060D01*
X3324240Y1746900D01*
X3325179Y1747460D01*
X3326160Y1747680D01*
X3327140Y1747460D01*
X3328080Y1746900D01*
X3328860Y1746060D01*
X3329380Y1745020D01*
X3329400Y1744000D01*
X3328800Y1743160D01*
X3327679Y1742580D01*
X3326160Y1742380D01*
X3324640Y1742580D01*
X3323519Y1743160D01*
X3322919Y1744000D01*
X3317765Y1744000D01*
X3317520Y1741579D01*
X3317600Y1739960D01*
X3317919Y1738680D01*
X3318580Y1737740D01*
X3319700Y1737060D01*
X3321400Y1736620D01*
X3323780Y1736360D01*
X3331080Y1736200D01*
X3334820Y1736240D01*
X3337840Y1736380D01*
X3340200Y1736620D01*
X3341980Y1737020D01*
X3343240Y1737540D01*
X3344060Y1738260D01*
X3344520Y1739160D01*
X3344640Y1740300D01*
X3344340Y1742100D01*
X3343380Y1743160D01*
X3341660Y1743520D01*
X3339100Y1743180D01*
X3333560Y1742000D01*
X3339100Y1746900D01*
X3341259Y1749040D01*
X3343020Y1751260D01*
X3344220Y1753280D01*
X3344660Y1754860D01*
X3344360Y1755920D01*
G37*
G36*
X3202960Y1752640D02*
G01*
X3197380Y1746140D01*
X3195920Y1744259D01*
X3194680Y1742240D01*
X3193639Y1740100D01*
X3192820Y1737860D01*
X3192180Y1735560D01*
X3191760Y1733180D01*
X3191540Y1730760D01*
X3191520Y1728300D01*
X3191700Y1725860D01*
X3192080Y1723420D01*
X3192660Y1721020D01*
X3193440Y1718680D01*
X3194420Y1716399D01*
X3195600Y1714220D01*
X3196980Y1712140D01*
X3198560Y1710200D01*
X3199980Y1708720D01*
X3201440Y1707360D01*
X3202940Y1706120D01*
X3204480Y1705040D01*
X3206040Y1704079D01*
X3207640Y1703240D01*
X3209260Y1702520D01*
X3210880Y1701920D01*
X3214200Y1701060D01*
X3215860Y1700800D01*
X3219200Y1700600D01*
X3220860Y1700660D01*
X3224140Y1701060D01*
X3227340Y1701840D01*
X3230440Y1702980D01*
X3231940Y1703660D01*
X3234820Y1705280D01*
X3237520Y1707180D01*
X3239980Y1709340D01*
X3242200Y1711759D01*
X3244120Y1714400D01*
X3244980Y1715800D01*
X3245740Y1717240D01*
X3246980Y1720260D01*
X3247480Y1721819D01*
X3247860Y1723420D01*
X3248140Y1725040D01*
X3248320Y1726720D01*
X3248380Y1728400D01*
X3248320Y1730120D01*
X3248140Y1731840D01*
X3247840Y1733600D01*
X3247400Y1735360D01*
X3246840Y1737140D01*
X3246139Y1738940D01*
X3245299Y1740740D01*
X3244300Y1742540D01*
X3242260Y1745720D01*
X3240380Y1748100D01*
X3238580Y1749700D01*
X3236880Y1750520D01*
X3235220Y1750560D01*
X3233580Y1749840D01*
X3231940Y1748380D01*
X3230280Y1746140D01*
X3228399Y1743000D01*
X3227740Y1740840D01*
X3228320Y1739139D01*
X3231460Y1736020D01*
X3232480Y1734560D01*
X3233180Y1733020D01*
X3233560Y1731399D01*
X3233639Y1729780D01*
X3233440Y1728140D01*
X3232980Y1726540D01*
X3232260Y1724980D01*
X3231300Y1723500D01*
X3230120Y1722120D01*
X3228720Y1720900D01*
X3227140Y1719820D01*
X3225400Y1718940D01*
X3223480Y1718280D01*
X3221420Y1717860D01*
X3219220Y1717720D01*
X3216460Y1717900D01*
X3214020Y1718440D01*
X3211900Y1719319D01*
X3210100Y1720500D01*
X3208660Y1721940D01*
X3207600Y1723620D01*
X3206900Y1725540D01*
X3206580Y1727620D01*
X3206680Y1729880D01*
X3207200Y1732280D01*
X3208140Y1734760D01*
X3210860Y1739960D01*
X3211040Y1742200D01*
X3210040Y1744520D01*
X3207740Y1747380D01*
G37*
G36*
X3079580Y1737300D02*
G01*
X3077880Y1737000D01*
X3076320Y1736140D01*
X3075040Y1734660D01*
X3074160Y1732620D01*
X3073660Y1731240D01*
X3072900Y1730120D01*
X3071760Y1729220D01*
X3070140Y1728540D01*
X3067900Y1728020D01*
X3064960Y1727620D01*
X3061200Y1727320D01*
X3040140Y1726339D01*
X3038580Y1710320D01*
X3065419Y1710300D01*
X3072720Y1710180D01*
X3077780Y1709820D01*
X3079620Y1709520D01*
X3081060Y1709139D01*
X3082180Y1708640D01*
X3083020Y1708040D01*
X3083660Y1707300D01*
X3084140Y1706420D01*
X3084520Y1705380D01*
X3085419Y1703480D01*
X3086720Y1701900D01*
X3088260Y1700840D01*
X3089840Y1700460D01*
X3091400Y1700840D01*
X3092880Y1701900D01*
X3094100Y1703480D01*
X3094900Y1705380D01*
X3095380Y1706800D01*
X3096060Y1707920D01*
X3097040Y1708779D01*
X3098399Y1709420D01*
X3100260Y1709860D01*
X3102679Y1710140D01*
X3105760Y1710280D01*
X3123039Y1710320D01*
X3121500Y1726339D01*
X3098780Y1727320D01*
X3094720Y1727600D01*
X3091580Y1728000D01*
X3089200Y1728520D01*
X3087480Y1729199D01*
X3086300Y1730080D01*
X3085520Y1731220D01*
X3084140Y1734660D01*
X3082860Y1736120D01*
X3081280Y1737000D01*
G37*
G36*
X3343580Y1728400D02*
G01*
X3341540Y1728000D01*
X3334700Y1724800D01*
X3327480Y1721660D01*
X3322120Y1719520D01*
X3320400Y1718680D01*
X3319140Y1717880D01*
X3318380Y1717080D01*
X3318269Y1716740D01*
X3324920Y1716740D01*
X3325220Y1717120D01*
X3326019Y1717440D01*
X3327180Y1717640D01*
X3328620Y1717720D01*
X3330059Y1717520D01*
X3331240Y1717020D01*
X3332040Y1716260D01*
X3332320Y1715320D01*
X3332040Y1714520D01*
X3331240Y1714060D01*
X3330059Y1714000D01*
X3328620Y1714360D01*
X3327180Y1714980D01*
X3326019Y1715640D01*
X3325220Y1716260D01*
X3324920Y1716740D01*
X3318269Y1716740D01*
X3318120Y1716279D01*
X3318360Y1715440D01*
X3319120Y1714560D01*
X3320419Y1713620D01*
X3322260Y1712580D01*
X3324640Y1711440D01*
X3331139Y1708779D01*
X3338680Y1705980D01*
X3341060Y1705240D01*
X3342720Y1704960D01*
X3343780Y1705100D01*
X3344360Y1705680D01*
X3344600Y1706680D01*
X3344660Y1708100D01*
X3344420Y1709980D01*
X3343720Y1711140D01*
X3342580Y1711540D01*
X3339220Y1710900D01*
X3338080Y1711600D01*
X3337460Y1713420D01*
X3337260Y1716480D01*
X3337460Y1719540D01*
X3338080Y1721360D01*
X3339220Y1722060D01*
X3342580Y1721420D01*
X3343740Y1721840D01*
X3344420Y1723040D01*
X3344660Y1725000D01*
X3344460Y1727440D01*
G37*
G36*
X3318800Y1700080D02*
G01*
X3317940Y1699960D01*
X3317580Y1699420D01*
X3317520Y1697080D01*
X3318279Y1695540D01*
X3320400Y1694079D01*
X3323720Y1692800D01*
X3328020Y1691759D01*
X3338480Y1689840D01*
X3329240Y1687320D01*
X3325659Y1686100D01*
X3322720Y1684640D01*
X3320720Y1683140D01*
X3320000Y1681780D01*
X3320720Y1680420D01*
X3322720Y1678940D01*
X3325659Y1677540D01*
X3329240Y1676360D01*
X3338480Y1673980D01*
X3328020Y1672100D01*
X3323560Y1671080D01*
X3320260Y1669780D01*
X3318220Y1668300D01*
X3317520Y1666639D01*
X3317780Y1665360D01*
X3318440Y1664500D01*
X3319420Y1664160D01*
X3320620Y1664379D01*
X3322640Y1665140D01*
X3329880Y1667500D01*
X3337000Y1669700D01*
X3339300Y1670600D01*
X3341100Y1671480D01*
X3342400Y1672360D01*
X3343180Y1673220D01*
X3343460Y1674079D01*
X3343260Y1674940D01*
X3342540Y1675800D01*
X3341300Y1676660D01*
X3339580Y1677500D01*
X3337360Y1678360D01*
X3326160Y1681600D01*
X3338159Y1684860D01*
X3340320Y1685640D01*
X3341920Y1686420D01*
X3342960Y1687240D01*
X3343460Y1688080D01*
X3343399Y1688959D01*
X3342780Y1689880D01*
X3341580Y1690880D01*
X3339800Y1691960D01*
X3337460Y1693140D01*
X3334520Y1694420D01*
X3326220Y1697620D01*
X3320320Y1699740D01*
G37*
G36*
X3191780Y1698360D02*
G01*
X3191840Y1686840D01*
X3192120Y1684620D01*
X3192720Y1682780D01*
X3193759Y1681160D01*
X3195360Y1679640D01*
X3197640Y1678060D01*
X3200720Y1676320D01*
X3217640Y1667720D01*
X3200800Y1659420D01*
X3197760Y1657740D01*
X3195480Y1656220D01*
X3193860Y1654760D01*
X3192780Y1653220D01*
X3192160Y1651480D01*
X3191860Y1649420D01*
X3191780Y1646940D01*
X3191960Y1643779D01*
X3192440Y1641200D01*
X3193159Y1639460D01*
X3194060Y1638820D01*
X3194880Y1639019D01*
X3198480Y1640500D01*
X3204060Y1643200D01*
X3210960Y1646740D01*
X3233080Y1658640D01*
X3253960Y1646620D01*
X3260120Y1643220D01*
X3264800Y1640900D01*
X3266660Y1640140D01*
X3268220Y1639660D01*
X3269520Y1639440D01*
X3270560Y1639460D01*
X3271400Y1639760D01*
X3272040Y1640300D01*
X3272500Y1641120D01*
X3272820Y1642180D01*
X3273020Y1643480D01*
X3273180Y1648680D01*
X3273159Y1650260D01*
X3273000Y1651660D01*
X3272840Y1652320D01*
X3272240Y1653620D01*
X3271200Y1654920D01*
X3269620Y1656360D01*
X3267340Y1658000D01*
X3264300Y1659900D01*
X3260340Y1662200D01*
X3249220Y1668200D01*
G37*
G36*
X3066019Y1693060D02*
G01*
X3066019Y1685660D01*
X3066220Y1682780D01*
X3066780Y1680440D01*
X3067580Y1678839D01*
X3068580Y1678260D01*
X3069560Y1677980D01*
X3069900Y1677120D01*
X3069560Y1675620D01*
X3067520Y1671000D01*
X3066780Y1668160D01*
X3066638Y1667160D01*
X3080820Y1667160D01*
X3081060Y1669420D01*
X3081680Y1671699D01*
X3082620Y1673740D01*
X3083780Y1675300D01*
X3085299Y1676560D01*
X3086980Y1677540D01*
X3088820Y1678220D01*
X3090740Y1678640D01*
X3092720Y1678800D01*
X3094740Y1678700D01*
X3096740Y1678380D01*
X3098680Y1677860D01*
X3100560Y1677100D01*
X3102280Y1676160D01*
X3103860Y1675040D01*
X3105220Y1673760D01*
X3106360Y1672320D01*
X3107220Y1670720D01*
X3107760Y1669000D01*
X3107940Y1667160D01*
X3107720Y1664600D01*
X3107080Y1662360D01*
X3106000Y1660460D01*
X3104500Y1658880D01*
X3102580Y1657660D01*
X3100260Y1656780D01*
X3097520Y1656240D01*
X3094380Y1656080D01*
X3091240Y1656240D01*
X3088500Y1656780D01*
X3086180Y1657660D01*
X3084260Y1658880D01*
X3082760Y1660460D01*
X3081680Y1662360D01*
X3081040Y1664600D01*
X3080820Y1667160D01*
X3066638Y1667160D01*
X3066340Y1665060D01*
X3066200Y1661860D01*
X3066360Y1658680D01*
X3066840Y1655640D01*
X3067600Y1652880D01*
X3068680Y1650520D01*
X3069740Y1648940D01*
X3070960Y1647480D01*
X3072360Y1646140D01*
X3073920Y1644920D01*
X3075600Y1643820D01*
X3077420Y1642820D01*
X3079340Y1641960D01*
X3081340Y1641220D01*
X3083440Y1640580D01*
X3085620Y1640080D01*
X3087840Y1639680D01*
X3090100Y1639420D01*
X3092380Y1639259D01*
X3094680Y1639220D01*
X3096980Y1639300D01*
X3099260Y1639500D01*
X3101500Y1639820D01*
X3103700Y1640240D01*
X3105860Y1640800D01*
X3107919Y1641459D01*
X3109900Y1642240D01*
X3111800Y1643160D01*
X3113560Y1644160D01*
X3115200Y1645300D01*
X3116700Y1646560D01*
X3118039Y1647920D01*
X3119220Y1649400D01*
X3120200Y1651000D01*
X3121259Y1653440D01*
X3122020Y1656200D01*
X3122480Y1659139D01*
X3122640Y1662200D01*
X3122500Y1665240D01*
X3122060Y1668180D01*
X3121300Y1670920D01*
X3119340Y1675460D01*
X3119020Y1677200D01*
X3119340Y1678540D01*
X3121220Y1680560D01*
X3122000Y1682340D01*
X3122540Y1684580D01*
X3122740Y1687040D01*
X3122740Y1693060D01*
G37*
G36*
X3342860Y1644480D02*
G01*
X3341300Y1644139D01*
X3339020Y1643340D01*
X3331840Y1640280D01*
X3328780Y1638860D01*
X3326040Y1637460D01*
X3323680Y1636100D01*
X3321660Y1634800D01*
X3320059Y1633600D01*
X3319014Y1632640D01*
X3324920Y1632640D01*
X3325220Y1633040D01*
X3326019Y1633560D01*
X3327180Y1634160D01*
X3328620Y1634780D01*
X3330140Y1635100D01*
X3331320Y1634840D01*
X3332060Y1634000D01*
X3332320Y1632640D01*
X3332060Y1631300D01*
X3331320Y1630460D01*
X3330140Y1630200D01*
X3328620Y1630520D01*
X3327180Y1631120D01*
X3325220Y1632260D01*
X3324920Y1632640D01*
X3319014Y1632640D01*
X3318060Y1631480D01*
X3317720Y1630620D01*
X3317840Y1629920D01*
X3318440Y1629400D01*
X3319520Y1629060D01*
X3321139Y1628940D01*
X3323480Y1628580D01*
X3326840Y1627560D01*
X3330800Y1626060D01*
X3334920Y1624240D01*
X3340440Y1621660D01*
X3342160Y1621000D01*
X3343340Y1620780D01*
X3344080Y1621000D01*
X3344460Y1621620D01*
X3344620Y1622680D01*
X3344660Y1624160D01*
X3344420Y1626100D01*
X3343740Y1627280D01*
X3342580Y1627700D01*
X3339220Y1627060D01*
X3338080Y1627760D01*
X3337460Y1629600D01*
X3337260Y1632640D01*
X3337460Y1635700D01*
X3338080Y1637520D01*
X3339220Y1638240D01*
X3342580Y1637580D01*
X3343740Y1638020D01*
X3344420Y1639220D01*
X3344660Y1641220D01*
X3344600Y1642700D01*
X3344380Y1643740D01*
X3343840Y1644340D01*
G37*
G36*
X3200400Y1633880D02*
G01*
X3197320Y1633620D01*
X3194840Y1632900D01*
X3193000Y1631780D01*
X3191840Y1630320D01*
X3191360Y1628580D01*
X3191620Y1626639D01*
X3192640Y1624520D01*
X3195539Y1621000D01*
X3195899Y1619880D01*
X3195539Y1618899D01*
X3194460Y1617980D01*
X3193420Y1616759D01*
X3192559Y1614660D01*
X3191980Y1611980D01*
X3191780Y1609000D01*
X3191780Y1601660D01*
X3247260Y1603060D01*
X3248800Y1619079D01*
X3227760Y1619139D01*
X3224120Y1619300D01*
X3220940Y1619580D01*
X3218180Y1620000D01*
X3215840Y1620580D01*
X3213900Y1621279D01*
X3212320Y1622180D01*
X3211080Y1623240D01*
X3210140Y1624480D01*
X3209520Y1625920D01*
X3209160Y1627580D01*
X3209040Y1629440D01*
X3208620Y1631579D01*
X3207220Y1632940D01*
X3204560Y1633660D01*
G37*
G36*
X3051200Y1628620D02*
G01*
X3048620Y1628560D01*
X3046920Y1628120D01*
X3045440Y1627320D01*
X3044180Y1626220D01*
X3043140Y1624880D01*
X3042360Y1623340D01*
X3041840Y1621660D01*
X3041580Y1619920D01*
X3041600Y1618140D01*
X3041940Y1616399D01*
X3042580Y1614740D01*
X3043519Y1613220D01*
X3044820Y1611879D01*
X3046760Y1610700D01*
X3048900Y1610100D01*
X3051100Y1610020D01*
X3053279Y1610480D01*
X3055320Y1611380D01*
X3057080Y1612740D01*
X3058460Y1614480D01*
X3059340Y1616579D01*
X3059680Y1619120D01*
X3059420Y1621500D01*
X3058600Y1623680D01*
X3057300Y1625540D01*
X3055600Y1627040D01*
X3053540Y1628080D01*
G37*
G36*
X3067260Y1627720D02*
G01*
X3065720Y1611680D01*
X3123039Y1611680D01*
X3121500Y1627720D01*
G37*
G36*
X3344220Y1614060D02*
G01*
X3342960Y1613940D01*
X3340899Y1612680D01*
X3338080Y1610300D01*
X3331500Y1604199D01*
X3324020Y1611140D01*
X3322180Y1612580D01*
X3320680Y1613500D01*
X3319500Y1613920D01*
X3318620Y1613820D01*
X3318000Y1613200D01*
X3317640Y1612080D01*
X3317520Y1610460D01*
X3317799Y1609019D01*
X3318519Y1607840D01*
X3319600Y1607040D01*
X3322520Y1606440D01*
X3324320Y1605540D01*
X3326120Y1604240D01*
X3327700Y1602640D01*
X3329320Y1600500D01*
X3329440Y1599480D01*
X3327840Y1599440D01*
X3324320Y1600240D01*
X3321080Y1600860D01*
X3318980Y1600760D01*
X3317860Y1599880D01*
X3317520Y1598180D01*
X3317720Y1595480D01*
X3317900Y1594640D01*
X3318140Y1594280D01*
X3320659Y1593800D01*
X3323420Y1593460D01*
X3326300Y1593300D01*
X3329240Y1593280D01*
X3332160Y1593380D01*
X3334960Y1593620D01*
X3337580Y1593980D01*
X3339900Y1594440D01*
X3341860Y1595000D01*
X3343360Y1595640D01*
X3344320Y1596360D01*
X3344660Y1597160D01*
X3344300Y1598980D01*
X3343140Y1600020D01*
X3341060Y1600380D01*
X3337880Y1600080D01*
X3331100Y1599040D01*
X3337880Y1604340D01*
X3340500Y1606660D01*
X3342660Y1609060D01*
X3344120Y1611279D01*
X3344660Y1613000D01*
G37*
G36*
X3110920Y1601579D02*
G01*
X3109720Y1601240D01*
X3108880Y1600480D01*
X3108360Y1599160D01*
X3108080Y1597200D01*
X3107960Y1594480D01*
X3107919Y1584680D01*
X3107820Y1583240D01*
X3107600Y1582120D01*
X3107240Y1581300D01*
X3106680Y1580780D01*
X3105940Y1580560D01*
X3104920Y1580660D01*
X3103639Y1581040D01*
X3102020Y1581720D01*
X3097700Y1583980D01*
X3079200Y1594400D01*
X3074920Y1596600D01*
X3073180Y1597360D01*
X3071680Y1597860D01*
X3070400Y1598100D01*
X3069340Y1598080D01*
X3068460Y1597780D01*
X3067740Y1597180D01*
X3067200Y1596300D01*
X3066760Y1595100D01*
X3066460Y1593580D01*
X3066120Y1589540D01*
X3066019Y1584100D01*
X3066019Y1554980D01*
X3075740Y1555020D01*
X3077520Y1555200D01*
X3078840Y1555640D01*
X3079740Y1556420D01*
X3080320Y1557620D01*
X3080640Y1559360D01*
X3080779Y1561740D01*
X3080899Y1568660D01*
X3081120Y1571800D01*
X3081440Y1573920D01*
X3081840Y1574700D01*
X3083600Y1573920D01*
X3087660Y1571800D01*
X3111620Y1558520D01*
X3115480Y1556740D01*
X3117040Y1556240D01*
X3118340Y1556000D01*
X3119440Y1556020D01*
X3120320Y1556360D01*
X3121040Y1556980D01*
X3121580Y1557900D01*
X3121980Y1559160D01*
X3122260Y1560740D01*
X3122420Y1562660D01*
X3122500Y1567580D01*
X3121500Y1600600D01*
X3112559Y1601579D01*
G37*
G36*
X3241980Y1593240D02*
G01*
X3240340Y1592960D01*
X3238480Y1592400D01*
X3235899Y1591060D01*
X3234040Y1589280D01*
X3232919Y1587020D01*
X3232520Y1584300D01*
X3232420Y1582500D01*
X3232120Y1581100D01*
X3231480Y1580020D01*
X3230419Y1579220D01*
X3228800Y1578640D01*
X3226520Y1578220D01*
X3223460Y1577920D01*
X3206580Y1576900D01*
X3206580Y1584440D01*
X3206340Y1588440D01*
X3205340Y1590720D01*
X3203120Y1591740D01*
X3199180Y1591960D01*
X3195240Y1591740D01*
X3193000Y1590720D01*
X3192000Y1588500D01*
X3191780Y1584560D01*
X3191740Y1582300D01*
X3191540Y1580540D01*
X3191139Y1579240D01*
X3190440Y1578320D01*
X3189360Y1577720D01*
X3187840Y1577360D01*
X3185800Y1577200D01*
X3180419Y1577140D01*
X3178340Y1576980D01*
X3176800Y1576600D01*
X3175740Y1575940D01*
X3175080Y1574880D01*
X3174700Y1573360D01*
X3174540Y1571260D01*
X3174540Y1565800D01*
X3174700Y1563720D01*
X3175080Y1562200D01*
X3175740Y1561140D01*
X3176800Y1560480D01*
X3178340Y1560100D01*
X3180419Y1559940D01*
X3183140Y1559900D01*
X3187440Y1559700D01*
X3190080Y1558940D01*
X3191420Y1557440D01*
X3192120Y1552580D01*
X3193320Y1551080D01*
X3195600Y1550280D01*
X3199180Y1550040D01*
X3202760Y1550280D01*
X3205020Y1551080D01*
X3206220Y1552580D01*
X3206580Y1554980D01*
X3206660Y1556440D01*
X3207020Y1557600D01*
X3207780Y1558460D01*
X3209000Y1559079D01*
X3210840Y1559500D01*
X3213399Y1559760D01*
X3216780Y1559880D01*
X3224360Y1559960D01*
X3227360Y1560140D01*
X3230120Y1560420D01*
X3232620Y1560860D01*
X3234900Y1561420D01*
X3236980Y1562120D01*
X3238820Y1562960D01*
X3240480Y1563980D01*
X3241920Y1565140D01*
X3243200Y1566480D01*
X3244300Y1568000D01*
X3245240Y1569680D01*
X3246019Y1571579D01*
X3246640Y1573660D01*
X3247140Y1575940D01*
X3247520Y1578420D01*
X3247799Y1581420D01*
X3247919Y1584060D01*
X3247840Y1586360D01*
X3247580Y1588320D01*
X3247140Y1589940D01*
X3246500Y1591240D01*
X3245680Y1592220D01*
X3244640Y1592880D01*
X3243420Y1593220D01*
G37*
G36*
X3337760Y1585200D02*
G01*
X3331100Y1584960D01*
X3327880Y1584700D01*
X3325100Y1584340D01*
X3322740Y1583920D01*
X3320820Y1583440D01*
X3319320Y1582920D01*
X3318240Y1582380D01*
X3317600Y1581819D01*
X3317400Y1581240D01*
X3317600Y1580700D01*
X3318240Y1580180D01*
X3319320Y1579700D01*
X3320820Y1579259D01*
X3322740Y1578899D01*
X3325100Y1578640D01*
X3327880Y1578460D01*
X3331080Y1578400D01*
X3334660Y1578440D01*
X3337580Y1578580D01*
X3339940Y1578820D01*
X3341760Y1579180D01*
X3343100Y1579680D01*
X3343980Y1580320D01*
X3344500Y1581120D01*
X3344640Y1582100D01*
X3344520Y1583100D01*
X3344060Y1583880D01*
X3343220Y1584480D01*
X3341920Y1584880D01*
X3340120Y1585120D01*
G37*
G36*
X3319740Y1569199D02*
G01*
X3318519Y1568920D01*
X3317780Y1567960D01*
X3317520Y1566339D01*
X3318000Y1564480D01*
X3319540Y1563260D01*
X3322320Y1562580D01*
X3326520Y1562380D01*
X3335520Y1562380D01*
X3324460Y1554800D01*
X3322140Y1553020D01*
X3320400Y1551459D01*
X3319220Y1550100D01*
X3318620Y1548920D01*
X3318600Y1547940D01*
X3319160Y1547100D01*
X3320320Y1546399D01*
X3322080Y1545820D01*
X3324440Y1545360D01*
X3327400Y1545000D01*
X3334720Y1544540D01*
X3337760Y1544480D01*
X3340140Y1544560D01*
X3341940Y1544800D01*
X3343220Y1545220D01*
X3344060Y1545820D01*
X3344520Y1546620D01*
X3344660Y1547640D01*
X3344160Y1549420D01*
X3342460Y1550440D01*
X3339240Y1550800D01*
X3334180Y1550560D01*
X3323700Y1549720D01*
X3334180Y1556180D01*
X3337160Y1558100D01*
X3339620Y1559800D01*
X3341560Y1561320D01*
X3342940Y1562640D01*
X3343800Y1563779D01*
X3344140Y1564760D01*
X3343940Y1565560D01*
X3343200Y1566200D01*
X3341940Y1566699D01*
X3340160Y1567040D01*
X3337840Y1567240D01*
X3330940Y1567420D01*
X3327020Y1567740D01*
X3323700Y1568220D01*
G37*
G36*
X3245280Y1544600D02*
G01*
X3243740Y1544360D01*
X3241800Y1543720D01*
X3239380Y1542680D01*
X3236460Y1541260D01*
X3228900Y1537180D01*
X3214580Y1529259D01*
X3202980Y1537980D01*
X3197960Y1541560D01*
X3196139Y1542700D01*
X3194720Y1543400D01*
X3193660Y1543640D01*
X3192880Y1543460D01*
X3192360Y1542840D01*
X3192040Y1541780D01*
X3191880Y1540280D01*
X3191800Y1536020D01*
X3191960Y1532200D01*
X3192200Y1530640D01*
X3192580Y1529220D01*
X3193180Y1527900D01*
X3194000Y1526639D01*
X3195080Y1525400D01*
X3196500Y1524079D01*
X3198240Y1522680D01*
X3202960Y1519400D01*
X3220140Y1508180D01*
X3164660Y1508120D01*
X3164660Y1500660D01*
X3164900Y1497660D01*
X3165580Y1495020D01*
X3166600Y1493020D01*
X3167840Y1491960D01*
X3169260Y1491720D01*
X3176139Y1491380D01*
X3187320Y1491240D01*
X3205240Y1491360D01*
X3226320Y1491780D01*
X3234300Y1492060D01*
X3239980Y1492460D01*
X3243780Y1493040D01*
X3245080Y1493420D01*
X3246080Y1493860D01*
X3246800Y1494379D01*
X3247300Y1494980D01*
X3247640Y1495680D01*
X3247860Y1496459D01*
X3248000Y1497360D01*
X3248039Y1498740D01*
X3247780Y1500180D01*
X3247200Y1501680D01*
X3246280Y1503280D01*
X3245059Y1504940D01*
X3243500Y1506720D01*
X3241600Y1508580D01*
X3235800Y1513860D01*
X3233460Y1516620D01*
X3232460Y1518600D01*
X3232960Y1519660D01*
X3235059Y1520560D01*
X3237080Y1521660D01*
X3238980Y1522920D01*
X3240779Y1524340D01*
X3242440Y1525840D01*
X3243920Y1527460D01*
X3245240Y1529139D01*
X3246360Y1530880D01*
X3247260Y1532640D01*
X3247940Y1534420D01*
X3248340Y1536180D01*
X3248480Y1537900D01*
X3248440Y1539980D01*
X3248260Y1541680D01*
X3247900Y1543000D01*
X3247320Y1543920D01*
X3246460Y1544460D01*
G37*
G36*
X3038900Y1542640D02*
G01*
X3038900Y1535660D01*
X3039020Y1532820D01*
X3039380Y1530240D01*
X3039900Y1528220D01*
X3040539Y1527020D01*
X3042200Y1526399D01*
X3045480Y1525860D01*
X3049920Y1525520D01*
X3055040Y1525380D01*
X3067880Y1525380D01*
X3066806Y1515680D01*
X3081220Y1515680D01*
X3081320Y1517540D01*
X3081680Y1519480D01*
X3082320Y1521480D01*
X3083620Y1523240D01*
X3086019Y1524460D01*
X3089640Y1525160D01*
X3094600Y1525380D01*
X3097040Y1525280D01*
X3099260Y1524960D01*
X3101259Y1524440D01*
X3103039Y1523740D01*
X3104560Y1522880D01*
X3105840Y1521879D01*
X3106860Y1520760D01*
X3107620Y1519520D01*
X3108100Y1518180D01*
X3108300Y1516780D01*
X3108200Y1515320D01*
X3107820Y1513820D01*
X3107120Y1512280D01*
X3106100Y1510740D01*
X3104780Y1509220D01*
X3103100Y1507720D01*
X3101360Y1506440D01*
X3099560Y1505440D01*
X3097780Y1504720D01*
X3096000Y1504220D01*
X3094240Y1503980D01*
X3092520Y1503980D01*
X3090860Y1504180D01*
X3089280Y1504580D01*
X3087780Y1505180D01*
X3086400Y1505980D01*
X3085140Y1506940D01*
X3084040Y1508060D01*
X3083080Y1509319D01*
X3082320Y1510740D01*
X3081720Y1512260D01*
X3081360Y1513920D01*
X3081220Y1515680D01*
X3066806Y1515680D01*
X3066540Y1512480D01*
X3066540Y1510140D01*
X3066740Y1507880D01*
X3067140Y1505740D01*
X3067700Y1503680D01*
X3068460Y1501720D01*
X3069380Y1499860D01*
X3070500Y1498120D01*
X3071780Y1496480D01*
X3073220Y1494960D01*
X3074840Y1493560D01*
X3076620Y1492300D01*
X3078560Y1491140D01*
X3080659Y1490140D01*
X3082919Y1489259D01*
X3085340Y1488520D01*
X3087600Y1487980D01*
X3089840Y1487600D01*
X3092040Y1487380D01*
X3094220Y1487300D01*
X3096360Y1487380D01*
X3098460Y1487580D01*
X3100500Y1487900D01*
X3102500Y1488360D01*
X3104420Y1488940D01*
X3106300Y1489620D01*
X3108080Y1490420D01*
X3109820Y1491339D01*
X3111460Y1492340D01*
X3113000Y1493420D01*
X3115840Y1495880D01*
X3117100Y1497220D01*
X3118260Y1498640D01*
X3119300Y1500120D01*
X3120220Y1501660D01*
X3121019Y1503260D01*
X3121700Y1504920D01*
X3122240Y1506620D01*
X3122640Y1508360D01*
X3122900Y1510120D01*
X3123000Y1511940D01*
X3122960Y1513760D01*
X3122740Y1515600D01*
X3122360Y1517460D01*
X3121820Y1519340D01*
X3121100Y1521220D01*
X3119200Y1525220D01*
X3118860Y1526699D01*
X3119200Y1527560D01*
X3120179Y1527860D01*
X3121180Y1528440D01*
X3121980Y1530020D01*
X3122540Y1532380D01*
X3122740Y1535240D01*
X3122740Y1542640D01*
G37*
G36*
X3337940Y1535900D02*
G01*
X3334880Y1535840D01*
X3327720Y1535380D01*
X3324880Y1535060D01*
X3322540Y1534660D01*
X3320680Y1534180D01*
X3319260Y1533600D01*
X3318279Y1532940D01*
X3317720Y1532160D01*
X3317520Y1531279D01*
X3317880Y1529740D01*
X3318960Y1528920D01*
X3320860Y1528800D01*
X3326940Y1529900D01*
X3328800Y1529480D01*
X3329660Y1527740D01*
X3329860Y1524420D01*
X3329600Y1521220D01*
X3328660Y1519240D01*
X3326760Y1518260D01*
X3321300Y1517740D01*
X3319340Y1517080D01*
X3318020Y1516100D01*
X3317520Y1514900D01*
X3317740Y1514180D01*
X3318360Y1513540D01*
X3319400Y1513020D01*
X3320860Y1512580D01*
X3322760Y1512240D01*
X3325080Y1512020D01*
X3331080Y1511819D01*
X3334780Y1511860D01*
X3337760Y1512000D01*
X3340120Y1512240D01*
X3341920Y1512620D01*
X3343200Y1513140D01*
X3344040Y1513839D01*
X3344500Y1514720D01*
X3344640Y1515800D01*
X3344320Y1517580D01*
X3343260Y1518620D01*
X3341360Y1518920D01*
X3335260Y1518200D01*
X3333399Y1518800D01*
X3332540Y1520660D01*
X3332320Y1524160D01*
X3332540Y1527640D01*
X3333399Y1529520D01*
X3335260Y1530100D01*
X3341360Y1529379D01*
X3343260Y1529700D01*
X3344320Y1530720D01*
X3344660Y1532500D01*
X3344540Y1533620D01*
X3344120Y1534480D01*
X3343320Y1535120D01*
X3342080Y1535560D01*
X3340299Y1535820D01*
G37*
G36*
X3323340Y1502760D02*
G01*
X3321960Y1502620D01*
X3320560Y1501819D01*
X3319480Y1500520D01*
X3318700Y1498779D01*
X3318279Y1496759D01*
X3318180Y1494540D01*
X3318460Y1492240D01*
X3319100Y1489960D01*
X3320140Y1487780D01*
X3321100Y1486620D01*
X3322460Y1485620D01*
X3324120Y1484820D01*
X3326040Y1484199D01*
X3328140Y1483760D01*
X3330340Y1483520D01*
X3332559Y1483480D01*
X3334740Y1483640D01*
X3336820Y1484019D01*
X3338720Y1484600D01*
X3340380Y1485400D01*
X3341700Y1486420D01*
X3342919Y1488080D01*
X3343800Y1490140D01*
X3344360Y1492440D01*
X3344560Y1494820D01*
X3344420Y1497160D01*
X3343940Y1499240D01*
X3343100Y1500960D01*
X3341920Y1502120D01*
X3340840Y1502540D01*
X3340280Y1502140D01*
X3340260Y1500900D01*
X3340779Y1498839D01*
X3341000Y1497020D01*
X3340740Y1494980D01*
X3340040Y1492840D01*
X3339000Y1490740D01*
X3337700Y1488860D01*
X3336259Y1487340D01*
X3334740Y1486300D01*
X3333220Y1485940D01*
X3331019Y1486200D01*
X3328960Y1486960D01*
X3327140Y1488120D01*
X3325620Y1489620D01*
X3324420Y1491380D01*
X3323660Y1493320D01*
X3323360Y1495380D01*
X3323580Y1497480D01*
X3324120Y1500260D01*
X3324040Y1502000D01*
G37*
G36*
X3068380Y1482320D02*
G01*
X3067640Y1482260D01*
X3067080Y1482040D01*
X3066660Y1481660D01*
X3066360Y1481140D01*
X3066060Y1479680D01*
X3066019Y1475260D01*
X3066100Y1472740D01*
X3066380Y1470680D01*
X3066980Y1468940D01*
X3068000Y1467440D01*
X3069540Y1466040D01*
X3071720Y1464620D01*
X3074620Y1463080D01*
X3083140Y1458899D01*
X3087060Y1456699D01*
X3089700Y1454900D01*
X3090680Y1453779D01*
X3089700Y1452720D01*
X3087060Y1451080D01*
X3083140Y1449079D01*
X3078360Y1446940D01*
X3074520Y1445320D01*
X3071560Y1443899D01*
X3069380Y1442600D01*
X3067860Y1441279D01*
X3066880Y1439780D01*
X3066320Y1438020D01*
X3066080Y1435800D01*
X3066019Y1433060D01*
X3066160Y1429660D01*
X3066500Y1426860D01*
X3067020Y1424980D01*
X3067660Y1424300D01*
X3068360Y1424500D01*
X3071660Y1425980D01*
X3076960Y1428640D01*
X3094440Y1437980D01*
X3100659Y1441120D01*
X3105280Y1443240D01*
X3106760Y1443820D01*
X3107600Y1444019D01*
X3108440Y1443820D01*
X3111860Y1442320D01*
X3117120Y1439660D01*
X3123600Y1436140D01*
X3136740Y1428660D01*
X3141120Y1426380D01*
X3142780Y1425660D01*
X3144120Y1425220D01*
X3145179Y1425040D01*
X3145980Y1425140D01*
X3146560Y1425520D01*
X3146940Y1426160D01*
X3147160Y1427080D01*
X3147240Y1428260D01*
X3146820Y1434720D01*
X3146500Y1437020D01*
X3146240Y1438040D01*
X3145860Y1439019D01*
X3145360Y1439980D01*
X3144700Y1440940D01*
X3143840Y1441900D01*
X3142760Y1442920D01*
X3141420Y1444000D01*
X3137880Y1446420D01*
X3133000Y1449340D01*
X3126540Y1452980D01*
X3089500Y1472820D01*
X3082760Y1476339D01*
X3077440Y1479000D01*
X3073380Y1480860D01*
X3070419Y1481960D01*
X3069300Y1482220D01*
G37*
G36*
X3217180Y1481339D02*
G01*
X3215419Y1481060D01*
X3213399Y1480520D01*
X3208440Y1478740D01*
X3205460Y1477520D01*
X3203580Y1476620D01*
X3201820Y1475600D01*
X3200200Y1474440D01*
X3198700Y1473160D01*
X3197340Y1471780D01*
X3196100Y1470280D01*
X3195020Y1468700D01*
X3194060Y1467020D01*
X3193240Y1465280D01*
X3192559Y1463460D01*
X3192020Y1461600D01*
X3191620Y1459680D01*
X3191360Y1457720D01*
X3191259Y1455740D01*
X3191297Y1453880D01*
X3204100Y1453880D01*
X3204340Y1455640D01*
X3204980Y1457540D01*
X3205920Y1459319D01*
X3207060Y1460780D01*
X3208820Y1462360D01*
X3210299Y1463280D01*
X3211480Y1463520D01*
X3212420Y1463060D01*
X3213120Y1461879D01*
X3213600Y1459980D01*
X3213880Y1457320D01*
X3213960Y1453880D01*
X3213820Y1450060D01*
X3213380Y1446920D01*
X3212760Y1444800D01*
X3212000Y1444019D01*
X3209360Y1444980D01*
X3206800Y1447380D01*
X3204860Y1450580D01*
X3204100Y1453880D01*
X3191297Y1453880D01*
X3191480Y1451740D01*
X3191820Y1449740D01*
X3192320Y1447740D01*
X3192960Y1445760D01*
X3193759Y1443820D01*
X3194720Y1441920D01*
X3195840Y1440040D01*
X3197120Y1438240D01*
X3198560Y1436500D01*
X3200020Y1434980D01*
X3201540Y1433620D01*
X3203120Y1432380D01*
X3204760Y1431279D01*
X3206460Y1430320D01*
X3208180Y1429480D01*
X3209940Y1428779D01*
X3211740Y1428220D01*
X3213560Y1427780D01*
X3215400Y1427460D01*
X3217240Y1427260D01*
X3219080Y1427180D01*
X3220940Y1427220D01*
X3222780Y1427380D01*
X3224600Y1427640D01*
X3226400Y1428020D01*
X3228180Y1428500D01*
X3229920Y1429079D01*
X3231620Y1429780D01*
X3234900Y1431459D01*
X3237919Y1433540D01*
X3239340Y1434700D01*
X3240680Y1435960D01*
X3241920Y1437320D01*
X3244160Y1440260D01*
X3245120Y1441860D01*
X3245980Y1443540D01*
X3246720Y1445280D01*
X3247340Y1447100D01*
X3247840Y1449000D01*
X3248200Y1450960D01*
X3248420Y1452980D01*
X3248480Y1455060D01*
X3248360Y1457140D01*
X3248000Y1459480D01*
X3247460Y1461980D01*
X3246740Y1464580D01*
X3245899Y1467180D01*
X3244960Y1469700D01*
X3243960Y1472060D01*
X3242919Y1474160D01*
X3241900Y1475960D01*
X3240899Y1477340D01*
X3239960Y1478220D01*
X3239140Y1478540D01*
X3237240Y1478100D01*
X3235320Y1476940D01*
X3233540Y1475260D01*
X3232000Y1473220D01*
X3230820Y1471040D01*
X3230140Y1468940D01*
X3230100Y1467060D01*
X3230800Y1465660D01*
X3232040Y1464019D01*
X3232900Y1462060D01*
X3233440Y1459860D01*
X3233620Y1457500D01*
X3233500Y1455080D01*
X3233100Y1452680D01*
X3232440Y1450420D01*
X3231520Y1448360D01*
X3230380Y1446600D01*
X3229020Y1445220D01*
X3227500Y1444340D01*
X3225800Y1444019D01*
X3225400Y1444400D01*
X3225040Y1445480D01*
X3224700Y1447180D01*
X3224160Y1452180D01*
X3223880Y1458800D01*
X3223820Y1466180D01*
X3223580Y1472220D01*
X3223320Y1474600D01*
X3222960Y1476600D01*
X3222460Y1478240D01*
X3221800Y1479500D01*
X3220960Y1480440D01*
X3219920Y1481040D01*
X3218660Y1481339D01*
G37*
G36*
X3341300Y1476080D02*
G01*
X3339900Y1475680D01*
X3339060Y1474540D01*
X3338800Y1472620D01*
X3339440Y1467080D01*
X3339140Y1465160D01*
X3338159Y1464079D01*
X3336480Y1463740D01*
X3334920Y1464180D01*
X3333480Y1465380D01*
X3332320Y1467140D01*
X3331600Y1469300D01*
X3330520Y1474840D01*
X3330200Y1469300D01*
X3329780Y1467020D01*
X3328860Y1465280D01*
X3327540Y1464139D01*
X3325899Y1463740D01*
X3324060Y1464060D01*
X3323120Y1465100D01*
X3322960Y1467080D01*
X3324100Y1473060D01*
X3324040Y1474860D01*
X3323340Y1475640D01*
X3321960Y1475500D01*
X3320659Y1474500D01*
X3319480Y1472540D01*
X3318560Y1469900D01*
X3318000Y1466879D01*
X3317780Y1464379D01*
X3317799Y1462480D01*
X3318180Y1461100D01*
X3319080Y1460140D01*
X3320659Y1459480D01*
X3323060Y1459040D01*
X3326440Y1458720D01*
X3344660Y1457580D01*
X3344660Y1466819D01*
X3344440Y1470860D01*
X3343820Y1473760D01*
X3342760Y1475500D01*
G37*
G36*
X3321160Y1451420D02*
G01*
X3319500Y1450860D01*
X3318380Y1449120D01*
X3317740Y1446060D01*
X3317520Y1441560D01*
X3317740Y1437040D01*
X3318380Y1433980D01*
X3319500Y1432240D01*
X3321160Y1431680D01*
X3322600Y1431960D01*
X3323440Y1432720D01*
X3323660Y1433959D01*
X3323240Y1435660D01*
X3322880Y1437680D01*
X3324080Y1438760D01*
X3327340Y1439060D01*
X3338780Y1438460D01*
X3342300Y1438779D01*
X3344120Y1439780D01*
X3344660Y1441560D01*
X3344120Y1443320D01*
X3342300Y1444319D01*
X3338780Y1444640D01*
X3327340Y1444040D01*
X3324080Y1444340D01*
X3322880Y1445420D01*
X3323240Y1447440D01*
X3323660Y1449139D01*
X3323440Y1450380D01*
X3322600Y1451160D01*
G37*
G36*
X3331080Y1423060D02*
G01*
X3325419Y1422860D01*
X3323100Y1422640D01*
X3321160Y1422320D01*
X3319600Y1421920D01*
X3318460Y1421440D01*
X3317760Y1420900D01*
X3317520Y1420280D01*
X3318240Y1419139D01*
X3320380Y1418520D01*
X3323920Y1418400D01*
X3334200Y1419180D01*
X3338100Y1418959D01*
X3340779Y1418120D01*
X3342400Y1416620D01*
X3343460Y1415220D01*
X3344120Y1414960D01*
X3344480Y1415920D01*
X3344600Y1418120D01*
X3344520Y1419580D01*
X3344180Y1420720D01*
X3343480Y1421600D01*
X3342320Y1422220D01*
X3340600Y1422640D01*
X3338240Y1422900D01*
G37*
G36*
X3043060Y1421840D02*
G01*
X3042360Y1421140D01*
X3041880Y1419199D01*
X3041700Y1416339D01*
X3041840Y1412880D01*
X3042260Y1409139D01*
X3042620Y1407680D01*
X3043140Y1406399D01*
X3043880Y1405280D01*
X3044900Y1404259D01*
X3046259Y1403280D01*
X3048039Y1402300D01*
X3050260Y1401279D01*
X3056320Y1398899D01*
X3069240Y1394139D01*
X3073460Y1392420D01*
X3075059Y1391660D01*
X3076320Y1390960D01*
X3077220Y1390320D01*
X3077780Y1389680D01*
X3078000Y1389079D01*
X3077900Y1388460D01*
X3077440Y1387840D01*
X3076640Y1387200D01*
X3075500Y1386519D01*
X3072240Y1385000D01*
X3067640Y1383160D01*
X3053700Y1377860D01*
X3050700Y1376620D01*
X3048279Y1375520D01*
X3046380Y1374460D01*
X3044940Y1373420D01*
X3043860Y1372340D01*
X3043100Y1371140D01*
X3042580Y1369780D01*
X3042240Y1368200D01*
X3041820Y1364160D01*
X3041620Y1359720D01*
X3041920Y1356980D01*
X3042799Y1355740D01*
X3044280Y1355840D01*
X3055240Y1360160D01*
X3066800Y1364880D01*
X3081320Y1371000D01*
X3092320Y1375780D01*
X3102260Y1380220D01*
X3110560Y1384100D01*
X3116760Y1387160D01*
X3118900Y1388320D01*
X3120299Y1389199D01*
X3120920Y1389740D01*
X3120920Y1389900D01*
X3119680Y1390600D01*
X3113060Y1393620D01*
X3102340Y1398240D01*
X3089120Y1403779D01*
X3061820Y1414880D01*
X3051040Y1419079D01*
X3044360Y1421519D01*
G37*
G36*
X3165880Y1415660D02*
G01*
X3164340Y1399640D01*
X3248800Y1399640D01*
X3247260Y1415660D01*
G37*
G36*
X3341180Y1409500D02*
G01*
X3339780Y1409180D01*
X3338940Y1408240D01*
X3338680Y1406680D01*
X3339000Y1404560D01*
X3339320Y1403080D01*
X3339340Y1401940D01*
X3339000Y1401060D01*
X3338200Y1400440D01*
X3336880Y1400040D01*
X3334940Y1399780D01*
X3332320Y1399660D01*
X3328920Y1399640D01*
X3323980Y1399440D01*
X3320419Y1398839D01*
X3318260Y1397880D01*
X3317520Y1396560D01*
X3317740Y1395820D01*
X3318360Y1395180D01*
X3319400Y1394660D01*
X3320860Y1394220D01*
X3322760Y1393899D01*
X3325080Y1393660D01*
X3331080Y1393460D01*
X3344640Y1393460D01*
X3344640Y1401480D01*
X3344420Y1404940D01*
X3343759Y1407460D01*
X3342679Y1408980D01*
G37*
G36*
X3239860Y1387300D02*
G01*
X3237020Y1387280D01*
X3234880Y1387120D01*
X3233360Y1386699D01*
X3232320Y1385900D01*
X3231700Y1384560D01*
X3231380Y1382600D01*
X3231240Y1379860D01*
X3231240Y1372560D01*
X3231380Y1369820D01*
X3231700Y1367840D01*
X3232320Y1366519D01*
X3233360Y1365720D01*
X3234880Y1365300D01*
X3237020Y1365140D01*
X3242700Y1365140D01*
X3244820Y1365300D01*
X3246360Y1365720D01*
X3247400Y1366519D01*
X3248020Y1367840D01*
X3248340Y1369820D01*
X3248480Y1372560D01*
X3248480Y1379860D01*
X3248340Y1382600D01*
X3248020Y1384560D01*
X3247400Y1385900D01*
X3246360Y1386699D01*
X3244820Y1387120D01*
X3242700Y1387280D01*
G37*
G36*
X3170520Y1387100D02*
G01*
X3169080Y1386819D01*
X3168140Y1386100D01*
X3167540Y1384800D01*
X3167240Y1382840D01*
X3167120Y1376360D01*
X3167140Y1372660D01*
X3167260Y1369860D01*
X3167580Y1367860D01*
X3168220Y1366519D01*
X3169260Y1365700D01*
X3170820Y1365280D01*
X3173000Y1365140D01*
X3184660Y1365120D01*
X3183639Y1378860D01*
X3183300Y1381399D01*
X3182799Y1383280D01*
X3182080Y1384640D01*
X3181019Y1385560D01*
X3179580Y1386160D01*
X3177640Y1386560D01*
X3172500Y1387080D01*
G37*
G36*
X3331900Y1384840D02*
G01*
X3330080Y1384720D01*
X3328320Y1384319D01*
X3326600Y1383700D01*
X3325000Y1382840D01*
X3323500Y1381800D01*
X3322160Y1380560D01*
X3320960Y1379180D01*
X3319960Y1377640D01*
X3319160Y1375980D01*
X3318600Y1374220D01*
X3318320Y1372360D01*
X3318309Y1370400D01*
X3322380Y1370400D01*
X3322520Y1372400D01*
X3323200Y1374360D01*
X3324340Y1376180D01*
X3325920Y1377700D01*
X3327840Y1378820D01*
X3330059Y1379420D01*
X3332740Y1379460D01*
X3335160Y1378980D01*
X3337280Y1378080D01*
X3339000Y1376780D01*
X3340280Y1375160D01*
X3341040Y1373300D01*
X3341220Y1371279D01*
X3340740Y1369120D01*
X3339700Y1367720D01*
X3337940Y1366600D01*
X3335640Y1365740D01*
X3333060Y1365220D01*
X3330360Y1365020D01*
X3327820Y1365220D01*
X3325620Y1365820D01*
X3324000Y1366860D01*
X3322860Y1368520D01*
X3322380Y1370400D01*
X3318309Y1370400D01*
X3318600Y1368480D01*
X3319220Y1366500D01*
X3320200Y1364500D01*
X3321139Y1363320D01*
X3322480Y1362340D01*
X3324140Y1361519D01*
X3326060Y1360900D01*
X3328140Y1360460D01*
X3330340Y1360220D01*
X3332559Y1360180D01*
X3334740Y1360360D01*
X3336820Y1360720D01*
X3338720Y1361320D01*
X3340380Y1362120D01*
X3341700Y1363140D01*
X3343039Y1364900D01*
X3343940Y1367020D01*
X3344440Y1369400D01*
X3344520Y1371879D01*
X3344180Y1374400D01*
X3343440Y1376819D01*
X3342300Y1379040D01*
X3340779Y1380960D01*
X3339100Y1382400D01*
X3337360Y1383500D01*
X3335560Y1384259D01*
X3333720Y1384700D01*
G37*
G36*
X3206580Y1382380D02*
G01*
X3204300Y1382320D01*
X3202540Y1382140D01*
X3201240Y1381740D01*
X3200320Y1381040D01*
X3199720Y1379960D01*
X3199380Y1378440D01*
X3199220Y1376399D01*
X3199220Y1371100D01*
X3199380Y1369040D01*
X3199720Y1367520D01*
X3200320Y1366440D01*
X3201240Y1365740D01*
X3202540Y1365340D01*
X3204300Y1365160D01*
X3208840Y1365160D01*
X3210600Y1365340D01*
X3211900Y1365740D01*
X3212820Y1366440D01*
X3213420Y1367520D01*
X3213759Y1369040D01*
X3213920Y1371100D01*
X3213920Y1376399D01*
X3213759Y1378440D01*
X3213420Y1379960D01*
X3212820Y1381040D01*
X3211900Y1381740D01*
X3210600Y1382140D01*
X3208840Y1382320D01*
G37*
G36*
X3118860Y1366819D02*
G01*
X3117640Y1366680D01*
X3114460Y1365960D01*
X3110220Y1364660D01*
X3104760Y1362720D01*
X3089580Y1356920D01*
X3042600Y1338440D01*
X3041820Y1329379D01*
X3041560Y1324640D01*
X3041980Y1322100D01*
X3043279Y1321300D01*
X3045720Y1321780D01*
X3050340Y1323480D01*
X3071780Y1331879D01*
X3102980Y1344460D01*
X3108960Y1347020D01*
X3113500Y1349160D01*
X3116840Y1350980D01*
X3118120Y1351800D01*
X3119160Y1352600D01*
X3120000Y1353380D01*
X3120659Y1354160D01*
X3121160Y1354960D01*
X3121540Y1355780D01*
X3122020Y1357600D01*
X3122480Y1362080D01*
X3122500Y1364019D01*
X3122380Y1364800D01*
X3122160Y1365460D01*
X3121820Y1366000D01*
X3121340Y1366399D01*
X3120700Y1366680D01*
X3119880Y1366819D01*
G37*
G36*
X3167120Y1352900D02*
G01*
X3167120Y1335520D01*
X3248800Y1335520D01*
X3247260Y1351560D01*
G37*
G36*
X3325899Y1352480D02*
G01*
X3324620Y1352440D01*
X3323399Y1352100D01*
X3322220Y1351500D01*
X3321120Y1350660D01*
X3320120Y1349540D01*
X3319240Y1348200D01*
X3318540Y1346620D01*
X3318000Y1344820D01*
X3317882Y1344160D01*
X3322460Y1344160D01*
X3322760Y1345580D01*
X3323540Y1346759D01*
X3324720Y1347560D01*
X3326160Y1347860D01*
X3327600Y1347560D01*
X3328780Y1346759D01*
X3329560Y1345580D01*
X3329860Y1344160D01*
X3329560Y1342720D01*
X3328780Y1341540D01*
X3327600Y1340740D01*
X3326160Y1340460D01*
X3324720Y1340740D01*
X3323540Y1341540D01*
X3322760Y1342720D01*
X3322460Y1344160D01*
X3317882Y1344160D01*
X3317640Y1342800D01*
X3317520Y1340580D01*
X3317580Y1338600D01*
X3317840Y1337080D01*
X3318420Y1335960D01*
X3319480Y1335200D01*
X3321139Y1334700D01*
X3323519Y1334440D01*
X3326800Y1334319D01*
X3334820Y1334340D01*
X3337840Y1334460D01*
X3340200Y1334720D01*
X3341980Y1335100D01*
X3343240Y1335620D01*
X3344060Y1336339D01*
X3344520Y1337260D01*
X3344640Y1338380D01*
X3344380Y1340100D01*
X3343540Y1341140D01*
X3342140Y1341540D01*
X3340200Y1341300D01*
X3338039Y1341160D01*
X3336120Y1341960D01*
X3334400Y1343720D01*
X3331880Y1348260D01*
X3330820Y1349740D01*
X3329660Y1350880D01*
X3328440Y1351720D01*
X3327160Y1352240D01*
G37*
G36*
X3233980Y1265240D02*
G01*
X3233759Y1240220D01*
X3233620Y1235760D01*
X3233380Y1232440D01*
X3233000Y1230120D01*
X3232440Y1228640D01*
X3231680Y1227880D01*
X3230659Y1227700D01*
X3221580Y1229620D01*
X3177900Y1238340D01*
X3116800Y1250260D01*
X3072460Y1259000D01*
X3064180Y1260720D01*
X3058620Y1262080D01*
X3058620Y1189420D01*
X3038900Y1192560D01*
X3038920Y1132600D01*
X3043840Y1132600D01*
X3043840Y1188120D01*
X3061100Y1184880D01*
X3061120Y1230060D01*
X3061240Y1237780D01*
X3061460Y1243980D01*
X3061760Y1248820D01*
X3062180Y1252400D01*
X3062420Y1253740D01*
X3063020Y1255620D01*
X3063380Y1256180D01*
X3063759Y1256500D01*
X3064180Y1256620D01*
X3071700Y1255340D01*
X3089900Y1251900D01*
X3147400Y1240620D01*
X3202320Y1229660D01*
X3213639Y1227600D01*
X3222140Y1226300D01*
X3225460Y1225940D01*
X3228220Y1225760D01*
X3230480Y1225760D01*
X3232300Y1225940D01*
X3233700Y1226320D01*
X3234760Y1226860D01*
X3235520Y1227580D01*
X3236019Y1228500D01*
X3236320Y1229580D01*
X3236480Y1230820D01*
X3236600Y1236520D01*
X3237400Y1250460D01*
X3279840Y1166620D01*
X3237400Y1097580D01*
X3236440Y1118800D01*
X3236160Y1122320D01*
X3235800Y1125320D01*
X3235320Y1127860D01*
X3234740Y1129980D01*
X3234000Y1131700D01*
X3233120Y1133080D01*
X3232060Y1134120D01*
X3230800Y1134880D01*
X3229320Y1135380D01*
X3227620Y1135660D01*
X3225680Y1135760D01*
X3224980Y1135720D01*
X3224380Y1135560D01*
X3223820Y1135260D01*
X3223360Y1134760D01*
X3222940Y1134020D01*
X3222600Y1133020D01*
X3222300Y1131720D01*
X3221860Y1128040D01*
X3221580Y1122700D01*
X3221420Y1115380D01*
X3221360Y1096400D01*
X3221180Y1083040D01*
X3220820Y1072480D01*
X3220580Y1068620D01*
X3220299Y1065900D01*
X3220020Y1064480D01*
X3219860Y1064300D01*
X3213519Y1065400D01*
X3175380Y1072680D01*
X3110700Y1085320D01*
X3064500Y1094500D01*
X3048440Y1097820D01*
X3047580Y1098100D01*
X3047080Y1098360D01*
X3046200Y1099220D01*
X3045820Y1099860D01*
X3045200Y1101660D01*
X3044720Y1104360D01*
X3044360Y1108120D01*
X3044120Y1113160D01*
X3043960Y1119660D01*
X3043840Y1132600D01*
X3038920Y1132600D01*
X3039100Y1115020D01*
X3039300Y1108820D01*
X3039580Y1104120D01*
X3040000Y1100680D01*
X3040560Y1098320D01*
X3040880Y1097460D01*
X3041259Y1096780D01*
X3041680Y1096260D01*
X3042660Y1095580D01*
X3044560Y1095060D01*
X3054960Y1092880D01*
X3109000Y1082160D01*
X3210280Y1062300D01*
X3219900Y1060340D01*
X3226300Y1058820D01*
X3226320Y1105000D01*
X3226440Y1113120D01*
X3226640Y1119420D01*
X3226980Y1124100D01*
X3227440Y1127360D01*
X3227740Y1128540D01*
X3228080Y1129460D01*
X3228460Y1130100D01*
X3228880Y1130540D01*
X3229360Y1130800D01*
X3229900Y1130860D01*
X3230580Y1130760D01*
X3231180Y1130440D01*
X3231700Y1129860D01*
X3232160Y1129000D01*
X3232559Y1127840D01*
X3232919Y1126340D01*
X3233480Y1122220D01*
X3233900Y1116420D01*
X3234220Y1108720D01*
X3234920Y1086560D01*
X3283620Y1166500D01*
G37*
G36*
X3129580Y1223840D02*
G01*
X3125220Y1223660D01*
X3123100Y1223480D01*
X3118960Y1222860D01*
X3114940Y1221980D01*
X3111060Y1220820D01*
X3107360Y1219400D01*
X3103800Y1217720D01*
X3100419Y1215800D01*
X3097220Y1213660D01*
X3094220Y1211280D01*
X3091400Y1208680D01*
X3088800Y1205880D01*
X3086400Y1202880D01*
X3084240Y1199700D01*
X3082300Y1196320D01*
X3080620Y1192800D01*
X3079180Y1189100D01*
X3077980Y1185240D01*
X3077080Y1181260D01*
X3076440Y1177140D01*
X3076080Y1172900D01*
X3076004Y1170200D01*
X3080600Y1170200D01*
X3080720Y1175540D01*
X3080899Y1178180D01*
X3081540Y1183300D01*
X3082500Y1188140D01*
X3083800Y1192640D01*
X3084580Y1194720D01*
X3085460Y1196680D01*
X3086400Y1198480D01*
X3087600Y1200440D01*
X3088900Y1202300D01*
X3090299Y1204080D01*
X3091820Y1205760D01*
X3093440Y1207380D01*
X3095160Y1208880D01*
X3096980Y1210320D01*
X3100880Y1212880D01*
X3102960Y1214020D01*
X3105120Y1215060D01*
X3107340Y1216000D01*
X3112020Y1217560D01*
X3114460Y1218180D01*
X3116940Y1218680D01*
X3119500Y1219080D01*
X3122100Y1219380D01*
X3124740Y1219540D01*
X3136139Y1219620D01*
X3139620Y1219540D01*
X3142559Y1219300D01*
X3143840Y1219100D01*
X3145000Y1218820D01*
X3146060Y1218460D01*
X3147000Y1218020D01*
X3147860Y1217460D01*
X3148620Y1216820D01*
X3149280Y1216040D01*
X3149860Y1215140D01*
X3150360Y1214080D01*
X3150800Y1212900D01*
X3151460Y1210020D01*
X3151920Y1206420D01*
X3152180Y1202040D01*
X3152300Y1196780D01*
X3152320Y1133340D01*
X3159840Y1133340D01*
X3161720Y1133420D01*
X3163519Y1133700D01*
X3165240Y1134140D01*
X3166880Y1134740D01*
X3168440Y1135500D01*
X3169900Y1136400D01*
X3171280Y1137440D01*
X3172540Y1138620D01*
X3173720Y1139920D01*
X3174800Y1141340D01*
X3175779Y1142880D01*
X3176660Y1144520D01*
X3177420Y1146240D01*
X3178080Y1148060D01*
X3178639Y1149960D01*
X3179060Y1151920D01*
X3179380Y1153960D01*
X3179580Y1156060D01*
X3179660Y1158200D01*
X3179600Y1160380D01*
X3179420Y1162600D01*
X3179120Y1164840D01*
X3178700Y1167100D01*
X3178120Y1169380D01*
X3177420Y1171660D01*
X3176580Y1173940D01*
X3175600Y1176200D01*
X3174460Y1178460D01*
X3169480Y1187740D01*
X3181440Y1202540D01*
X3183020Y1204280D01*
X3184380Y1205520D01*
X3185560Y1206280D01*
X3186660Y1206500D01*
X3187740Y1206240D01*
X3188820Y1205460D01*
X3190000Y1204180D01*
X3191340Y1202380D01*
X3194720Y1197260D01*
X3197080Y1193280D01*
X3198159Y1191200D01*
X3200100Y1186840D01*
X3201800Y1182260D01*
X3203220Y1177540D01*
X3204360Y1172680D01*
X3205240Y1167740D01*
X3205820Y1162760D01*
X3206139Y1157760D01*
X3206160Y1152800D01*
X3205899Y1147920D01*
X3205680Y1145520D01*
X3204980Y1140840D01*
X3204540Y1138540D01*
X3203399Y1134140D01*
X3202740Y1132000D01*
X3201160Y1127960D01*
X3199300Y1124200D01*
X3197140Y1120760D01*
X3194740Y1117580D01*
X3192100Y1114680D01*
X3189240Y1112060D01*
X3186180Y1109700D01*
X3182919Y1107640D01*
X3179500Y1105820D01*
X3175940Y1104280D01*
X3172220Y1103000D01*
X3168380Y1101960D01*
X3164460Y1101200D01*
X3160440Y1100700D01*
X3156340Y1100440D01*
X3152180Y1100440D01*
X3148000Y1100680D01*
X3143800Y1101180D01*
X3139580Y1101920D01*
X3135380Y1102880D01*
X3131200Y1104100D01*
X3127060Y1105560D01*
X3123000Y1107240D01*
X3119000Y1109160D01*
X3115100Y1111300D01*
X3111300Y1113680D01*
X3107640Y1116280D01*
X3104120Y1119100D01*
X3100760Y1122140D01*
X3097580Y1125400D01*
X3094580Y1128880D01*
X3091800Y1132560D01*
X3089240Y1136460D01*
X3086920Y1140560D01*
X3085920Y1142600D01*
X3085020Y1144740D01*
X3084200Y1147000D01*
X3082820Y1151800D01*
X3081760Y1156860D01*
X3081040Y1162140D01*
X3080659Y1167500D01*
X3080600Y1170200D01*
X3076004Y1170200D01*
X3076100Y1166320D01*
X3076500Y1161820D01*
X3077200Y1157220D01*
X3078240Y1152540D01*
X3079600Y1147780D01*
X3081080Y1143720D01*
X3082840Y1139780D01*
X3084860Y1135960D01*
X3087140Y1132300D01*
X3089660Y1128800D01*
X3092380Y1125440D01*
X3095340Y1122240D01*
X3098460Y1119200D01*
X3101780Y1116340D01*
X3105240Y1113660D01*
X3108860Y1111140D01*
X3112600Y1108820D01*
X3116460Y1106680D01*
X3120419Y1104740D01*
X3124460Y1103000D01*
X3128560Y1101460D01*
X3132720Y1100160D01*
X3136920Y1099040D01*
X3141139Y1098160D01*
X3145360Y1097520D01*
X3149580Y1097100D01*
X3153759Y1096920D01*
X3157919Y1096980D01*
X3162020Y1097280D01*
X3166040Y1097860D01*
X3169980Y1098680D01*
X3173820Y1099760D01*
X3177540Y1101120D01*
X3181139Y1102760D01*
X3184580Y1104680D01*
X3187860Y1106880D01*
X3189440Y1108080D01*
X3192500Y1110780D01*
X3195360Y1113800D01*
X3197960Y1117080D01*
X3200299Y1120600D01*
X3202380Y1124340D01*
X3204200Y1128280D01*
X3205740Y1132380D01*
X3207020Y1136640D01*
X3208020Y1141040D01*
X3208780Y1145560D01*
X3209240Y1150160D01*
X3209440Y1154840D01*
X3209380Y1159560D01*
X3209040Y1164320D01*
X3208420Y1169080D01*
X3207540Y1173820D01*
X3206380Y1178540D01*
X3204940Y1183200D01*
X3203220Y1187800D01*
X3201240Y1192300D01*
X3198960Y1196680D01*
X3196420Y1200920D01*
X3193180Y1205660D01*
X3191600Y1207820D01*
X3190220Y1209500D01*
X3188980Y1210640D01*
X3187780Y1211280D01*
X3186560Y1211360D01*
X3185260Y1210920D01*
X3183800Y1209900D01*
X3182100Y1208320D01*
X3180120Y1206180D01*
X3174920Y1200120D01*
X3164700Y1187980D01*
X3170820Y1177300D01*
X3172120Y1174820D01*
X3173260Y1172340D01*
X3174200Y1169860D01*
X3174960Y1167380D01*
X3175539Y1164920D01*
X3175940Y1162500D01*
X3176160Y1160100D01*
X3176240Y1157780D01*
X3176139Y1155500D01*
X3175860Y1153300D01*
X3175440Y1151180D01*
X3174880Y1149160D01*
X3174140Y1147220D01*
X3173279Y1145420D01*
X3172260Y1143720D01*
X3171100Y1142180D01*
X3169800Y1140760D01*
X3168360Y1139500D01*
X3166800Y1138420D01*
X3165100Y1137500D01*
X3163300Y1136780D01*
X3161360Y1136240D01*
X3159300Y1135900D01*
X3157140Y1135800D01*
X3156880Y1136000D01*
X3156640Y1136580D01*
X3156180Y1138840D01*
X3155779Y1142480D01*
X3155440Y1147400D01*
X3155160Y1153480D01*
X3154960Y1160620D01*
X3154840Y1168720D01*
X3154800Y1219540D01*
X3145620Y1221940D01*
X3140920Y1222880D01*
X3136300Y1223500D01*
X3131780Y1223800D01*
G37*
G36*
X3125280Y1190320D02*
G01*
X3124040Y1190300D01*
X3122660Y1190100D01*
X3121120Y1189720D01*
X3117540Y1188460D01*
X3115460Y1187620D01*
X3113620Y1186740D01*
X3111920Y1185640D01*
X3110340Y1184360D01*
X3108920Y1182900D01*
X3107620Y1181280D01*
X3106480Y1179520D01*
X3105500Y1177660D01*
X3104700Y1175680D01*
X3104040Y1173600D01*
X3103580Y1171460D01*
X3103446Y1170480D01*
X3107780Y1170480D01*
X3107940Y1172580D01*
X3108300Y1174580D01*
X3108860Y1176480D01*
X3109620Y1178220D01*
X3110600Y1179820D01*
X3111820Y1181240D01*
X3113800Y1182740D01*
X3116320Y1183980D01*
X3119040Y1184800D01*
X3121680Y1185120D01*
X3123039Y1185100D01*
X3124180Y1184980D01*
X3125100Y1184720D01*
X3125860Y1184220D01*
X3126440Y1183400D01*
X3126880Y1182200D01*
X3127200Y1180540D01*
X3127420Y1178360D01*
X3127640Y1172100D01*
X3127660Y1157940D01*
X3127559Y1150460D01*
X3127260Y1145660D01*
X3126980Y1144100D01*
X3126640Y1143040D01*
X3126160Y1142420D01*
X3125580Y1142180D01*
X3124840Y1142240D01*
X3123960Y1142560D01*
X3120960Y1144280D01*
X3119100Y1145680D01*
X3117360Y1147240D01*
X3115760Y1148980D01*
X3114260Y1150860D01*
X3112919Y1152840D01*
X3111720Y1154940D01*
X3110659Y1157100D01*
X3109760Y1159320D01*
X3109020Y1161560D01*
X3108440Y1163820D01*
X3108039Y1166080D01*
X3107820Y1168300D01*
X3107780Y1170480D01*
X3103446Y1170480D01*
X3103279Y1169260D01*
X3103180Y1167020D01*
X3103260Y1164760D01*
X3103560Y1162480D01*
X3104040Y1160220D01*
X3104760Y1157980D01*
X3105460Y1156420D01*
X3106460Y1154760D01*
X3107720Y1152980D01*
X3109200Y1151160D01*
X3110880Y1149320D01*
X3114620Y1145660D01*
X3116640Y1143900D01*
X3120779Y1140720D01*
X3122820Y1139340D01*
X3124800Y1138140D01*
X3126660Y1137160D01*
X3128399Y1136420D01*
X3129960Y1135960D01*
X3131320Y1135800D01*
X3131520Y1136040D01*
X3131840Y1137880D01*
X3132060Y1141340D01*
X3132200Y1146120D01*
X3132140Y1158700D01*
X3131940Y1166460D01*
X3131640Y1173660D01*
X3131180Y1179400D01*
X3130500Y1183820D01*
X3130040Y1185540D01*
X3129520Y1186980D01*
X3128900Y1188160D01*
X3128159Y1189060D01*
X3127320Y1189700D01*
X3126360Y1190120D01*
G37*
G36*
X3492600Y2057900D02*
G01*
X3489940Y2057820D01*
X3487500Y2057540D01*
X3485280Y2057100D01*
X3483279Y2056459D01*
X3481520Y2055640D01*
X3479980Y2054640D01*
X3478680Y2053480D01*
X3477620Y2052100D01*
X3476780Y2050560D01*
X3476180Y2048820D01*
X3475820Y2046900D01*
X3475700Y2044800D01*
X3475860Y2042880D01*
X3476300Y2041000D01*
X3477040Y2039180D01*
X3478020Y2037380D01*
X3479240Y2035600D01*
X3480680Y2033860D01*
X3482300Y2032120D01*
X3484100Y2030400D01*
X3482280Y2029680D01*
X3480640Y2028760D01*
X3479200Y2027640D01*
X3477980Y2026320D01*
X3477020Y2024740D01*
X3476300Y2022900D01*
X3475860Y2020800D01*
X3475700Y2018400D01*
X3475840Y2016540D01*
X3476280Y2014740D01*
X3476960Y2012960D01*
X3477880Y2011260D01*
X3478980Y2009600D01*
X3480260Y2008000D01*
X3481680Y2006459D01*
X3483200Y2005000D01*
X3483200Y2004800D01*
X3476800Y2004100D01*
X3476800Y1998800D01*
X3520000Y1998800D01*
X3520000Y2005300D01*
X3488399Y2005300D01*
X3485320Y2008320D01*
X3483140Y2011220D01*
X3481840Y2013980D01*
X3481400Y2016600D01*
X3481580Y2018640D01*
X3482100Y2020380D01*
X3482980Y2021840D01*
X3484260Y2023020D01*
X3485920Y2023940D01*
X3487980Y2024580D01*
X3490480Y2024980D01*
X3493399Y2025100D01*
X3520000Y2025100D01*
X3520000Y2031600D01*
X3488399Y2031600D01*
X3485320Y2034600D01*
X3483140Y2037480D01*
X3481840Y2040240D01*
X3481400Y2042900D01*
X3481580Y2044920D01*
X3482100Y2046660D01*
X3482980Y2048100D01*
X3484260Y2049280D01*
X3485920Y2050180D01*
X3487980Y2050800D01*
X3490480Y2051180D01*
X3493399Y2051300D01*
X3520000Y2051300D01*
X3520000Y2057900D01*
G37*
G36*
X3495899Y1987900D02*
G01*
X3492880Y1987760D01*
X3490059Y1987380D01*
X3487480Y1986740D01*
X3485100Y1985860D01*
X3482980Y1984740D01*
X3481120Y1983400D01*
X3479500Y1981819D01*
X3478159Y1980040D01*
X3477100Y1978020D01*
X3476320Y1975820D01*
X3475860Y1973400D01*
X3475706Y1970900D01*
X3481000Y1970900D01*
X3481220Y1973420D01*
X3481900Y1975640D01*
X3483000Y1977560D01*
X3484540Y1979160D01*
X3486520Y1980420D01*
X3488940Y1981339D01*
X3491760Y1981900D01*
X3495000Y1982100D01*
X3495000Y1958000D01*
X3491880Y1958520D01*
X3489100Y1959460D01*
X3486700Y1960740D01*
X3484700Y1962340D01*
X3483100Y1964220D01*
X3481960Y1966300D01*
X3481240Y1968540D01*
X3481000Y1970900D01*
X3475706Y1970900D01*
X3475800Y1968959D01*
X3476100Y1967140D01*
X3476600Y1965360D01*
X3477280Y1963620D01*
X3478140Y1961960D01*
X3479200Y1960380D01*
X3480419Y1958880D01*
X3481800Y1957480D01*
X3483360Y1956220D01*
X3485059Y1955060D01*
X3486940Y1954060D01*
X3488940Y1953200D01*
X3491100Y1952520D01*
X3493399Y1952020D01*
X3495840Y1951699D01*
X3498399Y1951600D01*
X3501000Y1951699D01*
X3503440Y1952020D01*
X3505760Y1952520D01*
X3507919Y1953200D01*
X3509940Y1954060D01*
X3511800Y1955080D01*
X3513480Y1956240D01*
X3515020Y1957560D01*
X3516400Y1959000D01*
X3517600Y1960580D01*
X3518620Y1962260D01*
X3519460Y1964040D01*
X3520140Y1965920D01*
X3520620Y1967880D01*
X3520899Y1969900D01*
X3521000Y1972000D01*
X3520899Y1974180D01*
X3520640Y1976220D01*
X3520240Y1978120D01*
X3519700Y1979920D01*
X3519040Y1981620D01*
X3518300Y1983220D01*
X3516600Y1986200D01*
X3512300Y1983800D01*
X3513780Y1981339D01*
X3514880Y1978720D01*
X3515560Y1975880D01*
X3515800Y1972800D01*
X3515659Y1970700D01*
X3515280Y1968740D01*
X3514660Y1966920D01*
X3513780Y1965220D01*
X3512700Y1963700D01*
X3511400Y1962320D01*
X3509900Y1961120D01*
X3508220Y1960100D01*
X3506360Y1959280D01*
X3504320Y1958640D01*
X3502140Y1958220D01*
X3499800Y1958000D01*
X3499800Y1987600D01*
X3498039Y1987820D01*
G37*
G36*
X3519400Y1947400D02*
G01*
X3514500Y1946100D01*
X3514940Y1944960D01*
X3515320Y1943680D01*
X3515600Y1942360D01*
X3515700Y1941100D01*
X3515120Y1937840D01*
X3513440Y1935740D01*
X3510760Y1934640D01*
X3507200Y1934300D01*
X3482200Y1934300D01*
X3482200Y1946200D01*
X3476800Y1946200D01*
X3476800Y1934300D01*
X3464600Y1934300D01*
X3464600Y1928800D01*
X3476800Y1928000D01*
X3477200Y1921200D01*
X3482200Y1921200D01*
X3482200Y1927800D01*
X3507000Y1927800D01*
X3510020Y1927940D01*
X3512740Y1928400D01*
X3515120Y1929199D01*
X3517160Y1930380D01*
X3518780Y1931980D01*
X3520000Y1934040D01*
X3520740Y1936600D01*
X3521000Y1939700D01*
X3520860Y1941579D01*
X3520500Y1943540D01*
G37*
G36*
X3508399Y1917800D02*
G01*
X3505580Y1917480D01*
X3503220Y1916600D01*
X3501280Y1915240D01*
X3499660Y1913500D01*
X3498320Y1911459D01*
X3497160Y1909199D01*
X3493840Y1900860D01*
X3492280Y1897860D01*
X3490220Y1895780D01*
X3487400Y1895000D01*
X3484900Y1895500D01*
X3482840Y1897020D01*
X3481420Y1899640D01*
X3480899Y1903400D01*
X3481200Y1906180D01*
X3482020Y1908720D01*
X3483220Y1911080D01*
X3484700Y1913300D01*
X3480500Y1916500D01*
X3478620Y1913800D01*
X3477080Y1910660D01*
X3476080Y1907180D01*
X3475700Y1903400D01*
X3475940Y1900060D01*
X3476640Y1897140D01*
X3477740Y1894620D01*
X3479200Y1892520D01*
X3480980Y1890880D01*
X3483039Y1889680D01*
X3485320Y1888940D01*
X3487799Y1888700D01*
X3490340Y1889000D01*
X3492500Y1889820D01*
X3494360Y1891120D01*
X3495920Y1892780D01*
X3497240Y1894720D01*
X3498360Y1896879D01*
X3499340Y1899160D01*
X3501640Y1905140D01*
X3502460Y1906840D01*
X3503399Y1908380D01*
X3504460Y1909700D01*
X3505680Y1910720D01*
X3507080Y1911360D01*
X3508700Y1911600D01*
X3511520Y1911040D01*
X3513800Y1909360D01*
X3515340Y1906540D01*
X3515899Y1902600D01*
X3515520Y1898820D01*
X3514460Y1895460D01*
X3512820Y1892440D01*
X3510700Y1889600D01*
X3515100Y1886300D01*
X3516320Y1887920D01*
X3517460Y1889680D01*
X3518460Y1891560D01*
X3519320Y1893560D01*
X3520020Y1895660D01*
X3520560Y1897840D01*
X3520880Y1900100D01*
X3521000Y1902400D01*
X3520740Y1905940D01*
X3520000Y1909019D01*
X3518840Y1911660D01*
X3517280Y1913839D01*
X3515419Y1915560D01*
X3513279Y1916800D01*
X3510920Y1917540D01*
G37*
G36*
X3476800Y1882700D02*
G01*
X3476800Y1876300D01*
X3504460Y1867280D01*
X3513700Y1864500D01*
X3513700Y1864100D01*
X3501500Y1859800D01*
X3476800Y1850600D01*
X3476800Y1843800D01*
X3520200Y1861200D01*
X3523600Y1860300D01*
X3525620Y1859520D01*
X3527500Y1858620D01*
X3529160Y1857580D01*
X3530600Y1856420D01*
X3531780Y1855100D01*
X3532660Y1853620D01*
X3533200Y1852000D01*
X3533399Y1850200D01*
X3533340Y1849280D01*
X3532700Y1846800D01*
X3538000Y1845500D01*
X3538399Y1846540D01*
X3538680Y1847720D01*
X3538840Y1849019D01*
X3538900Y1850400D01*
X3538759Y1852420D01*
X3538360Y1854280D01*
X3537720Y1856000D01*
X3536860Y1857580D01*
X3535779Y1859040D01*
X3534520Y1860360D01*
X3533100Y1861579D01*
X3531500Y1862680D01*
X3529780Y1863680D01*
X3527960Y1864600D01*
X3526019Y1865440D01*
G37*
G36*
X3508399Y1839800D02*
G01*
X3505580Y1839480D01*
X3503220Y1838600D01*
X3501280Y1837240D01*
X3499660Y1835500D01*
X3498320Y1833460D01*
X3497160Y1831200D01*
X3493840Y1822860D01*
X3492280Y1819860D01*
X3490220Y1817780D01*
X3487400Y1817000D01*
X3484900Y1817500D01*
X3482840Y1819019D01*
X3481420Y1821639D01*
X3480899Y1825400D01*
X3481200Y1828180D01*
X3482020Y1830720D01*
X3483220Y1833080D01*
X3484700Y1835300D01*
X3480500Y1838500D01*
X3478620Y1835800D01*
X3477080Y1832660D01*
X3476080Y1829180D01*
X3475700Y1825400D01*
X3475940Y1822060D01*
X3476640Y1819139D01*
X3477740Y1816620D01*
X3479200Y1814520D01*
X3480980Y1812880D01*
X3483039Y1811680D01*
X3485320Y1810940D01*
X3487799Y1810700D01*
X3490340Y1811000D01*
X3492500Y1811819D01*
X3494360Y1813120D01*
X3495920Y1814780D01*
X3497240Y1816720D01*
X3498360Y1818880D01*
X3499340Y1821160D01*
X3501640Y1827140D01*
X3502460Y1828839D01*
X3503399Y1830380D01*
X3504460Y1831699D01*
X3505680Y1832720D01*
X3507080Y1833360D01*
X3508700Y1833600D01*
X3511520Y1833040D01*
X3513800Y1831360D01*
X3515340Y1828540D01*
X3515899Y1824600D01*
X3515520Y1820820D01*
X3514460Y1817460D01*
X3512820Y1814440D01*
X3510700Y1811600D01*
X3515100Y1808300D01*
X3516320Y1809920D01*
X3517460Y1811680D01*
X3518460Y1813560D01*
X3519320Y1815560D01*
X3520020Y1817660D01*
X3520560Y1819840D01*
X3520880Y1822100D01*
X3521000Y1824400D01*
X3520740Y1827940D01*
X3520000Y1831020D01*
X3518840Y1833660D01*
X3517280Y1835860D01*
X3515419Y1837560D01*
X3513279Y1838800D01*
X3510920Y1839540D01*
G37*
G36*
X3525299Y1786800D02*
G01*
X3522820Y1786579D01*
X3520700Y1785880D01*
X3518920Y1784720D01*
X3517480Y1783120D01*
X3516380Y1781040D01*
X3515620Y1778480D01*
X3515160Y1775480D01*
X3515000Y1772000D01*
X3515000Y1763300D01*
X3514640Y1759600D01*
X3513962Y1758000D01*
X3519800Y1758000D01*
X3520380Y1760980D01*
X3520600Y1763500D01*
X3520600Y1771399D01*
X3520880Y1775300D01*
X3521820Y1778120D01*
X3523560Y1779820D01*
X3526200Y1780400D01*
X3527940Y1780140D01*
X3529640Y1779400D01*
X3531200Y1778180D01*
X3532620Y1776519D01*
X3533800Y1774480D01*
X3534700Y1772040D01*
X3535299Y1769280D01*
X3535500Y1766200D01*
X3535360Y1763320D01*
X3534940Y1760760D01*
X3534260Y1758520D01*
X3533360Y1756660D01*
X3532200Y1755180D01*
X3530860Y1754100D01*
X3529320Y1753420D01*
X3527600Y1753200D01*
X3525620Y1753480D01*
X3523620Y1754360D01*
X3521660Y1755860D01*
X3519800Y1758000D01*
X3513962Y1758000D01*
X3513639Y1757240D01*
X3512140Y1755980D01*
X3510200Y1755600D01*
X3508440Y1755820D01*
X3507000Y1756440D01*
X3505779Y1757380D01*
X3504700Y1758500D01*
X3505419Y1760080D01*
X3505920Y1761780D01*
X3506200Y1763500D01*
X3506300Y1765200D01*
X3506180Y1767340D01*
X3505820Y1769379D01*
X3505240Y1771300D01*
X3504420Y1773120D01*
X3503420Y1774760D01*
X3502200Y1776260D01*
X3500800Y1777580D01*
X3499200Y1778680D01*
X3497440Y1779580D01*
X3495520Y1780240D01*
X3493420Y1780660D01*
X3491200Y1780800D01*
X3488380Y1780520D01*
X3485820Y1779720D01*
X3483600Y1778520D01*
X3481800Y1777000D01*
X3481800Y1786100D01*
X3476800Y1786100D01*
X3476800Y1771200D01*
X3476019Y1768500D01*
X3475779Y1766920D01*
X3475700Y1765200D01*
X3480600Y1765200D01*
X3480779Y1767100D01*
X3481320Y1768899D01*
X3482200Y1770520D01*
X3483399Y1771960D01*
X3484900Y1773140D01*
X3486680Y1774040D01*
X3488720Y1774600D01*
X3491000Y1774800D01*
X3493360Y1774600D01*
X3495480Y1774040D01*
X3497320Y1773140D01*
X3498880Y1771960D01*
X3500120Y1770520D01*
X3501040Y1768899D01*
X3501600Y1767100D01*
X3501800Y1765200D01*
X3501600Y1763300D01*
X3501040Y1761500D01*
X3500120Y1759840D01*
X3498880Y1758400D01*
X3497320Y1757200D01*
X3495480Y1756279D01*
X3493360Y1755700D01*
X3491000Y1755500D01*
X3488680Y1755700D01*
X3486640Y1756260D01*
X3484860Y1757140D01*
X3483360Y1758320D01*
X3482180Y1759760D01*
X3481320Y1761399D01*
X3480779Y1763240D01*
X3480600Y1765200D01*
X3475700Y1765200D01*
X3475820Y1763040D01*
X3476200Y1760960D01*
X3476800Y1758980D01*
X3477620Y1757140D01*
X3478660Y1755440D01*
X3479900Y1753899D01*
X3481340Y1752540D01*
X3482940Y1751399D01*
X3484720Y1750460D01*
X3486680Y1749780D01*
X3488759Y1749340D01*
X3491000Y1749199D01*
X3494720Y1749680D01*
X3497980Y1750940D01*
X3500680Y1752740D01*
X3502700Y1754800D01*
X3503000Y1754800D01*
X3504420Y1753120D01*
X3506259Y1751579D01*
X3508460Y1750440D01*
X3511000Y1750000D01*
X3513399Y1750280D01*
X3515380Y1751080D01*
X3516980Y1752320D01*
X3518200Y1753899D01*
X3518500Y1753899D01*
X3520620Y1751220D01*
X3523039Y1749199D01*
X3525659Y1747940D01*
X3528399Y1747500D01*
X3530179Y1747640D01*
X3531840Y1748080D01*
X3533360Y1748800D01*
X3534720Y1749760D01*
X3535940Y1750980D01*
X3537020Y1752420D01*
X3537940Y1754100D01*
X3538720Y1755980D01*
X3539320Y1758040D01*
X3539740Y1760300D01*
X3540020Y1762720D01*
X3540100Y1765300D01*
X3539960Y1768480D01*
X3539540Y1771440D01*
X3538880Y1774180D01*
X3538000Y1776699D01*
X3536900Y1778959D01*
X3535620Y1780960D01*
X3534180Y1782700D01*
X3532600Y1784139D01*
X3530899Y1785280D01*
X3529100Y1786120D01*
X3527220Y1786620D01*
G37*
G36*
X3492600Y1736399D02*
G01*
X3489940Y1736320D01*
X3487500Y1736060D01*
X3485280Y1735620D01*
X3483279Y1735000D01*
X3481520Y1734199D01*
X3479980Y1733220D01*
X3478680Y1732040D01*
X3477620Y1730660D01*
X3476780Y1729100D01*
X3476180Y1727340D01*
X3475820Y1725380D01*
X3475700Y1723200D01*
X3475840Y1721060D01*
X3476280Y1719019D01*
X3476960Y1717100D01*
X3477860Y1715280D01*
X3478960Y1713540D01*
X3480220Y1711860D01*
X3481600Y1710260D01*
X3483100Y1708700D01*
X3483100Y1708400D01*
X3476800Y1707800D01*
X3476800Y1702500D01*
X3520000Y1702500D01*
X3520000Y1709000D01*
X3488399Y1709000D01*
X3485360Y1712180D01*
X3484160Y1713680D01*
X3483180Y1715140D01*
X3482400Y1716620D01*
X3481840Y1718120D01*
X3481520Y1719660D01*
X3481400Y1721300D01*
X3481580Y1723400D01*
X3482100Y1725180D01*
X3482980Y1726660D01*
X3484260Y1727840D01*
X3485920Y1728760D01*
X3487980Y1729400D01*
X3490480Y1729780D01*
X3493399Y1729900D01*
X3520000Y1729900D01*
X3520000Y1736399D01*
G37*
G36*
X3463000Y1688800D02*
G01*
X3461180Y1688440D01*
X3459780Y1687480D01*
X3458900Y1686060D01*
X3458600Y1684300D01*
X3458900Y1682440D01*
X3459780Y1680980D01*
X3461180Y1680040D01*
X3463000Y1679700D01*
X3464880Y1680040D01*
X3466300Y1680980D01*
X3467200Y1682440D01*
X3467500Y1684300D01*
X3467200Y1686060D01*
X3466300Y1687480D01*
X3464880Y1688440D01*
G37*
G36*
X3476800Y1687500D02*
G01*
X3476800Y1681000D01*
X3520000Y1681000D01*
X3520000Y1687500D01*
G37*
G36*
X3476600Y1673600D02*
G01*
X3476160Y1672560D01*
X3475880Y1671500D01*
X3475740Y1670360D01*
X3475700Y1669100D01*
X3475860Y1667280D01*
X3476340Y1665540D01*
X3477120Y1663839D01*
X3478180Y1662240D01*
X3479480Y1660720D01*
X3481019Y1659300D01*
X3482760Y1657980D01*
X3484700Y1656800D01*
X3484700Y1656600D01*
X3476800Y1656000D01*
X3476800Y1650700D01*
X3520000Y1650700D01*
X3520000Y1657200D01*
X3491800Y1657200D01*
X3489200Y1658360D01*
X3487040Y1659640D01*
X3485280Y1661020D01*
X3483880Y1662440D01*
X3482840Y1663920D01*
X3482140Y1665420D01*
X3481740Y1666879D01*
X3481600Y1668300D01*
X3481760Y1670420D01*
X3482300Y1672400D01*
G37*
G36*
X3498399Y1638899D02*
G01*
X3495779Y1638800D01*
X3493300Y1638480D01*
X3490960Y1637980D01*
X3488780Y1637280D01*
X3486760Y1636420D01*
X3484880Y1635400D01*
X3483180Y1634220D01*
X3481640Y1632920D01*
X3480280Y1631500D01*
X3479080Y1629960D01*
X3478060Y1628320D01*
X3477220Y1626579D01*
X3476560Y1624780D01*
X3476080Y1622900D01*
X3475800Y1620980D01*
X3475700Y1619000D01*
X3481200Y1619000D01*
X3481340Y1620900D01*
X3481760Y1622680D01*
X3482460Y1624360D01*
X3483399Y1625880D01*
X3484580Y1627280D01*
X3485980Y1628520D01*
X3487600Y1629600D01*
X3489400Y1630520D01*
X3491400Y1631240D01*
X3493580Y1631759D01*
X3495920Y1632080D01*
X3498399Y1632200D01*
X3500899Y1632080D01*
X3503260Y1631759D01*
X3505440Y1631240D01*
X3507440Y1630520D01*
X3509260Y1629600D01*
X3510860Y1628520D01*
X3512260Y1627280D01*
X3513420Y1625880D01*
X3514360Y1624360D01*
X3515040Y1622680D01*
X3515460Y1620900D01*
X3515600Y1619000D01*
X3515460Y1617100D01*
X3515040Y1615320D01*
X3514360Y1613660D01*
X3513420Y1612140D01*
X3512260Y1610760D01*
X3510860Y1609520D01*
X3509260Y1608460D01*
X3507440Y1607560D01*
X3505440Y1606860D01*
X3503260Y1606320D01*
X3500899Y1606000D01*
X3498399Y1605900D01*
X3495920Y1606000D01*
X3493580Y1606320D01*
X3491400Y1606840D01*
X3489400Y1607560D01*
X3487600Y1608460D01*
X3485980Y1609520D01*
X3484580Y1610760D01*
X3483399Y1612140D01*
X3482460Y1613660D01*
X3481760Y1615320D01*
X3481340Y1617100D01*
X3481200Y1619000D01*
X3475700Y1619000D01*
X3475800Y1617040D01*
X3476080Y1615100D01*
X3476560Y1613240D01*
X3477220Y1611440D01*
X3478060Y1609720D01*
X3479080Y1608080D01*
X3480280Y1606540D01*
X3481640Y1605120D01*
X3483180Y1603820D01*
X3484880Y1602660D01*
X3486760Y1601660D01*
X3488780Y1600800D01*
X3490960Y1600120D01*
X3493300Y1599620D01*
X3495779Y1599300D01*
X3498399Y1599199D01*
X3501019Y1599300D01*
X3503480Y1599620D01*
X3505800Y1600120D01*
X3507960Y1600800D01*
X3509980Y1601660D01*
X3511840Y1602660D01*
X3513540Y1603820D01*
X3515059Y1605120D01*
X3516420Y1606540D01*
X3517620Y1608080D01*
X3518639Y1609720D01*
X3519480Y1611440D01*
X3520140Y1613240D01*
X3520620Y1615100D01*
X3520899Y1617040D01*
X3521000Y1619000D01*
X3520899Y1620980D01*
X3520620Y1622900D01*
X3520140Y1624780D01*
X3519480Y1626579D01*
X3518639Y1628320D01*
X3517620Y1629960D01*
X3516420Y1631500D01*
X3515059Y1632920D01*
X3513540Y1634220D01*
X3511840Y1635400D01*
X3509980Y1636420D01*
X3507960Y1637280D01*
X3505800Y1637980D01*
X3503480Y1638480D01*
X3501019Y1638800D01*
G37*
G36*
X3519400Y1595000D02*
G01*
X3514500Y1593700D01*
X3514940Y1592560D01*
X3515320Y1591279D01*
X3515600Y1589960D01*
X3515700Y1588700D01*
X3515120Y1585440D01*
X3513440Y1583340D01*
X3510760Y1582240D01*
X3507200Y1581900D01*
X3482200Y1581900D01*
X3482200Y1593800D01*
X3476800Y1593800D01*
X3476800Y1581900D01*
X3464600Y1581900D01*
X3464600Y1576399D01*
X3476800Y1575600D01*
X3477200Y1568800D01*
X3482200Y1568800D01*
X3482200Y1575400D01*
X3507000Y1575400D01*
X3510020Y1575540D01*
X3512740Y1576000D01*
X3515120Y1576800D01*
X3517160Y1577980D01*
X3518780Y1579580D01*
X3520000Y1581639D01*
X3520740Y1584199D01*
X3521000Y1587300D01*
X3520860Y1589180D01*
X3520500Y1591140D01*
G37*
G36*
X3463000Y1560400D02*
G01*
X3461180Y1560060D01*
X3459780Y1559139D01*
X3458900Y1557740D01*
X3458600Y1556000D01*
X3458900Y1554100D01*
X3459780Y1552660D01*
X3461180Y1551720D01*
X3463000Y1551399D01*
X3464880Y1551720D01*
X3466300Y1552640D01*
X3467200Y1554100D01*
X3467500Y1556000D01*
X3467200Y1557740D01*
X3466300Y1559139D01*
X3464880Y1560060D01*
G37*
G36*
X3476800Y1559199D02*
G01*
X3476800Y1552700D01*
X3520000Y1552700D01*
X3520000Y1559199D01*
G37*
G36*
X3492600Y1538200D02*
G01*
X3489940Y1538120D01*
X3487500Y1537840D01*
X3485280Y1537400D01*
X3483279Y1536780D01*
X3481520Y1535960D01*
X3479980Y1534980D01*
X3478680Y1533800D01*
X3477620Y1532420D01*
X3476780Y1530860D01*
X3476180Y1529100D01*
X3475820Y1527160D01*
X3475700Y1525000D01*
X3475840Y1522860D01*
X3476280Y1520820D01*
X3476960Y1518899D01*
X3477860Y1517060D01*
X3478960Y1515300D01*
X3480220Y1513620D01*
X3481600Y1512000D01*
X3483100Y1510400D01*
X3483100Y1510200D01*
X3476800Y1509600D01*
X3476800Y1504300D01*
X3520000Y1504300D01*
X3520000Y1510800D01*
X3488399Y1510800D01*
X3486780Y1512400D01*
X3485360Y1513940D01*
X3484160Y1515420D01*
X3483180Y1516879D01*
X3482400Y1518340D01*
X3481840Y1519860D01*
X3481520Y1521440D01*
X3481400Y1523100D01*
X3481580Y1525180D01*
X3482100Y1526960D01*
X3482980Y1528420D01*
X3484260Y1529600D01*
X3485920Y1530500D01*
X3487980Y1531120D01*
X3490480Y1531480D01*
X3493399Y1531600D01*
X3520000Y1531600D01*
X3520000Y1538200D01*
G37*
G36*
X3498399Y1492500D02*
G01*
X3495779Y1492400D01*
X3493300Y1492080D01*
X3490960Y1491579D01*
X3488780Y1490880D01*
X3486760Y1490020D01*
X3484880Y1489000D01*
X3483180Y1487820D01*
X3481640Y1486519D01*
X3480280Y1485100D01*
X3479080Y1483560D01*
X3478060Y1481920D01*
X3477220Y1480180D01*
X3476560Y1478380D01*
X3476080Y1476500D01*
X3475800Y1474580D01*
X3475700Y1472600D01*
X3481200Y1472600D01*
X3481340Y1474500D01*
X3481760Y1476279D01*
X3482460Y1477960D01*
X3483399Y1479480D01*
X3484580Y1480880D01*
X3485980Y1482120D01*
X3487600Y1483200D01*
X3489400Y1484120D01*
X3491400Y1484840D01*
X3493580Y1485360D01*
X3495920Y1485680D01*
X3498399Y1485800D01*
X3500899Y1485680D01*
X3503260Y1485360D01*
X3505440Y1484840D01*
X3507440Y1484120D01*
X3509260Y1483200D01*
X3510860Y1482120D01*
X3512260Y1480880D01*
X3513420Y1479480D01*
X3514360Y1477960D01*
X3515040Y1476279D01*
X3515460Y1474500D01*
X3515600Y1472600D01*
X3515460Y1470700D01*
X3515040Y1468920D01*
X3514360Y1467260D01*
X3513420Y1465740D01*
X3512260Y1464360D01*
X3510860Y1463120D01*
X3509260Y1462060D01*
X3507440Y1461160D01*
X3505440Y1460460D01*
X3503260Y1459920D01*
X3500899Y1459600D01*
X3498399Y1459500D01*
X3495920Y1459600D01*
X3493580Y1459920D01*
X3491400Y1460460D01*
X3489400Y1461160D01*
X3487600Y1462060D01*
X3485980Y1463120D01*
X3484580Y1464360D01*
X3483399Y1465740D01*
X3482460Y1467260D01*
X3481760Y1468920D01*
X3481340Y1470700D01*
X3481200Y1472600D01*
X3475700Y1472600D01*
X3475800Y1470640D01*
X3476080Y1468700D01*
X3476560Y1466840D01*
X3477220Y1465040D01*
X3478060Y1463320D01*
X3479080Y1461680D01*
X3480280Y1460140D01*
X3481640Y1458720D01*
X3483180Y1457420D01*
X3484880Y1456260D01*
X3486760Y1455260D01*
X3488780Y1454400D01*
X3490960Y1453720D01*
X3493300Y1453220D01*
X3495779Y1452900D01*
X3498399Y1452800D01*
X3501019Y1452900D01*
X3503480Y1453220D01*
X3505800Y1453720D01*
X3507960Y1454400D01*
X3509980Y1455260D01*
X3511840Y1456260D01*
X3513540Y1457420D01*
X3515059Y1458720D01*
X3516420Y1460140D01*
X3517620Y1461680D01*
X3518639Y1463320D01*
X3519480Y1465040D01*
X3520140Y1466840D01*
X3520620Y1468700D01*
X3520899Y1470640D01*
X3521000Y1472600D01*
X3520899Y1474580D01*
X3520620Y1476500D01*
X3520140Y1478380D01*
X3519480Y1480180D01*
X3518639Y1481920D01*
X3517620Y1483560D01*
X3516420Y1485100D01*
X3515059Y1486519D01*
X3513540Y1487820D01*
X3511840Y1489000D01*
X3509980Y1490020D01*
X3507960Y1490880D01*
X3505800Y1491579D01*
X3503480Y1492080D01*
X3501019Y1492400D01*
G37*
G36*
X3492600Y1441600D02*
G01*
X3489940Y1441519D01*
X3487500Y1441240D01*
X3485280Y1440800D01*
X3483279Y1440160D01*
X3481520Y1439340D01*
X3479980Y1438360D01*
X3478680Y1437180D01*
X3477620Y1435800D01*
X3476780Y1434259D01*
X3476180Y1432520D01*
X3475820Y1430600D01*
X3475700Y1428500D01*
X3475860Y1426579D01*
X3476300Y1424720D01*
X3477040Y1422900D01*
X3478020Y1421120D01*
X3479240Y1419360D01*
X3480680Y1417600D01*
X3482300Y1415860D01*
X3484100Y1414100D01*
X3482280Y1413380D01*
X3480640Y1412460D01*
X3479200Y1411360D01*
X3477980Y1410020D01*
X3477020Y1408460D01*
X3476300Y1406639D01*
X3475860Y1404560D01*
X3475700Y1402200D01*
X3475840Y1400340D01*
X3476280Y1398520D01*
X3476960Y1396740D01*
X3477880Y1395020D01*
X3478980Y1393340D01*
X3480260Y1391759D01*
X3481680Y1390240D01*
X3483200Y1388800D01*
X3483200Y1388500D01*
X3476800Y1387900D01*
X3476800Y1382600D01*
X3520000Y1382600D01*
X3520000Y1389100D01*
X3488399Y1389100D01*
X3485320Y1392120D01*
X3483140Y1395020D01*
X3481840Y1397780D01*
X3481400Y1400400D01*
X3481580Y1402420D01*
X3482100Y1404160D01*
X3482980Y1405600D01*
X3484260Y1406780D01*
X3485920Y1407680D01*
X3487980Y1408300D01*
X3490480Y1408680D01*
X3493399Y1408800D01*
X3520000Y1408800D01*
X3520000Y1415300D01*
X3488399Y1415300D01*
X3485320Y1418360D01*
X3483140Y1421260D01*
X3481840Y1424040D01*
X3481400Y1426699D01*
X3481580Y1428700D01*
X3482100Y1430420D01*
X3482980Y1431860D01*
X3484260Y1433040D01*
X3485920Y1433940D01*
X3487980Y1434580D01*
X3490480Y1434980D01*
X3493399Y1435100D01*
X3520000Y1435100D01*
X3520000Y1441600D01*
G37*
G36*
X3476800Y1356100D02*
G01*
X3476800Y1349700D01*
X3501500Y1341600D01*
X3513700Y1338000D01*
X3513700Y1337600D01*
X3501500Y1333200D01*
X3476800Y1324000D01*
X3476800Y1317200D01*
X3520200Y1334700D01*
X3523600Y1333700D01*
X3525620Y1332920D01*
X3527500Y1332020D01*
X3529160Y1330980D01*
X3530600Y1329820D01*
X3531780Y1328500D01*
X3532660Y1327020D01*
X3533200Y1325400D01*
X3533399Y1323600D01*
X3533340Y1322700D01*
X3532700Y1320300D01*
X3538000Y1318899D01*
X3538399Y1320000D01*
X3538680Y1321220D01*
X3538840Y1322520D01*
X3538900Y1323899D01*
X3538759Y1325920D01*
X3538360Y1327780D01*
X3537720Y1329500D01*
X3536860Y1331080D01*
X3535779Y1332520D01*
X3534520Y1333839D01*
X3533100Y1335060D01*
X3531500Y1336160D01*
X3529780Y1337140D01*
X3527960Y1338040D01*
X3526019Y1338860D01*
G37*
G36*
X3519400Y1315100D02*
G01*
X3514500Y1313800D01*
X3514940Y1312660D01*
X3515320Y1311380D01*
X3515600Y1310060D01*
X3515700Y1308800D01*
X3515120Y1305540D01*
X3513440Y1303440D01*
X3510760Y1302340D01*
X3507200Y1302000D01*
X3482200Y1302000D01*
X3482200Y1313899D01*
X3476800Y1313899D01*
X3476800Y1302000D01*
X3464600Y1302000D01*
X3464600Y1296500D01*
X3476800Y1295700D01*
X3477200Y1288899D01*
X3482200Y1288899D01*
X3482200Y1295500D01*
X3507000Y1295500D01*
X3510020Y1295640D01*
X3512740Y1296100D01*
X3515120Y1296900D01*
X3517160Y1298080D01*
X3518780Y1299680D01*
X3520000Y1301740D01*
X3520740Y1304300D01*
X3521000Y1307400D01*
X3520860Y1309280D01*
X3520500Y1311260D01*
G37*
G36*
X3463000Y1280500D02*
G01*
X3461180Y1280160D01*
X3459780Y1279220D01*
X3458900Y1277800D01*
X3458600Y1276000D01*
X3458900Y1274160D01*
X3459780Y1272740D01*
X3461180Y1271820D01*
X3463000Y1271500D01*
X3464880Y1271820D01*
X3466300Y1272740D01*
X3467200Y1274160D01*
X3467500Y1276000D01*
X3467200Y1277800D01*
X3466300Y1279220D01*
X3464880Y1280160D01*
G37*
G36*
X3476800Y1279200D02*
G01*
X3476800Y1272800D01*
X3520000Y1272800D01*
X3520000Y1279200D01*
G37*
G36*
X3520500Y1261400D02*
G01*
X3515400Y1260400D01*
X3515580Y1259500D01*
X3515600Y1258900D01*
X3515419Y1258120D01*
X3514880Y1257480D01*
X3513960Y1257060D01*
X3512600Y1256900D01*
X3456300Y1256900D01*
X3456300Y1250400D01*
X3512100Y1250400D01*
X3515899Y1250800D01*
X3518680Y1252080D01*
X3520419Y1254280D01*
X3521000Y1257500D01*
X3520860Y1259740D01*
G37*
G36*
X3493200Y1236200D02*
G01*
X3490680Y1236120D01*
X3488300Y1235840D01*
X3486080Y1235380D01*
X3484040Y1234720D01*
X3482200Y1233860D01*
X3480560Y1232800D01*
X3479120Y1231520D01*
X3477919Y1230000D01*
X3476980Y1228260D01*
X3476280Y1226300D01*
X3475840Y1224080D01*
X3475700Y1221600D01*
X3475840Y1219020D01*
X3476240Y1216540D01*
X3476840Y1214180D01*
X3477620Y1211960D01*
X3478500Y1209900D01*
X3479460Y1208000D01*
X3481400Y1204800D01*
X3485899Y1207400D01*
X3484180Y1210100D01*
X3482640Y1213240D01*
X3481520Y1216720D01*
X3481100Y1220500D01*
X3481360Y1223060D01*
X3482100Y1225120D01*
X3483240Y1226740D01*
X3484720Y1227960D01*
X3486480Y1228820D01*
X3488440Y1229360D01*
X3490539Y1229640D01*
X3509800Y1229700D01*
X3512380Y1226500D01*
X3514260Y1223460D01*
X3515419Y1220400D01*
X3515800Y1217200D01*
X3515400Y1214100D01*
X3514100Y1211540D01*
X3511840Y1209840D01*
X3508500Y1209200D01*
X3507080Y1209320D01*
X3505740Y1209660D01*
X3504480Y1210260D01*
X3503320Y1211120D01*
X3502240Y1212260D01*
X3501259Y1213720D01*
X3500360Y1215480D01*
X3499540Y1217580D01*
X3498820Y1220040D01*
X3498159Y1222860D01*
X3497580Y1226080D01*
X3497100Y1229700D01*
X3492700Y1229700D01*
X3493600Y1223240D01*
X3494160Y1220360D01*
X3494780Y1217700D01*
X3495480Y1215280D01*
X3496240Y1213100D01*
X3497100Y1211120D01*
X3498020Y1209360D01*
X3499040Y1207820D01*
X3500160Y1206500D01*
X3501360Y1205380D01*
X3502660Y1204480D01*
X3504060Y1203780D01*
X3505560Y1203300D01*
X3507180Y1203000D01*
X3508900Y1202900D01*
X3511660Y1203160D01*
X3514080Y1203880D01*
X3516160Y1205020D01*
X3517880Y1206540D01*
X3519220Y1208400D01*
X3520200Y1210540D01*
X3520800Y1212920D01*
X3521000Y1215500D01*
X3520880Y1217500D01*
X3520500Y1219460D01*
X3519920Y1221380D01*
X3519160Y1223240D01*
X3518240Y1225040D01*
X3517160Y1226760D01*
X3515980Y1228420D01*
X3514700Y1230000D01*
X3514700Y1230300D01*
X3520000Y1230800D01*
X3520000Y1236200D01*
G37*
G36*
X3476800Y1190600D02*
G01*
X3476800Y1184100D01*
X3507799Y1184100D01*
X3509620Y1182540D01*
X3511180Y1181020D01*
X3512480Y1179560D01*
X3513540Y1178120D01*
X3514360Y1176680D01*
X3514940Y1175180D01*
X3515280Y1173640D01*
X3515400Y1172000D01*
X3515220Y1169880D01*
X3514700Y1168080D01*
X3513800Y1166600D01*
X3512520Y1165420D01*
X3510840Y1164520D01*
X3508780Y1163880D01*
X3506300Y1163520D01*
X3503399Y1163400D01*
X3476800Y1163400D01*
X3476800Y1156900D01*
X3504200Y1156900D01*
X3506860Y1156980D01*
X3509300Y1157240D01*
X3511500Y1157680D01*
X3513480Y1158300D01*
X3515240Y1159100D01*
X3516760Y1160080D01*
X3518060Y1161240D01*
X3519120Y1162600D01*
X3519940Y1164160D01*
X3520520Y1165900D01*
X3520880Y1167860D01*
X3521000Y1170000D01*
X3520860Y1172180D01*
X3520419Y1174220D01*
X3519740Y1176140D01*
X3518820Y1177940D01*
X3517660Y1179660D01*
X3516320Y1181300D01*
X3514780Y1182880D01*
X3513100Y1184400D01*
X3513100Y1184700D01*
X3520000Y1185200D01*
X3520000Y1190600D01*
G37*
G36*
X3476800Y1142400D02*
G01*
X3476800Y1137200D01*
X3480899Y1136600D01*
X3480899Y1136400D01*
X3478700Y1133520D01*
X3477060Y1130600D01*
X3476040Y1127460D01*
X3475795Y1124900D01*
X3481200Y1124900D01*
X3481480Y1127680D01*
X3482320Y1130380D01*
X3483820Y1133120D01*
X3486000Y1136000D01*
X3509400Y1136000D01*
X3512040Y1133100D01*
X3513960Y1130220D01*
X3515100Y1127300D01*
X3515500Y1124300D01*
X3515360Y1122400D01*
X3514960Y1120640D01*
X3514320Y1119020D01*
X3513420Y1117580D01*
X3512280Y1116280D01*
X3510920Y1115140D01*
X3509340Y1114160D01*
X3507540Y1113360D01*
X3505539Y1112720D01*
X3503340Y1112260D01*
X3500960Y1112000D01*
X3498399Y1111900D01*
X3495940Y1112020D01*
X3493620Y1112360D01*
X3491460Y1112900D01*
X3489460Y1113640D01*
X3487640Y1114580D01*
X3486019Y1115660D01*
X3484600Y1116900D01*
X3483420Y1118280D01*
X3482460Y1119780D01*
X3481780Y1121400D01*
X3481340Y1123120D01*
X3481200Y1124900D01*
X3475795Y1124900D01*
X3475700Y1123900D01*
X3475800Y1122060D01*
X3476100Y1120240D01*
X3476600Y1118480D01*
X3477300Y1116780D01*
X3478159Y1115160D01*
X3479220Y1113600D01*
X3480440Y1112140D01*
X3481840Y1110780D01*
X3483399Y1109540D01*
X3485100Y1108440D01*
X3486980Y1107460D01*
X3488980Y1106640D01*
X3491139Y1105980D01*
X3493440Y1105500D01*
X3495860Y1105200D01*
X3498399Y1105100D01*
X3501040Y1105180D01*
X3503540Y1105420D01*
X3505880Y1105800D01*
X3508039Y1106340D01*
X3510059Y1107040D01*
X3511920Y1107860D01*
X3513620Y1108820D01*
X3515140Y1109920D01*
X3516500Y1111140D01*
X3517679Y1112480D01*
X3518680Y1113940D01*
X3519500Y1115520D01*
X3520160Y1117200D01*
X3520620Y1119000D01*
X3520899Y1120900D01*
X3521000Y1122900D01*
X3520880Y1124820D01*
X3520520Y1126680D01*
X3519960Y1128480D01*
X3519220Y1130200D01*
X3518300Y1131840D01*
X3517240Y1133420D01*
X3516080Y1134900D01*
X3514800Y1136300D01*
X3522900Y1136000D01*
X3538600Y1136000D01*
X3538600Y1142400D01*
G37*
G36*
X3476600Y1083200D02*
G01*
X3476160Y1082100D01*
X3475880Y1081020D01*
X3475740Y1079860D01*
X3475700Y1078600D01*
X3475860Y1076780D01*
X3476340Y1075040D01*
X3477120Y1073360D01*
X3478180Y1071760D01*
X3479480Y1070240D01*
X3481019Y1068840D01*
X3482760Y1067560D01*
X3484700Y1066400D01*
X3484700Y1066100D01*
X3476800Y1065500D01*
X3476800Y1060200D01*
X3520000Y1060200D01*
X3520000Y1066700D01*
X3491800Y1066700D01*
X3489200Y1067860D01*
X3487040Y1069140D01*
X3485280Y1070520D01*
X3483880Y1071940D01*
X3482840Y1073420D01*
X3482140Y1074920D01*
X3481740Y1076380D01*
X3481600Y1077800D01*
X3481760Y1079920D01*
X3482300Y1081900D01*
G37*
G36*
X3463000Y1046400D02*
G01*
X3461180Y1046060D01*
X3459780Y1045140D01*
X3458900Y1043740D01*
X3458600Y1042000D01*
X3458900Y1040100D01*
X3459780Y1038640D01*
X3461180Y1037720D01*
X3463000Y1037400D01*
X3464880Y1037720D01*
X3466300Y1038660D01*
X3467200Y1040100D01*
X3467500Y1042000D01*
X3467200Y1043740D01*
X3466300Y1045140D01*
X3464880Y1046060D01*
G37*
G36*
X3476800Y1045200D02*
G01*
X3476800Y1038700D01*
X3520000Y1038700D01*
X3520000Y1045200D01*
G37*
G36*
X3493200Y1024400D02*
G01*
X3490680Y1024320D01*
X3488300Y1024040D01*
X3486080Y1023600D01*
X3484040Y1022940D01*
X3482200Y1022099D01*
X3480560Y1021040D01*
X3479120Y1019760D01*
X3477919Y1018259D01*
X3476980Y1016520D01*
X3476280Y1014520D01*
X3475840Y1012300D01*
X3475700Y1009800D01*
X3475840Y1007220D01*
X3476240Y1004760D01*
X3476840Y1002420D01*
X3477620Y1000200D01*
X3478500Y998139D01*
X3479460Y996240D01*
X3481400Y993000D01*
X3485899Y995600D01*
X3484180Y998319D01*
X3482640Y1001480D01*
X3481520Y1005000D01*
X3481100Y1008800D01*
X3481360Y1011320D01*
X3482100Y1013360D01*
X3483240Y1014960D01*
X3484720Y1016180D01*
X3486480Y1017039D01*
X3488440Y1017600D01*
X3490539Y1017900D01*
X3492700Y1018000D01*
X3509800Y1018000D01*
X3512380Y1014800D01*
X3514260Y1011740D01*
X3515419Y1008700D01*
X3515800Y1005500D01*
X3515400Y1002400D01*
X3514100Y999860D01*
X3511840Y998139D01*
X3508500Y997500D01*
X3507080Y997620D01*
X3505740Y997960D01*
X3504480Y998560D01*
X3503320Y999419D01*
X3502240Y1000560D01*
X3501259Y1002020D01*
X3500360Y1003780D01*
X3499540Y1005879D01*
X3498820Y1008340D01*
X3498159Y1011160D01*
X3497580Y1014380D01*
X3497100Y1018000D01*
X3492700Y1018000D01*
X3493600Y1011500D01*
X3494160Y1008620D01*
X3494780Y1005960D01*
X3495480Y1003540D01*
X3496240Y1001340D01*
X3497100Y999380D01*
X3498020Y997620D01*
X3499040Y996100D01*
X3500160Y994780D01*
X3501360Y993660D01*
X3502660Y992780D01*
X3504060Y992080D01*
X3505560Y991580D01*
X3507180Y991300D01*
X3508900Y991200D01*
X3511660Y991440D01*
X3514080Y992159D01*
X3516160Y993280D01*
X3517880Y994780D01*
X3519220Y996620D01*
X3520200Y998760D01*
X3520800Y1001120D01*
X3521000Y1003700D01*
X3520880Y1005740D01*
X3520500Y1007720D01*
X3519920Y1009620D01*
X3519160Y1011480D01*
X3518240Y1013280D01*
X3517160Y1015020D01*
X3515980Y1016700D01*
X3514700Y1018300D01*
X3514700Y1018500D01*
X3520000Y1019100D01*
X3520000Y1024400D01*
G37*
G36*
X3461400Y966000D02*
G01*
X3461400Y923600D01*
X3467000Y923600D01*
X3467000Y941400D01*
X3520000Y941400D01*
X3520000Y948100D01*
X3467000Y948100D01*
X3467000Y966000D01*
G37*
G36*
X3498399Y922000D02*
G01*
X3495779Y921900D01*
X3493300Y921580D01*
X3490960Y921060D01*
X3488780Y920360D01*
X3486760Y919500D01*
X3484880Y918460D01*
X3483180Y917280D01*
X3481640Y915980D01*
X3480280Y914539D01*
X3479080Y912980D01*
X3478060Y911340D01*
X3477220Y909599D01*
X3476560Y907780D01*
X3476080Y905900D01*
X3475800Y903980D01*
X3475700Y902000D01*
X3481200Y902000D01*
X3481340Y903900D01*
X3481760Y905680D01*
X3482460Y907360D01*
X3483399Y908880D01*
X3484580Y910280D01*
X3485980Y911520D01*
X3487600Y912600D01*
X3489400Y913520D01*
X3491400Y914240D01*
X3493580Y914760D01*
X3495920Y915080D01*
X3498399Y915200D01*
X3500899Y915080D01*
X3503260Y914760D01*
X3505440Y914240D01*
X3507440Y913520D01*
X3509260Y912600D01*
X3510860Y911520D01*
X3512260Y910280D01*
X3513420Y908880D01*
X3514360Y907360D01*
X3515040Y905680D01*
X3515460Y903900D01*
X3515600Y902000D01*
X3515460Y900120D01*
X3515040Y898360D01*
X3514360Y896700D01*
X3513420Y895180D01*
X3512260Y893800D01*
X3510860Y892560D01*
X3509260Y891480D01*
X3507440Y890580D01*
X3505440Y889860D01*
X3503260Y889340D01*
X3500899Y889020D01*
X3498399Y888900D01*
X3495920Y889020D01*
X3493580Y889340D01*
X3491400Y889860D01*
X3489400Y890580D01*
X3487600Y891480D01*
X3485980Y892560D01*
X3484580Y893800D01*
X3483399Y895180D01*
X3482460Y896700D01*
X3481760Y898360D01*
X3481340Y900120D01*
X3481200Y902000D01*
X3475700Y902000D01*
X3475800Y900040D01*
X3476080Y898139D01*
X3476560Y896280D01*
X3477220Y894479D01*
X3478060Y892760D01*
X3479080Y891120D01*
X3480280Y889580D01*
X3481640Y888160D01*
X3483180Y886860D01*
X3484880Y885699D01*
X3486760Y884680D01*
X3488780Y883820D01*
X3490960Y883120D01*
X3493300Y882620D01*
X3495779Y882300D01*
X3498399Y882200D01*
X3501019Y882300D01*
X3503480Y882620D01*
X3505800Y883120D01*
X3507960Y883820D01*
X3509980Y884680D01*
X3511840Y885699D01*
X3513540Y886860D01*
X3515059Y888160D01*
X3516420Y889580D01*
X3517620Y891120D01*
X3518639Y892760D01*
X3519480Y894479D01*
X3520140Y896280D01*
X3520620Y898139D01*
X3520899Y900040D01*
X3521000Y902000D01*
X3520899Y903980D01*
X3520620Y905900D01*
X3520140Y907780D01*
X3519480Y909599D01*
X3518639Y911340D01*
X3517620Y912980D01*
X3516420Y914539D01*
X3515059Y915980D01*
X3513540Y917280D01*
X3511840Y918460D01*
X3509980Y919500D01*
X3507960Y920360D01*
X3505800Y921060D01*
X3503480Y921580D01*
X3501019Y921900D01*
G37*
G36*
X3461400Y869800D02*
G01*
X3461400Y863199D01*
X3520000Y863199D01*
X3520000Y869800D01*
G37*
D10*
X2906899Y1540100D02*
G01*
X2904200Y1538800D01*
X2901499Y1536100D01*
X2900200Y1533400D01*
X2900200Y1528099D01*
X2901499Y1525399D01*
X2904200Y1522699D01*
X2906899Y1521300D01*
X2910900Y1520000D01*
X2917700Y1520000D01*
X2921700Y1521300D01*
X2924399Y1522699D01*
X2926999Y1525399D01*
X2928400Y1528099D01*
X2928400Y1533400D01*
X2926999Y1536100D01*
X2924399Y1538800D01*
X2921700Y1540100D01*
X2917700Y1540100D01*
X2917700Y1533400D02*
G01*
X2917700Y1540100D01*
X2900200Y1549000D02*
G01*
X2928400Y1549000D01*
X2900200Y1549000D02*
G01*
X2928400Y1567800D01*
X2900200Y1567800D02*
G01*
X2928400Y1567800D01*
X2900200Y1576599D02*
G01*
X2928400Y1576599D01*
X2900200Y1576599D02*
G01*
X2900200Y1585999D01*
X2901499Y1590100D01*
X2904200Y1592699D01*
X2906899Y1594099D01*
X2910900Y1595399D01*
X2917700Y1595399D01*
X2921700Y1594099D01*
X2924399Y1592699D01*
X2926999Y1590100D01*
X2928400Y1585999D01*
X2928400Y1576599D01*
X2900200Y1627699D02*
G01*
X2900200Y1642399D01*
X2910900Y1634400D01*
X2910900Y1638400D01*
X2912299Y1641100D01*
X2913599Y1642399D01*
X2917700Y1643800D01*
X2920299Y1643800D01*
X2924399Y1642399D01*
X2926999Y1639800D01*
X2928400Y1635700D01*
X2928400Y1631700D01*
X2926999Y1627699D01*
X2925699Y1626300D01*
X2923000Y1625000D01*
X2900200Y1652600D02*
G01*
X2928400Y1663400D01*
X2900200Y1674099D02*
G01*
X2928400Y1663400D01*
X2900200Y1685700D02*
G01*
X2900200Y1700399D01*
X2910900Y1692399D01*
X2910900Y1696399D01*
X2912299Y1699099D01*
X2913599Y1700399D01*
X2917700Y1701799D01*
X2920299Y1701799D01*
X2924399Y1700399D01*
X2926999Y1697699D01*
X2928400Y1693699D01*
X2928400Y1689699D01*
X2926999Y1685700D01*
X2925699Y1684299D01*
X2923000Y1683000D01*
X2904200Y1748800D02*
G01*
X2901499Y1746100D01*
X2900200Y1742100D01*
X2900200Y1736700D01*
X2901499Y1732699D01*
X2904200Y1730000D01*
X2906899Y1730000D01*
X2909600Y1731300D01*
X2910900Y1732699D01*
X2912299Y1735399D01*
X2915000Y1743400D01*
X2916300Y1746100D01*
X2917700Y1747399D01*
X2920299Y1748800D01*
X2924399Y1748800D01*
X2926999Y1746100D01*
X2928400Y1742100D01*
X2928400Y1736700D01*
X2926999Y1732699D01*
X2924399Y1730000D01*
X2906899Y1777800D02*
G01*
X2904200Y1776399D01*
X2901499Y1773800D01*
X2900200Y1771100D01*
X2900200Y1765700D01*
X2901499Y1763000D01*
X2904200Y1760300D01*
X2906899Y1759000D01*
X2910900Y1757600D01*
X2917700Y1757600D01*
X2921700Y1759000D01*
X2924399Y1760300D01*
X2926999Y1763000D01*
X2928400Y1765700D01*
X2928400Y1771100D01*
X2926999Y1773800D01*
X2924399Y1776399D01*
X2921700Y1777800D01*
X2900200Y1786599D02*
G01*
X2928400Y1786599D01*
X2928400Y1786599D02*
G01*
X2928400Y1802699D01*
X2904200Y1838800D02*
G01*
X2901499Y1836100D01*
X2900200Y1832100D01*
X2900200Y1826700D01*
X2901499Y1822699D01*
X2904200Y1820000D01*
X2906899Y1820000D01*
X2909600Y1821300D01*
X2910900Y1822699D01*
X2912299Y1825399D01*
X2915000Y1833400D01*
X2916300Y1836100D01*
X2917700Y1837399D01*
X2920299Y1838800D01*
X2924399Y1838800D01*
X2926999Y1836100D01*
X2928400Y1832100D01*
X2928400Y1826700D01*
X2926999Y1822699D01*
X2924399Y1820000D01*
X2900200Y1847600D02*
G01*
X2928400Y1847600D01*
X2900200Y1847600D02*
G01*
X2900200Y1856999D01*
X2901499Y1861100D01*
X2904200Y1863800D01*
X2906899Y1865100D01*
X2910900Y1866399D01*
X2917700Y1866399D01*
X2921700Y1865100D01*
X2924399Y1863800D01*
X2926999Y1861100D01*
X2928400Y1856999D01*
X2928400Y1847600D01*
X2900200Y1885999D02*
G01*
X2928400Y1875300D01*
X2900200Y1885999D02*
G01*
X2928400Y1896799D01*
X2918999Y1879299D02*
G01*
X2918999Y1892699D01*
X2900200Y996100D02*
G01*
X2900200Y982699D01*
X2912299Y981300D01*
X2910900Y982699D01*
X2909600Y986700D01*
X2909600Y990700D01*
X2910900Y994800D01*
X2913599Y997399D01*
X2917700Y998800D01*
X2920299Y998800D01*
X2924399Y997399D01*
X2926999Y994800D01*
X2928400Y990700D01*
X2928400Y986700D01*
X2926999Y982699D01*
X2925699Y981300D01*
X2923000Y980000D01*
X2900200Y1007600D02*
G01*
X2928400Y1018400D01*
X2900200Y1029099D02*
G01*
X2928400Y1018400D01*
X2906899Y1090100D02*
G01*
X2904200Y1088800D01*
X2901499Y1086100D01*
X2900200Y1083400D01*
X2900200Y1078099D01*
X2901499Y1075399D01*
X2904200Y1072699D01*
X2906899Y1071300D01*
X2910900Y1070000D01*
X2917700Y1070000D01*
X2921700Y1071300D01*
X2924399Y1072699D01*
X2926999Y1075399D01*
X2928400Y1078099D01*
X2928400Y1083400D01*
X2926999Y1086100D01*
X2924399Y1088800D01*
X2921700Y1090100D01*
X2917700Y1090100D01*
X2917700Y1083400D02*
G01*
X2917700Y1090100D01*
X2900200Y1099000D02*
G01*
X2928400Y1099000D01*
X2900200Y1099000D02*
G01*
X2928400Y1117800D01*
X2900200Y1117800D02*
G01*
X2928400Y1117800D01*
X2900200Y1126599D02*
G01*
X2928400Y1126599D01*
X2900200Y1126599D02*
G01*
X2900200Y1135999D01*
X2901499Y1140100D01*
X2904200Y1142699D01*
X2906899Y1144099D01*
X2910900Y1145399D01*
X2917700Y1145399D01*
X2921700Y1144099D01*
X2924399Y1142699D01*
X2926999Y1140100D01*
X2928400Y1135999D01*
X2928400Y1126599D01*
X2900200Y1199400D02*
G01*
X2928400Y1199400D01*
X2900200Y1190000D02*
G01*
X2900200Y1208800D01*
X2900200Y1217600D02*
G01*
X2928400Y1236399D01*
X2900200Y1236399D02*
G01*
X2928400Y1217600D01*
X2900200Y1290000D02*
G01*
X2928400Y1290000D01*
X2900200Y1290000D02*
G01*
X2900200Y1302100D01*
X2901499Y1306100D01*
X2902899Y1307399D01*
X2905600Y1308800D01*
X2908299Y1308800D01*
X2910900Y1307399D01*
X2912299Y1306100D01*
X2913599Y1302100D01*
X2913599Y1290000D01*
X2913599Y1299400D02*
G01*
X2928400Y1308800D01*
X2900200Y1317600D02*
G01*
X2928400Y1336399D01*
X2900200Y1336399D02*
G01*
X2928400Y1317600D01*
X3387700Y2440700D02*
G01*
X3415900Y2430000D01*
X3387700Y2440700D02*
G01*
X3415900Y2451500D01*
X3406499Y2434000D02*
G01*
X3406499Y2447399D01*
X3387700Y2460300D02*
G01*
X3415900Y2460300D01*
X3387700Y2460300D02*
G01*
X3415900Y2479099D01*
X3387700Y2479099D02*
G01*
X3415900Y2479099D01*
X3387700Y2537700D02*
G01*
X3387700Y2552399D01*
X3398400Y2544400D01*
X3398400Y2548400D01*
X3399799Y2551100D01*
X3401099Y2552399D01*
X3405200Y2553800D01*
X3407799Y2553800D01*
X3411899Y2552399D01*
X3414499Y2549800D01*
X3415900Y2545700D01*
X3415900Y2541700D01*
X3414499Y2537700D01*
X3413199Y2536300D01*
X3410500Y2535000D01*
X3387700Y2562600D02*
G01*
X3415900Y2573400D01*
X3387700Y2584099D02*
G01*
X3415900Y2573400D01*
X3387700Y2595700D02*
G01*
X3387700Y2610399D01*
X3398400Y2602399D01*
X3398400Y2606399D01*
X3399799Y2609099D01*
X3401099Y2610399D01*
X3405200Y2611799D01*
X3407799Y2611799D01*
X3411899Y2610399D01*
X3414499Y2607700D01*
X3415900Y2603699D01*
X3415900Y2599699D01*
X3414499Y2595700D01*
X3413199Y2594299D01*
X3410500Y2593000D01*
X3394399Y2665100D02*
G01*
X3391700Y2663800D01*
X3388999Y2661100D01*
X3387700Y2658400D01*
X3387700Y2653099D01*
X3388999Y2650399D01*
X3391700Y2647700D01*
X3394399Y2646300D01*
X3398400Y2645000D01*
X3405200Y2645000D01*
X3409200Y2646300D01*
X3411899Y2647700D01*
X3414499Y2650399D01*
X3415900Y2653099D01*
X3415900Y2658400D01*
X3414499Y2661100D01*
X3411899Y2663800D01*
X3409200Y2665100D01*
X3405200Y2665100D01*
X3405200Y2658400D02*
G01*
X3405200Y2665100D01*
X3387700Y2674000D02*
G01*
X3415900Y2674000D01*
X3387700Y2674000D02*
G01*
X3415900Y2692800D01*
X3387700Y2692800D02*
G01*
X3415900Y2692800D01*
X3387700Y2701599D02*
G01*
X3415900Y2701599D01*
X3387700Y2701599D02*
G01*
X3387700Y2710999D01*
X3388999Y2715100D01*
X3391700Y2717700D01*
X3394399Y2719099D01*
X3398400Y2720399D01*
X3405200Y2720399D01*
X3409200Y2719099D01*
X3411899Y2717700D01*
X3414499Y2715100D01*
X3415900Y2710999D01*
X3415900Y2701599D01*
D11*
X2065000Y1005700D02*
G01*
X2065000Y929400D01*
X2065000Y1005700D02*
G01*
X2097700Y1005700D01*
X2108599Y1002100D01*
X2112299Y998499D01*
X2115900Y991199D01*
X2115900Y983899D01*
X2112299Y976599D01*
X2108599Y973000D01*
X2097700Y969400D01*
X2065000Y969400D02*
G01*
X2097700Y969400D01*
X2108599Y965700D01*
X2112299Y962100D01*
X2115900Y954800D01*
X2115900Y943899D01*
X2112299Y936599D01*
X2108599Y933000D01*
X2097700Y929400D01*
X2065000Y929400D01*
X2139899Y1005700D02*
G01*
X2139899Y929400D01*
X2139899Y1005700D02*
G01*
X2168999Y929400D01*
X2198100Y1005700D02*
G01*
X2168999Y929400D01*
X2198100Y1005700D02*
G01*
X2198100Y929400D01*
X2222100Y1005700D02*
G01*
X2222100Y929400D01*
X2222100Y1005700D02*
G01*
X2254799Y1005700D01*
X2265699Y1002100D01*
X2269399Y998499D01*
X2273000Y991199D01*
X2273000Y980300D01*
X2269399Y973000D01*
X2265699Y969400D01*
X2254799Y965700D01*
X2222100Y965700D01*
X2300600Y987500D02*
G01*
X2300600Y991199D01*
X2304300Y998499D01*
X2307899Y1002100D01*
X2315200Y1005700D01*
X2329700Y1005700D01*
X2336999Y1002100D01*
X2340600Y998499D01*
X2344300Y991199D01*
X2344300Y983899D01*
X2340600Y976599D01*
X2333400Y965700D01*
X2296999Y929400D01*
X2347899Y929400D01*
X2390100Y1005700D02*
G01*
X2379200Y1002100D01*
X2375500Y994800D01*
X2375500Y987500D01*
X2379200Y980300D01*
X2386499Y976599D01*
X2401000Y973000D01*
X2411899Y969400D01*
X2419200Y962100D01*
X2422799Y954800D01*
X2422799Y943899D01*
X2419200Y936599D01*
X2415500Y933000D01*
X2404600Y929400D01*
X2390100Y929400D01*
X2379200Y933000D01*
X2375500Y936599D01*
X2371899Y943899D01*
X2371899Y954800D01*
X2375500Y962100D01*
X2382799Y969400D01*
X2393699Y973000D01*
X2408299Y976599D01*
X2415500Y980300D01*
X2419200Y987500D01*
X2419200Y994800D01*
X2415500Y1002100D01*
X2404600Y1005700D01*
X2390100Y1005700D01*
X2468599Y1005700D02*
G01*
X2457700Y1002100D01*
X2450500Y991199D01*
X2446800Y973000D01*
X2446800Y962100D01*
X2450500Y943899D01*
X2457700Y933000D01*
X2468599Y929400D01*
X2475900Y929400D01*
X2486800Y933000D01*
X2494099Y943899D01*
X2497700Y962100D01*
X2497700Y973000D01*
X2494099Y991199D01*
X2486800Y1002100D01*
X2475900Y1005700D01*
X2468599Y1005700D01*
X2084300Y1345000D02*
G01*
X2160600Y1374099D01*
X2084300Y1403200D02*
G01*
X2160600Y1374099D01*
X2102500Y1481700D02*
G01*
X2095200Y1478099D01*
X2087899Y1470799D01*
X2084300Y1463499D01*
X2084300Y1449000D01*
X2087899Y1441700D01*
X2095200Y1434499D01*
X2102500Y1430799D01*
X2113400Y1427199D01*
X2131499Y1427199D01*
X2142500Y1430799D01*
X2149700Y1434499D01*
X2156999Y1441700D01*
X2160600Y1449000D01*
X2160600Y1463499D01*
X2156999Y1470799D01*
X2149700Y1478099D01*
X2142500Y1481700D01*
X2102500Y1560300D02*
G01*
X2095200Y1556599D01*
X2087899Y1549400D01*
X2084300Y1542100D01*
X2084300Y1527500D01*
X2087899Y1520300D01*
X2095200Y1513000D01*
X2102500Y1509400D01*
X2113400Y1505700D01*
X2131499Y1505700D01*
X2142500Y1509400D01*
X2149700Y1513000D01*
X2156999Y1520300D01*
X2160600Y1527500D01*
X2160600Y1542100D01*
X2156999Y1549400D01*
X2149700Y1556599D01*
X2142500Y1560300D01*
X2202500Y1404499D02*
G01*
X2195200Y1400900D01*
X2187899Y1393600D01*
X2184300Y1386399D01*
X2184300Y1371799D01*
X2187899Y1364499D01*
X2195200Y1357300D01*
X2202500Y1353600D01*
X2213400Y1350000D01*
X2231499Y1350000D01*
X2242500Y1353600D01*
X2249700Y1357300D01*
X2256999Y1364499D01*
X2260600Y1371799D01*
X2260600Y1386399D01*
X2256999Y1393600D01*
X2249700Y1400900D01*
X2242500Y1404499D01*
X2231499Y1404499D01*
X2231499Y1386399D02*
G01*
X2231499Y1404499D01*
X2184300Y1428499D02*
G01*
X2260600Y1428499D01*
X2184300Y1428499D02*
G01*
X2260600Y1479499D01*
X2184300Y1479499D02*
G01*
X2260600Y1479499D01*
X2184300Y1503499D02*
G01*
X2260600Y1503499D01*
X2184300Y1503499D02*
G01*
X2184300Y1528899D01*
X2187899Y1539800D01*
X2195200Y1547100D01*
X2202500Y1550700D01*
X2213400Y1554400D01*
X2231499Y1554400D01*
X2242500Y1550700D01*
X2249700Y1547100D01*
X2256999Y1539800D01*
X2260600Y1528899D01*
X2260600Y1503499D01*
X2300200Y1420900D02*
G01*
X2292899Y1413600D01*
X2289300Y1402699D01*
X2289300Y1388200D01*
X2292899Y1377300D01*
X2300200Y1370000D01*
X2307500Y1370000D01*
X2314700Y1373600D01*
X2318400Y1377300D01*
X2321999Y1384499D01*
X2329300Y1406399D01*
X2332899Y1413600D01*
X2336499Y1417300D01*
X2343800Y1420900D01*
X2354700Y1420900D01*
X2361999Y1413600D01*
X2365600Y1402699D01*
X2365600Y1388200D01*
X2361999Y1377300D01*
X2354700Y1370000D01*
X2307500Y1499499D02*
G01*
X2300200Y1495799D01*
X2292899Y1488499D01*
X2289300Y1481300D01*
X2289300Y1466700D01*
X2292899Y1459499D01*
X2300200Y1452199D01*
X2307500Y1448499D01*
X2318400Y1444899D01*
X2336499Y1444899D01*
X2347500Y1448499D01*
X2354700Y1452199D01*
X2361999Y1459499D01*
X2365600Y1466700D01*
X2365600Y1481300D01*
X2361999Y1488499D01*
X2354700Y1495799D01*
X2347500Y1499499D01*
X2289300Y1523499D02*
G01*
X2365600Y1523499D01*
X2365600Y1523499D02*
G01*
X2365600Y1567100D01*
X2405200Y1410900D02*
G01*
X2397899Y1403600D01*
X2394300Y1392699D01*
X2394300Y1378200D01*
X2397899Y1367300D01*
X2405200Y1360000D01*
X2412500Y1360000D01*
X2419700Y1363600D01*
X2423400Y1367300D01*
X2426999Y1374499D01*
X2434300Y1396399D01*
X2437899Y1403600D01*
X2441499Y1407300D01*
X2448800Y1410900D01*
X2459700Y1410900D01*
X2466999Y1403600D01*
X2470600Y1392699D01*
X2470600Y1378200D01*
X2466999Y1367300D01*
X2459700Y1360000D01*
X2394300Y1434899D02*
G01*
X2470600Y1434899D01*
X2394300Y1434899D02*
G01*
X2394300Y1460399D01*
X2397899Y1471300D01*
X2405200Y1478499D01*
X2412500Y1482199D01*
X2423400Y1485799D01*
X2441499Y1485799D01*
X2452500Y1482199D01*
X2459700Y1478499D01*
X2466999Y1471300D01*
X2470600Y1460399D01*
X2470600Y1434899D01*
X2394300Y1538899D02*
G01*
X2470600Y1509800D01*
X2394300Y1538899D02*
G01*
X2470600Y1568000D01*
X2445200Y1520700D02*
G01*
X2445200Y1557100D01*
D12*
X3104600Y2525000D02*
G01*
X3147500Y2525000D01*
X3104600Y2525000D02*
G01*
X3104600Y2539299D01*
X3106599Y2545500D01*
X3110699Y2549499D01*
X3114799Y2551599D01*
X3121000Y2553600D01*
X3131199Y2553600D01*
X3137299Y2551599D01*
X3141400Y2549499D01*
X3145500Y2545500D01*
X3147500Y2539299D01*
X3147500Y2525000D01*
X3104600Y2567100D02*
G01*
X3147500Y2567100D01*
X3104600Y2595799D02*
G01*
X3147500Y2595799D01*
X3125000Y2567100D02*
G01*
X3125000Y2595799D01*
X3104600Y2623600D02*
G01*
X3147500Y2623600D01*
X3104600Y2609299D02*
G01*
X3104600Y2637899D01*
X967637Y2973825D02*
G01*
X967637Y2930925D01*
X967637Y2973825D02*
G01*
X994237Y2973825D01*
X967637Y2953425D02*
G01*
X984038Y2953425D01*
X967637Y2930925D02*
G01*
X994237Y2930925D01*
X1036337Y2967725D02*
G01*
X1032237Y2971826D01*
X1026138Y2973825D01*
X1017938Y2973825D01*
X1011837Y2971826D01*
X1007737Y2967725D01*
X1007737Y2963625D01*
X1009737Y2959526D01*
X1011837Y2957426D01*
X1015937Y2955426D01*
X1028137Y2951325D01*
X1032237Y2949326D01*
X1034337Y2947226D01*
X1036337Y2943126D01*
X1036337Y2937026D01*
X1032237Y2932926D01*
X1026138Y2930925D01*
X1017938Y2930925D01*
X1011837Y2932926D01*
X1007737Y2937026D01*
X1049837Y2973825D02*
G01*
X1049837Y2930925D01*
X1049837Y2973825D02*
G01*
X1068238Y2973825D01*
X1074438Y2971826D01*
X1076437Y2969726D01*
X1078537Y2965626D01*
X1078537Y2959526D01*
X1076437Y2955426D01*
X1074438Y2953425D01*
X1068238Y2951325D01*
X1049837Y2951325D01*
X1102237Y2973825D02*
G01*
X1096138Y2971826D01*
X1094038Y2967725D01*
X1094038Y2963625D01*
X1096138Y2959526D01*
X1100137Y2957426D01*
X1108338Y2955426D01*
X1114538Y2953425D01*
X1118638Y2949326D01*
X1120637Y2945225D01*
X1120637Y2939025D01*
X1118638Y2934926D01*
X1116538Y2932926D01*
X1110438Y2930925D01*
X1102237Y2930925D01*
X1096138Y2932926D01*
X1094038Y2934926D01*
X1092038Y2939025D01*
X1092038Y2945225D01*
X1094038Y2949326D01*
X1098137Y2953425D01*
X1104237Y2955426D01*
X1112438Y2957426D01*
X1116538Y2959526D01*
X1118638Y2963625D01*
X1118638Y2967725D01*
X1116538Y2971826D01*
X1110438Y2973825D01*
X1102237Y2973825D01*
X1136138Y2963625D02*
G01*
X1136138Y2965626D01*
X1138238Y2969726D01*
X1140237Y2971826D01*
X1144337Y2973825D01*
X1152538Y2973825D01*
X1156638Y2971826D01*
X1158638Y2969726D01*
X1160738Y2965626D01*
X1160738Y2961525D01*
X1158638Y2957426D01*
X1154638Y2951325D01*
X1134138Y2930925D01*
X1162737Y2930925D01*
X1200838Y2967725D02*
G01*
X1198738Y2971826D01*
X1192637Y2973825D01*
X1188537Y2973825D01*
X1182438Y2971826D01*
X1178338Y2965626D01*
X1176238Y2955426D01*
X1176238Y2945225D01*
X1178338Y2937026D01*
X1182438Y2932926D01*
X1188537Y2930925D01*
X1190637Y2930925D01*
X1196737Y2932926D01*
X1200838Y2937026D01*
X1202838Y2943126D01*
X1202838Y2945225D01*
X1200838Y2951325D01*
X1196737Y2955426D01*
X1190637Y2957426D01*
X1188537Y2957426D01*
X1182438Y2955426D01*
X1178338Y2951325D01*
X1176238Y2945225D01*
X1240937Y2967725D02*
G01*
X1238837Y2971826D01*
X1232737Y2973825D01*
X1228638Y2973825D01*
X1222538Y2971826D01*
X1218437Y2965626D01*
X1216337Y2955426D01*
X1216337Y2945225D01*
X1218437Y2937026D01*
X1222538Y2932926D01*
X1228638Y2930925D01*
X1230637Y2930925D01*
X1236837Y2932926D01*
X1240937Y2937026D01*
X1242938Y2943126D01*
X1242938Y2945225D01*
X1240937Y2951325D01*
X1236837Y2955426D01*
X1230637Y2957426D01*
X1228638Y2957426D01*
X1222538Y2955426D01*
X1218437Y2951325D01*
X1216337Y2945225D01*
D11*
X872632Y1411120D02*
G01*
X948932Y1411120D01*
X872632Y1411120D02*
G01*
X872632Y1458420D01*
X908932Y1411120D02*
G01*
X908932Y1440221D01*
X948932Y1411120D02*
G01*
X948932Y1458420D01*
X883531Y1533321D02*
G01*
X876232Y1526021D01*
X872632Y1515120D01*
X872632Y1500621D01*
X876232Y1489621D01*
X883531Y1482420D01*
X890731Y1482420D01*
X898032Y1486021D01*
X901732Y1489621D01*
X905331Y1496921D01*
X912632Y1518721D01*
X916232Y1526021D01*
X919831Y1529621D01*
X927132Y1533321D01*
X938032Y1533321D01*
X945331Y1526021D01*
X948932Y1515120D01*
X948932Y1500621D01*
X945331Y1489621D01*
X938032Y1482420D01*
X872632Y1557321D02*
G01*
X948932Y1557321D01*
X872632Y1557321D02*
G01*
X872632Y1590021D01*
X876232Y1600920D01*
X879831Y1604621D01*
X887132Y1608220D01*
X898032Y1608220D01*
X905331Y1604621D01*
X908932Y1600920D01*
X912632Y1590021D01*
X912632Y1557321D01*
X872632Y1650421D02*
G01*
X876232Y1639520D01*
X883531Y1635821D01*
X890731Y1635821D01*
X898032Y1639520D01*
X901732Y1646720D01*
X905331Y1661320D01*
X908932Y1672220D01*
X916232Y1679520D01*
X923531Y1683121D01*
X934431Y1683121D01*
X941732Y1679520D01*
X945331Y1675821D01*
X948932Y1664920D01*
X948932Y1650421D01*
X945331Y1639520D01*
X941732Y1635821D01*
X934431Y1632220D01*
X923531Y1632220D01*
X916232Y1635821D01*
X908932Y1643121D01*
X905331Y1654020D01*
X901732Y1668620D01*
X898032Y1675821D01*
X890731Y1679520D01*
X883531Y1679520D01*
X876232Y1675821D01*
X872632Y1664920D01*
X872632Y1650421D01*
X890731Y1710720D02*
G01*
X887132Y1710720D01*
X879831Y1714421D01*
X876232Y1718020D01*
X872632Y1725320D01*
X872632Y1739821D01*
X876232Y1747121D01*
X879831Y1750720D01*
X887132Y1754421D01*
X894431Y1754421D01*
X901732Y1750720D01*
X912632Y1743521D01*
X948932Y1707121D01*
X948932Y1758020D01*
X883531Y1825621D02*
G01*
X876232Y1822020D01*
X872632Y1811120D01*
X872632Y1803820D01*
X876232Y1792921D01*
X887132Y1785621D01*
X905331Y1782020D01*
X923531Y1782020D01*
X938032Y1785621D01*
X945331Y1792921D01*
X948932Y1803820D01*
X948932Y1807521D01*
X945331Y1818420D01*
X938032Y1825621D01*
X927132Y1829321D01*
X923531Y1829321D01*
X912632Y1825621D01*
X905331Y1818420D01*
X901732Y1807521D01*
X901732Y1803820D01*
X905331Y1792921D01*
X912632Y1785621D01*
X923531Y1782020D01*
X883531Y1896921D02*
G01*
X876232Y1893321D01*
X872632Y1882420D01*
X872632Y1875120D01*
X876232Y1864220D01*
X887132Y1856921D01*
X905331Y1853321D01*
X923531Y1853321D01*
X938032Y1856921D01*
X945331Y1864220D01*
X948932Y1875120D01*
X948932Y1878721D01*
X945331Y1889621D01*
X938032Y1896921D01*
X927132Y1900621D01*
X923531Y1900621D01*
X912632Y1896921D01*
X905331Y1889621D01*
X901732Y1878721D01*
X901732Y1875120D01*
X905331Y1864220D01*
X912632Y1856921D01*
X923531Y1853321D01*
X916232Y1924621D02*
G01*
X916232Y1990021D01*
X872632Y2014020D02*
G01*
X948932Y2014020D01*
X872632Y2014020D02*
G01*
X872632Y2061320D01*
X908932Y2014020D02*
G01*
X908932Y2043121D01*
X948932Y2014020D02*
G01*
X948932Y2061320D01*
X887132Y2085320D02*
G01*
X883531Y2092620D01*
X872632Y2103521D01*
X948932Y2103521D01*
X890731Y2131120D02*
G01*
X887132Y2131120D01*
X879831Y2134720D01*
X876232Y2138420D01*
X872632Y2145621D01*
X872632Y2160221D01*
X876232Y2167521D01*
X879831Y2171120D01*
X887132Y2174720D01*
X894431Y2174720D01*
X901732Y2171120D01*
X912632Y2163820D01*
X948932Y2127521D01*
X948932Y2178420D01*
X992632Y1411120D02*
G01*
X1068932Y1411120D01*
X992632Y1411120D02*
G01*
X1068932Y1462020D01*
X992632Y1462020D02*
G01*
X1068932Y1462020D01*
X1018032Y1504220D02*
G01*
X1021732Y1496921D01*
X1028932Y1489621D01*
X1039831Y1486021D01*
X1047132Y1486021D01*
X1058032Y1489621D01*
X1065331Y1496921D01*
X1068932Y1504220D01*
X1068932Y1515120D01*
X1065331Y1522420D01*
X1058032Y1529621D01*
X1047132Y1533321D01*
X1039831Y1533321D01*
X1028932Y1529621D01*
X1021732Y1522420D01*
X1018032Y1515120D01*
X1018032Y1504220D01*
X992632Y1600920D02*
G01*
X1068932Y1600920D01*
X1028932Y1600920D02*
G01*
X1021732Y1593620D01*
X1018032Y1586421D01*
X1018032Y1575520D01*
X1021732Y1568220D01*
X1028932Y1560920D01*
X1039831Y1557321D01*
X1047132Y1557321D01*
X1058032Y1560920D01*
X1065331Y1568220D01*
X1068932Y1575520D01*
X1068932Y1586421D01*
X1065331Y1593620D01*
X1058032Y1600920D01*
X1039831Y1624920D02*
G01*
X1039831Y1668620D01*
X1032632Y1668620D01*
X1025331Y1664920D01*
X1021732Y1661320D01*
X1018032Y1654020D01*
X1018032Y1643121D01*
X1021732Y1635821D01*
X1028932Y1628620D01*
X1039831Y1624920D01*
X1047132Y1624920D01*
X1058032Y1628620D01*
X1065331Y1635821D01*
X1068932Y1643121D01*
X1068932Y1654020D01*
X1065331Y1661320D01*
X1058032Y1668620D01*
X992632Y1692620D02*
G01*
X1068932Y1692620D01*
X992632Y1692620D02*
G01*
X1068932Y1721621D01*
X992632Y1750720D02*
G01*
X1068932Y1721621D01*
X992632Y1750720D02*
G01*
X1068932Y1750720D01*
X1010731Y1829321D02*
G01*
X1003531Y1825621D01*
X996232Y1818420D01*
X992632Y1811120D01*
X992632Y1796621D01*
X996232Y1789321D01*
X1003531Y1782020D01*
X1010731Y1778420D01*
X1021732Y1774720D01*
X1039831Y1774720D01*
X1050731Y1778420D01*
X1058032Y1782020D01*
X1065331Y1789321D01*
X1068932Y1796621D01*
X1068932Y1811120D01*
X1065331Y1818420D01*
X1058032Y1825621D01*
X1050731Y1829321D01*
X992632Y1853321D02*
G01*
X1047132Y1853321D01*
X1058032Y1856921D01*
X1065331Y1864220D01*
X1068932Y1875120D01*
X1068932Y1882420D01*
X1065331Y1893321D01*
X1058032Y1900621D01*
X1047132Y1904220D01*
X992632Y1904220D01*
X992632Y1984220D02*
G01*
X1068932Y2013321D01*
X992632Y2042420D02*
G01*
X1068932Y2013321D01*
X992632Y2073620D02*
G01*
X992632Y2113620D01*
X1021732Y2091821D01*
X1021732Y2102721D01*
X1025331Y2110021D01*
X1028932Y2113620D01*
X1039831Y2117321D01*
X1047132Y2117321D01*
X1058032Y2113620D01*
X1065331Y2106421D01*
X1068932Y2095520D01*
X1068932Y2084621D01*
X1065331Y2073620D01*
X1061732Y2070021D01*
X1054431Y2066421D01*
X867637Y777026D02*
G01*
X867637Y722525D01*
X871238Y711626D01*
X878537Y704326D01*
X889438Y700725D01*
X896737Y700725D01*
X907637Y704326D01*
X914938Y711626D01*
X918537Y722525D01*
X918537Y777026D01*
X993437Y766125D02*
G01*
X986138Y773425D01*
X975237Y777026D01*
X960738Y777026D01*
X949837Y773425D01*
X942538Y766125D01*
X942538Y758926D01*
X946138Y751626D01*
X949837Y747926D01*
X957138Y744326D01*
X978937Y737026D01*
X986138Y733425D01*
X989837Y729825D01*
X993437Y722525D01*
X993437Y711626D01*
X986138Y704326D01*
X975237Y700725D01*
X960738Y700725D01*
X949837Y704326D01*
X942538Y711626D01*
X1017438Y777026D02*
G01*
X1017438Y700725D01*
X1017438Y777026D02*
G01*
X1050137Y777026D01*
X1061138Y773425D01*
X1064737Y769825D01*
X1068338Y762525D01*
X1068338Y755225D01*
X1064737Y747926D01*
X1061138Y744326D01*
X1050137Y740725D01*
X1017438Y740725D02*
G01*
X1050137Y740725D01*
X1061138Y737026D01*
X1064737Y733425D01*
X1068338Y726125D01*
X1068338Y715225D01*
X1064737Y707926D01*
X1061138Y704326D01*
X1050137Y700725D01*
X1017438Y700725D01*
D12*
X2714600Y1662300D02*
G01*
X2716599Y1658200D01*
X2720699Y1654099D01*
X2724799Y1651999D01*
X2731000Y1650000D01*
X2741199Y1650000D01*
X2747299Y1651999D01*
X2751400Y1654099D01*
X2755500Y1658200D01*
X2757500Y1662300D01*
X2757500Y1670500D01*
X2755500Y1674499D01*
X2751400Y1678600D01*
X2747299Y1680700D01*
X2741199Y1682699D01*
X2731000Y1682699D01*
X2724799Y1680700D01*
X2720699Y1678600D01*
X2716599Y1674499D01*
X2714600Y1670500D01*
X2714600Y1662300D01*
X2714600Y1696199D02*
G01*
X2757500Y1696199D01*
X2757500Y1696199D02*
G01*
X2757500Y1720799D01*
X2714600Y1734299D02*
G01*
X2757500Y1734299D01*
X2714600Y1734299D02*
G01*
X2714600Y1760900D01*
X2735000Y1734299D02*
G01*
X2735000Y1750599D01*
X2757500Y1734299D02*
G01*
X2757500Y1760900D01*
X2714600Y1774400D02*
G01*
X2757500Y1774400D01*
X2714600Y1774400D02*
G01*
X2714600Y1788699D01*
X2716599Y1794800D01*
X2720699Y1798899D01*
X2724799Y1800999D01*
X2731000Y1803000D01*
X2741199Y1803000D01*
X2747299Y1800999D01*
X2751400Y1798899D01*
X2755500Y1794800D01*
X2757500Y1788699D01*
X2757500Y1774400D01*
X2714600Y1085000D02*
G01*
X2757500Y1085000D01*
X2714600Y1085000D02*
G01*
X2714600Y1103400D01*
X2716599Y1109499D01*
X2718699Y1111599D01*
X2722799Y1113600D01*
X2728900Y1113600D01*
X2733000Y1111599D01*
X2735000Y1109499D01*
X2737100Y1103400D01*
X2737100Y1085000D01*
X2714600Y1127100D02*
G01*
X2757500Y1127100D01*
X2714600Y1127100D02*
G01*
X2757500Y1143499D01*
X2714600Y1159899D02*
G01*
X2757500Y1143499D01*
X2714600Y1159899D02*
G01*
X2757500Y1159899D01*
X2720699Y1201999D02*
G01*
X2716599Y1197899D01*
X2714600Y1191799D01*
X2714600Y1183600D01*
X2716599Y1177500D01*
X2720699Y1173400D01*
X2724799Y1173400D01*
X2728900Y1175399D01*
X2731000Y1177500D01*
X2733000Y1181500D01*
X2737100Y1193800D01*
X2739099Y1197899D01*
X2741199Y1200000D01*
X2745299Y1201999D01*
X2751400Y1201999D01*
X2755500Y1197899D01*
X2757500Y1191799D01*
X2757500Y1183600D01*
X2755500Y1177500D01*
X2751400Y1173400D01*
D11*
X2400900Y3004800D02*
G01*
X2393599Y3012100D01*
X2382700Y3015700D01*
X2368199Y3015700D01*
X2357299Y3012100D01*
X2350000Y3004800D01*
X2350000Y2997500D01*
X2353599Y2990300D01*
X2357299Y2986599D01*
X2364499Y2983000D01*
X2386400Y2975700D01*
X2393599Y2972100D01*
X2397299Y2968499D01*
X2400900Y2961199D01*
X2400900Y2950300D01*
X2393599Y2943000D01*
X2382700Y2939400D01*
X2368199Y2939400D01*
X2357299Y2943000D01*
X2350000Y2950300D01*
X2479499Y2997500D02*
G01*
X2475799Y3004800D01*
X2468500Y3012100D01*
X2461300Y3015700D01*
X2446700Y3015700D01*
X2439499Y3012100D01*
X2432200Y3004800D01*
X2428500Y2997500D01*
X2424899Y2986599D01*
X2424899Y2968499D01*
X2428500Y2957500D01*
X2432200Y2950300D01*
X2439499Y2943000D01*
X2446700Y2939400D01*
X2461300Y2939400D01*
X2468500Y2943000D01*
X2475799Y2950300D01*
X2479499Y2957500D01*
X2479499Y2968499D01*
X2461300Y2968499D02*
G01*
X2479499Y2968499D01*
X2503500Y3015700D02*
G01*
X2503500Y2939400D01*
X2503500Y3015700D02*
G01*
X2536199Y3015700D01*
X2547100Y3012100D01*
X2550699Y3008499D01*
X2554399Y3001199D01*
X2554399Y2990300D01*
X2550699Y2983000D01*
X2547100Y2979400D01*
X2536199Y2975700D01*
X2503500Y2975700D01*
X2614700Y3015700D02*
G01*
X2578400Y2964800D01*
X2632899Y2964800D01*
X2614700Y3015700D02*
G01*
X2614700Y2939400D01*
X2678699Y3015700D02*
G01*
X2667799Y3012100D01*
X2660500Y3001199D01*
X2656899Y2983000D01*
X2656899Y2972100D01*
X2660500Y2953899D01*
X2667799Y2943000D01*
X2678699Y2939400D01*
X2686000Y2939400D01*
X2696899Y2943000D01*
X2704200Y2953899D01*
X2707799Y2972100D01*
X2707799Y2983000D01*
X2704200Y3001199D01*
X2696899Y3012100D01*
X2686000Y3015700D01*
X2678699Y3015700D01*
D10*
X2295000Y2389800D02*
G01*
X2305699Y2361599D01*
X2316499Y2389800D02*
G01*
X2305699Y2361599D01*
X2325299Y2389800D02*
G01*
X2326700Y2388499D01*
X2328000Y2389800D01*
X2326700Y2391100D01*
X2325299Y2389800D01*
X2326700Y2380399D02*
G01*
X2326700Y2361599D01*
X2336899Y2380399D02*
G01*
X2336899Y2361599D01*
X2336899Y2375000D02*
G01*
X2340900Y2379099D01*
X2343599Y2380399D01*
X2347600Y2380399D01*
X2350299Y2379099D01*
X2351599Y2375000D01*
X2351599Y2361599D01*
X2402700Y2389800D02*
G01*
X2417399Y2389800D01*
X2409399Y2379099D01*
X2413400Y2379099D01*
X2416099Y2377700D01*
X2417399Y2376399D01*
X2418800Y2372300D01*
X2418800Y2369699D01*
X2417399Y2365599D01*
X2414799Y2363000D01*
X2410699Y2361599D01*
X2406700Y2361599D01*
X2402700Y2363000D01*
X2401300Y2364299D01*
X2400000Y2366999D01*
X2427600Y2380399D02*
G01*
X2435699Y2361599D01*
X2443800Y2380399D02*
G01*
X2435699Y2361599D01*
X2459300Y2380399D02*
G01*
X2456599Y2379099D01*
X2453999Y2376399D01*
X2452600Y2372300D01*
X2452600Y2369699D01*
X2453999Y2365599D01*
X2456599Y2363000D01*
X2459300Y2361599D01*
X2463400Y2361599D01*
X2466000Y2363000D01*
X2468699Y2365599D01*
X2470100Y2369699D01*
X2470100Y2372300D01*
X2468699Y2376399D01*
X2466000Y2379099D01*
X2463400Y2380399D01*
X2459300Y2380399D01*
X2515100Y2383099D02*
G01*
X2513800Y2385799D01*
X2511099Y2388499D01*
X2508400Y2389800D01*
X2503100Y2389800D01*
X2500399Y2388499D01*
X2497700Y2385799D01*
X2496300Y2383099D01*
X2495000Y2379099D01*
X2495000Y2372300D01*
X2496300Y2368299D01*
X2497700Y2365599D01*
X2500399Y2363000D01*
X2503100Y2361599D01*
X2508400Y2361599D01*
X2511099Y2363000D01*
X2513800Y2365599D01*
X2515100Y2368299D01*
X2515100Y2372300D01*
X2508400Y2372300D02*
G01*
X2515100Y2372300D01*
X2523999Y2389800D02*
G01*
X2523999Y2361599D01*
X2523999Y2389800D02*
G01*
X2542799Y2361599D01*
X2542799Y2389800D02*
G01*
X2542799Y2361599D01*
X2551599Y2389800D02*
G01*
X2551599Y2361599D01*
X2551599Y2389800D02*
G01*
X2561000Y2389800D01*
X2565100Y2388499D01*
X2567700Y2385799D01*
X2569099Y2383099D01*
X2570399Y2379099D01*
X2570399Y2372300D01*
X2569099Y2368299D01*
X2567700Y2365599D01*
X2565100Y2363000D01*
X2561000Y2361599D01*
X2551599Y2361599D01*
X2618800Y2385799D02*
G01*
X2616099Y2388499D01*
X2612100Y2389800D01*
X2606700Y2389800D01*
X2602700Y2388499D01*
X2600000Y2385799D01*
X2600000Y2383099D01*
X2601300Y2380399D01*
X2602700Y2379099D01*
X2605399Y2377700D01*
X2613400Y2375000D01*
X2616099Y2373699D01*
X2617399Y2372300D01*
X2618800Y2369699D01*
X2618800Y2365599D01*
X2616099Y2363000D01*
X2612100Y2361599D01*
X2606700Y2361599D01*
X2602700Y2363000D01*
X2600000Y2365599D01*
X2647799Y2383099D02*
G01*
X2646400Y2385799D01*
X2643800Y2388499D01*
X2641099Y2389800D01*
X2635699Y2389800D01*
X2633000Y2388499D01*
X2630299Y2385799D01*
X2628999Y2383099D01*
X2627600Y2379099D01*
X2627600Y2372300D01*
X2628999Y2368299D01*
X2630299Y2365599D01*
X2633000Y2363000D01*
X2635699Y2361599D01*
X2641099Y2361599D01*
X2643800Y2363000D01*
X2646400Y2365599D01*
X2647799Y2368299D01*
X2656599Y2389800D02*
G01*
X2656599Y2361599D01*
X2656599Y2361599D02*
G01*
X2672700Y2361599D01*
X2713800Y2385799D02*
G01*
X2711099Y2388499D01*
X2707100Y2389800D01*
X2701700Y2389800D01*
X2697700Y2388499D01*
X2695000Y2385799D01*
X2695000Y2383099D01*
X2696300Y2380399D01*
X2697700Y2379099D01*
X2700399Y2377700D01*
X2708400Y2375000D01*
X2711099Y2373699D01*
X2712399Y2372300D01*
X2713800Y2369699D01*
X2713800Y2365599D01*
X2711099Y2363000D01*
X2707100Y2361599D01*
X2701700Y2361599D01*
X2697700Y2363000D01*
X2695000Y2365599D01*
X2722600Y2389800D02*
G01*
X2722600Y2361599D01*
X2722600Y2389800D02*
G01*
X2731999Y2389800D01*
X2736099Y2388499D01*
X2738800Y2385799D01*
X2740100Y2383099D01*
X2741400Y2379099D01*
X2741400Y2372300D01*
X2740100Y2368299D01*
X2738800Y2365599D01*
X2736099Y2363000D01*
X2731999Y2361599D01*
X2722600Y2361599D01*
X2761000Y2389800D02*
G01*
X2750299Y2361599D01*
X2761000Y2389800D02*
G01*
X2771800Y2361599D01*
X2754300Y2370999D02*
G01*
X2767700Y2370999D01*
D13*
X2025000Y1740000D02*
G01*
X2525000Y1740000D01*
X2525000Y1045000D01*
X2025000Y1045000D01*
X2025000Y1740000D01*
X3226445Y2426250D02*
G01*
X3226445Y2506250D01*
X3306445Y2506250D01*
X3306445Y2426250D01*
X3226445Y2426250D01*
X3166445Y2365000D02*
G01*
X3166445Y2765000D01*
X3366445Y2765000D01*
X3366445Y2365000D01*
X3166445Y2365000D01*
X362638Y2918425D02*
G01*
X1583108Y2918425D01*
X1583108Y658586D01*
X362638Y658586D01*
X362638Y2918425D01*
X762637Y813425D02*
G01*
X1187637Y813425D01*
X1187637Y553425D01*
X762637Y553425D01*
X762637Y813425D01*
D11*
X2780000Y1910000D02*
G01*
X2880000Y1910000D01*
X2880000Y1510000D01*
X2780000Y1510000D01*
X2780000Y1585000D01*
D14*
X2780000Y1910000D02*
G01*
X2780000Y1585000D01*
D11*
X2780000Y1355000D02*
G01*
X2880000Y1355000D01*
X2880000Y955000D01*
X2780000Y955000D01*
X2780000Y1030000D01*
D14*
X2780000Y1355000D02*
G01*
X2780000Y1030000D01*
D13*
X2025000Y2910000D02*
G01*
X3025000Y2910000D01*
X3025000Y2205000D01*
X2025000Y2205000D01*
X2025000Y2910000D01*
G75*
G01*
X3248945Y2365000D02*
G03*
X3283945Y2365000I17500J0D01*
G75*
G01
X534810Y2820000D02*
G03X534810Y2820000I-59060J0D01*
G75*
G01
X1519060Y2820000D02*
G03X1519060Y2820000I-59060J0D01*
G75*
G01
X534810Y776700D02*
G03X534810Y776700I-59060J0D01*
G75*
G01
X1519060Y776700D02*
G03X1519060Y776700I-59060J0D01*
M02*
